<?xml version="1.0" encoding="utf-8"?>
<!-- Generator: Adobe Illustrator 19.0.0, SVG Export Plug-In . SVG Version: 6.00 Build 0)  -->
<svg version="1.1" id="Layer_1" xmlns="http://www.w3.org/2000/svg" xmlns:xlink="http://www.w3.org/1999/xlink" x="0px" y="0px"
	 viewBox="-230 322 150 150" style="enable-background:new -230 322 150 150;" xml:space="preserve">
<style type="text/css">
	.st0{fill:#1C161C;}
</style>
<g>
	<path class="st0" d="M-210.4,357.3c2.3,0,4.7,0,7,0c2.4,0,4.7,0,7,0c1.8-0.1,3.8-0.2,3.9-2.4c0.1-2.7-2.1-2.8-4.1-2.8
		c-4.7,0-9.4-0.1-14.1,0c-1.8,0.1-4.3-0.3-4.1,2.6C-214.6,357.2-212.3,357.3-210.4,357.3z"/>
	<path class="st0" d="M-80.1,380.3c-0.1-11.4-7.3-18.8-18.7-19.2c-6.3-0.2-12.7-0.4-19,0.1c-6.1,0.5-9.3-1.3-11.3-7.6
		c-4.2-13.1-7.1-14.7-21-14.8c-1.5,0-3.1,0-4.6,0c-19.5,0-19.6,0-26.7,17.8c-1.4,3.4-3.2,4.6-6.8,4.5c-7.4-0.2-14.9-0.3-22.3,0
		c-11.3,0.4-18.9,7.3-19.2,18.3c-0.4,19-0.4,38.1,0,57.1c0.2,10.2,6.9,17.4,15.9,18.5c0.8,0.2,1.7,0.3,2.5,0.3c2.3,0,4.7,0,7,0
		c2.4,0,4.7,0,7,0c1.2-0.1,2.3-0.1,3.1-0.8c0.1,0,0.1-0.1,0.2-0.1l21.7-23.2l0,0c5.1,3.7,11.4,5.9,18,6
		c17.4,0.1,30.8-13.1,30.9-30.4c0.1-18.4-12.5-31.4-30.5-31.5c-17.7-0.1-31.4,13.7-31.3,31.7c0,7.9,3.4,15.2,8.7,20.6l-0.1-0.1
		l-21.2,22.6c-4.6,0-9.2-0.1-13.9,0c0,0-0.1,0-0.1,0c-8.2-1.1-12.8-6-12.9-14.5c-0.2-18.3-0.2-36.7,0-55.1c0.1-8.9,5.6-14,14.6-14.3
		c4.8-0.1,9.6,0,14.4,0c15.9,0,16,0,21.5-15.1c1.9-5.1,5.1-7.3,10.3-7.2c2.2,0,4.4,0,6.6,0c22.1,0.1,18.4-2,25.7,17.8
		c1.3,3.5,3.2,4.6,6.8,4.5c8.3-0.2,16.6-0.1,24.9,0c9.8,0.1,14.5,4.9,14.5,14.5c0,18.2,0,36.3,0,54.5c0,9.8-3.4,13.6-13.4,14.9
		c-1.9,0.2-4.2-0.1-3.9,2.9c0.2,2.6,2.3,2.1,4,2.2c10,0.4,18.2-7.1,18.4-17.2c0.1-9.8,0-19.7,0-29.5
		C-80.1,399-80.1,389.6-80.1,380.3z M-180,405.9c0-14.4,11.5-25.7,25.8-25.7c15.1,0.1,25.5,10.5,25.4,25.5
		c0.1,15.5-10.7,26.1-25.9,25.9C-168.6,431.5-180,419.9-180,405.9z"/>
</g>
</svg>
