<?xml version="1.0" encoding="utf-8"?>
<!-- Generator: Adobe Illustrator 19.0.0, SVG Export Plug-In . SVG Version: 6.00 Build 0)  -->
<svg version="1.1" id="Layer_1" xmlns="http://www.w3.org/2000/svg" xmlns:xlink="http://www.w3.org/1999/xlink" x="0px" y="0px"
	 viewBox="-230 322 150 150" style="enable-background:new -230 322 150 150;" xml:space="preserve">
<style type="text/css">
	.st0{fill:#161616;}
</style>
<g>
	<path class="st0" d="M-80.1,460.5c0,3.1-1.1,5.8-3.4,8.1c-2.3,2.3-5,3.4-8.1,3.4c-3.3,0-6-1.1-8.1-3.4l-30.9-30.8
		c-10.7,7.5-22.7,11.2-36,11.2c-8.6,0-16.8-1.7-24.6-5c-7.8-3.3-14.6-7.8-20.3-13.5c-5.7-5.7-10.2-12.4-13.5-20.3
		c-3.3-7.8-5-16.1-5-24.7c0-8.6,1.7-16.8,5-24.7c3.3-7.8,7.8-14.6,13.5-20.3s12.4-10.2,20.3-13.5c7.8-3.3,16.1-5,24.6-5
		c8.6,0,16.8,1.7,24.7,5c7.8,3.3,14.6,7.8,20.3,13.5s10.2,12.4,13.5,20.3c3.3,7.8,5,16.1,5,24.7c0,13.2-3.7,25.2-11.2,36l30.9,30.9
		C-81.3,454.6-80.1,457.3-80.1,460.5z M-138.2,414c7.9-7.9,11.8-17.4,11.8-28.5c0-11.1-3.9-20.6-11.8-28.5
		c-7.9-7.9-17.4-11.9-28.5-11.9s-20.6,4-28.5,11.9c-7.9,7.9-11.9,17.4-11.9,28.5c0,11.1,4,20.6,11.9,28.5
		c7.9,7.9,17.4,11.9,28.5,11.9S-146.1,421.9-138.2,414z"/>
</g>
</svg>
