<?xml version="1.0" encoding="utf-8"?>
<!-- Generator: Adobe Illustrator 19.0.0, SVG Export Plug-In . SVG Version: 6.00 Build 0)  -->
<svg version="1.1" id="Layer_1" xmlns="http://www.w3.org/2000/svg" xmlns:xlink="http://www.w3.org/1999/xlink" x="0px" y="0px"
	 viewBox="-230 322 150 150" style="enable-background:new -230 322 150 150;" xml:space="preserve">
<style type="text/css">
	.st0{fill:#0C0D0C;}
	.st1{fill:#0A0B0B;}
	.st2{fill:#090A0A;}
	.st3{fill:#1D1E1E;}
	.st4{fill:#141414;}
</style>
<g>
	<path id="XMLID_1247_" class="st0" d="M-191.7,406c-3.8,7.7-7.3,14.6-11.3,22.6c9.9,0,18.3,0,26.8,0c2,0,4.4-0.3,4.7,2.6
		c0.3,3.4-2.2,3.8-4.7,3.8c-9.9,0-19.9,0.1-29.8,0c-5,0-5.8-2.9-3.9-6.8c4.5-9.2,9.1-18.3,13.7-27.4c2.2-4.4,5-4.2,8-1
		c2.1,2.2,4,4.6,7.1,8.1c5.4-9.9,10-18.4,14.8-26.8c1.3-2.2,1.8-5.8,5.3-5.5c3.2,0.3,3.5,3.7,4.5,6.2c0.2,0.6,0.9,1.2,1,1.8
		c0.5,3.4,5.3,7.4,1.2,10.1c-5.2,3.4-4.3-4.7-8.2-5.6c-3.6,6.6-7.7,13.2-10.9,20.2c-3.6,7.9-7.5,10.3-13.5,2.2
		C-188.1,409-189.5,408-191.7,406z"/>
	<path class="st1" d="M-123.9,359.8c-0.3-7.7-29.9-37.2-37.6-37.6c-0.3,0-0.7,0-1,0c-19.9,0-39.8,0.2-59.7-0.1
		c-6.1-0.1-7.5,2.1-7.4,7.8c0.3,20.2,0.1,40.5,0.1,60.7c0,20.6,0.2,41.1-0.1,61.7c-0.1,5.7,1.5,7.8,7.5,7.6c17.5-0.4,35,0,52.5-0.2
		c3,0,8.2,1.8,8-3.3c-0.2-4.7-5.4-2.9-8.5-2.9c-15.1-0.2-30.2-0.5-45.2,0.1c-6.6,0.2-7.9-2-7.8-8.1c0.3-36.3,0.3-72.7,0-109
		c-0.1-6.6,2.2-8.1,8.3-7.8c10.6,0.5,21.3,0.1,31.9,0.1c21.8,0,22.2,0,21.7,21.5c-0.2,8,2.3,10.2,9.8,9.6c6.4-0.6,14.3-2.1,19.2,0.7
		c5.8,3.4,1.2,11.9,2.3,18.1c0.1,0.3,0,0.7,0,1c-0.2,2.3,0.5,4.6,2.8,4.8c3.1,0.2,3.5-2.5,3.5-5
		C-123.8,372.8-123.7,366.3-123.9,359.8z M-154.6,336.1c5,5.5,10.3,11.2,14.9,16.3C-160.3,354.1-154.8,354.7-154.6,336.1z"/>
	<path class="st2" d="M-120.3,391c-23.1-0.2-41,17.5-41,40.6c0,22.6,17.5,40.3,40,40.4c22.9,0.1,40.5-16.8,40.9-39.5
		C-79.9,409.2-97.3,391.2-120.3,391z M-120.1,465.6c-18.8,0.4-34.8-15.2-35-34c-0.1-18.3,15.2-33.9,33.6-34.2
		c19.4-0.3,34.3,14.4,34.5,33.9C-86.8,450.4-101.2,465.2-120.1,465.6z"/>
	<path class="st3" d="M-198.3,353.1c-7.1,0.5-12.2,4-12.7,11.9c-0.4,7.5,4.8,13.4,11.9,13.6c7.3-0.8,12.1-4.4,12.9-12
		C-185.4,359.9-191.7,352.7-198.3,353.1z M-199.9,371.5c-2.5-0.4-4.8-2.1-4.6-5.7c0.1-3.6,2.4-5.7,5.8-5.7c3.9,0,6.3,2.6,6,6.4
		C-193.1,369.9-195.4,371.8-199.9,371.5z"/>
	<path id="XMLID_1055_" class="st4" d="M-102,431.2c-0.5,3.6-3.3,4-6,3.7c-7.1-0.9-11.2,0.9-9.8,9.2c0.4,2.4,0.7,6.2-3.5,5.7
		c-3.1-0.3-3.2-3.4-2.7-5.7c1.5-8-2.2-10.3-9.5-9.2c-2.4,0.4-5.2-0.1-5.5-3.1c-0.3-3.4,2.7-3.6,5-3.2c7.7,1.1,11.4-1.3,10-9.7
		c-0.5-2.7-0.1-6.1,3.5-6.1c3.3,0,3,3.5,2.7,5.6c-1.5,9.1,2.8,11.4,10.8,10.1C-104.9,428.2-102.8,428.7-102,431.2z"/>
</g>
</svg>
