<?xml version="1.0" encoding="utf-8"?>
<!-- Generator: Adobe Illustrator 19.0.0, SVG Export Plug-In . SVG Version: 6.00 Build 0)  -->
<svg version="1.1" id="Camada_1" xmlns="http://www.w3.org/2000/svg" xmlns:xlink="http://www.w3.org/1999/xlink" x="0px" y="0px"
	 viewBox="-280 321.5 150 150" style="enable-background:new -280 321.5 150 150;" xml:space="preserve">
<style type="text/css">
	.st0{display:none;}
	.st1{display:inline;}
</style>
<g class="st0">
	<path class="st1" d="M-205,335.3c-26.9,0-48.7,21.9-48.7,48.7s21.9,48.7,48.7,48.7s48.7-21.9,48.7-48.7S-178.1,335.3-205,335.3z
		 M-205,430.7c-25.8,0-46.7-21-46.7-46.7s21-46.7,46.7-46.7s46.7,21,46.7,46.7S-179.2,430.7-205,430.7z"/>
	<path class="st1" d="M-184.9,370.5c-0.1-0.3-0.3-0.5-0.6-0.5c0,0-1.7,0.2-4.3,0.2c-4.9,0-11.7-0.5-16.9-3c1.7-4.4,3.9-9,7.1-13.4
		c0,0,0.4-0.5,0.4-1.1c-0.1-0.5-0.4-1-0.9-1.4c-0.4-0.3-0.7-0.4-1.2-0.4c-1.3,0-2.3,1.5-2.3,1.6c-2.7,3.8-4.7,7.6-6.3,11.5
		c-0.4-1-1.6-1.4-2.6-1c-0.5,0.2-0.9,0.6-1.1,1.1c-0.2,0.5-0.2,1.1,0,1.6l1.7,4c-2.3,7.6-3,14.7-3,20.6c-6.2-1-11.8-2.8-16.8-5.2
		c0,0-1-0.3-2.3-0.3c-1.9,0-3.5,0.6-4.5,1.9c-1.5,1.8-2,4.7-1.4,8.6c0,0.2,0.2,0.4,0.5,0.5l0.4,0.1c0,0,0.1,0,0.1,0
		c0.1,0,2.2,0.1,5.7,0.4c3.8,6.2,2,14.8,2,14.9c-0.1,0.3,0.1,0.6,0.4,0.7c6.2,2.3,12.7,3.5,19.3,3.5h0c11.3,0,19-3.3,19.4-3.5
		c0.1-0.1,0.3-0.2,0.3-0.3c4.5-11.3,11.1-15.7,14.7-17.3h7.2c0.3,0,0.5-0.2,0.6-0.4c0.1-0.2,0-0.5-0.2-0.7
		C-170.1,392.9-182.5,382.7-184.9,370.5z M-191.7,394.1c-0.1,0.1-0.2,0.2-0.3,0.3c-0.2,0.2-0.4,0.4-0.6,0.6
		c-0.1,0.1-0.2,0.2-0.3,0.3c-0.2,0.2-0.4,0.3-0.5,0.5c-0.1,0.1-0.2,0.2-0.4,0.3c-0.2,0.1-0.3,0.3-0.5,0.4c-0.1,0.1-0.2,0.2-0.4,0.3
		c-0.2,0.1-0.3,0.3-0.5,0.4c-0.1,0.1-0.2,0.2-0.4,0.2c-0.2,0.1-0.3,0.2-0.5,0.3c-0.1,0.1-0.2,0.1-0.3,0.2c-0.1,0.1-0.3,0.2-0.4,0.3
		c-0.1,0.1-0.2,0.1-0.3,0.2c-0.1,0.1-0.3,0.2-0.4,0.2c-0.1,0.1-0.2,0.1-0.3,0.2c-0.1,0.1-0.3,0.1-0.4,0.2c-0.1,0-0.2,0.1-0.3,0.1
		c-0.1,0.1-0.2,0.1-0.4,0.1c-0.1,0-0.2,0.1-0.3,0.1c-0.1,0-0.2,0.1-0.3,0.1c-0.1,0-0.2,0.1-0.2,0.1c-0.1,0-0.2,0.1-0.3,0.1
		c-0.1,0-0.1,0-0.2,0.1c-0.1,0-0.2,0-0.3,0.1c-0.1,0-0.1,0-0.2,0c-0.1,0-0.2,0-0.2,0c0,0-0.1,0-0.1,0c-0.1,0-0.1,0-0.2,0
		c0,0-0.1,0-0.1,0c-0.1,0-0.1,0-0.2,0c-0.7-0.2-1.4-0.4-2.1-0.6c-0.1,0-0.2-0.1-0.3-0.1c-0.7-0.2-1.3-0.3-2-0.5c-0.1,0-0.1,0-0.2,0
		c-0.7-0.2-1.5-0.4-2.3-0.5c0,0-0.1,0-0.1,0c-0.7-0.1-1.4-0.3-2.1-0.4c-0.2-1.9-0.3-3.9-0.4-5.9c2.7,0.3,5.5,0.5,8.2,0.5l0.7,1.6
		c0.1,0.2,0.2,0.3,0.3,0.4c0,0.1,0.1,0.1,0.1,0.2c0.1,0.1,0.1,0.1,0.2,0.2c0.1,0.1,0.3,0.2,0.4,0.3c0,0,0.1,0,0.1,0
		c0.1,0,0.2,0.1,0.3,0.1c0.1,0,0.2,0,0.2,0c0.1,0,0.1,0,0.2,0c0.3,0,0.5-0.1,0.7-0.1c0,0,0,0,0,0c0,0,0.1,0,0.1-0.1
		c0.4-0.2,0.8-0.6,1-1L-191.7,394.1C-191.7,394.1-191.7,394.1-191.7,394.1z M-209.4,376.1l6.2,15.1c-2.6-0.1-5.2-0.2-7.7-0.5
		C-210.9,386.4-210.5,381.5-209.4,376.1z M-199.4,393C-199.4,393-199.4,393-199.4,393c0,0.1,0.1,0.2,0,0.4c0,0.1-0.1,0.3-0.1,0.4
		c0,0,0,0.1-0.1,0.1c0,0-0.1,0.1-0.1,0.1c-0.1,0.1-0.1,0.1-0.2,0.2c-0.2,0.1-0.4,0.1-0.6,0c0,0,0,0,0,0c-0.1,0-0.2-0.1-0.2-0.2
		c0,0,0,0,0,0c-0.1-0.1-0.1-0.2-0.2-0.2c0,0,0,0,0,0l-8-19.4c0.2-0.9,0.5-1.8,0.7-2.6l0.6,1.5L-199.4,393z M-213.2,402.4
		C-213.2,402.4-213.2,402.4-213.2,402.4c0.7-0.6,1.6-0.8,2.4-0.6c0,0,0,0,0,0c1.4,0.2,2.4,1.4,2.4,2.9c0,1.6-1.3,2.9-2.9,2.9
		s-2.9-1.3-2.9-2.9C-214.3,403.7-213.8,402.9-213.2,402.4z M-211.6,367.8l-1.1-2.7c-0.1-0.2-0.1-0.4,0-0.6c0.1-0.2,0.2-0.4,0.4-0.4
		c0.1,0,0.2-0.1,0.3-0.1c0.3,0,0.6,0.2,0.8,0.5l0.4,1.1c0,0.1,0,0.1-0.1,0.2c-0.2,0.5-0.4,1.1-0.6,1.6
		C-211.4,367.4-211.5,367.6-211.6,367.8z M-202.7,353.1c0.2-0.3,0.8-1.1,1.3-1.1c0.1,0,0.3,0.1,0.4,0.2c0.3,0.2,0.4,0.4,0.4,0.6
		c0,0.1-0.1,0.3-0.1,0.3c-12.1,17.1-12.1,35.8-11,45.4c0,0,0,0,0,0l0,0c0,0,0,0,0,0c0,0,0,0,0,0c0,0,0,0,0,0c0.1,0.7,0.2,1.4,0.2,2
		c-0.1,0-0.2,0-0.3,0c-0.2,0-0.4,0-0.6,0.1c-0.1,0-0.2,0.1-0.2,0.1c-0.2,0.1-0.4,0.1-0.6,0.2c0,0,0,0,0,0c-0.1-0.5-0.1-1-0.2-1.5
		c0-0.1,0-0.1,0-0.2c-0.1-0.4-0.1-0.8-0.1-1.2c0-0.1,0-0.2,0-0.4c-0.1-1-0.2-2.1-0.3-3.1c0-0.1,0-0.2,0-0.3c-0.1-1-0.1-2-0.1-3
		C-214.1,381.1-212.2,366.5-202.7,353.1z M-237.9,387.2c0.8-1,2.1-1.5,3.6-1.5c1,0,1.8,0.2,1.9,0.2c5.1,2.5,10.9,4.3,17.3,5.3
		c0,0.1,0,0.2,0,0.3c0,0.8,0,1.5,0.1,2.2c0,0.2,0,0.4,0,0.6c0.1,0.8,0.1,1.6,0.2,2.4c0,0.1,0,0.1,0,0.2c-0.1,0-0.1,0-0.2,0
		c-0.3,0-0.5-0.1-0.8-0.1c-0.1,0-0.2,0-0.3-0.1c-6.5-1-12.7-1.6-17-2c0,0,0,0,0,0c-3.3-0.3-5.5-0.4-5.9-0.4
		C-239.5,391.1-239.2,388.7-237.9,387.2z M-193.2,410.6c-1.3,0.5-8.6,3.3-18.6,3.3c-6.3,0-12.5-1.1-18.4-3.2
		c0.3-1.9,1.2-8.9-1.8-14.5c1.9,0.2,4.1,0.4,6.4,0.6c0.2,0,0.4,0,0.6,0.1c0.5,0.1,0.9,0.1,1.4,0.2c0.5,0.1,0.9,0.1,1.4,0.2
		c0.3,0,0.5,0.1,0.8,0.1c0.5,0.1,1.1,0.1,1.6,0.2c0.2,0,0.4,0.1,0.6,0.1c0.6,0.1,1.2,0.2,1.8,0.3c0.2,0,0.3,0.1,0.5,0.1
		c0.6,0.1,1.3,0.2,1.9,0.3c0.1,0,0.2,0,0.3,0c0,0.1,0,0.2,0,0.2c0.1,0.5,0.1,1,0.2,1.5c0,0.1,0,0.2,0,0.3c0.1,0.5,0.1,0.9,0.2,1.3
		c-0.8,0.8-1.2,1.8-1.2,3c0,2.3,1.9,4.1,4.1,4.1c2.3,0,4.1-1.9,4.1-4.1c0-1.9-1.3-3.5-3-4c-0.1-0.5-0.1-1-0.2-1.5
		c0.2,0,0.3,0.1,0.5,0.1c0.6,0.1,1.2,0.2,1.7,0.4c0.3,0.1,0.5,0.1,0.8,0.2c0.5,0.1,1,0.2,1.5,0.3c0.4,0.1,0.7,0.2,1.1,0.3
		c0.4,0.1,0.7,0.2,1.1,0.3c0.7,0.2,1.4,0.4,2.1,0.6c0.1,0,0.1,0,0.2,0c0,0,0,0,0,0c0,0,0.1,0,0.3,0c0,0,0,0,0,0c0.1,0,0.2,0,0.3,0
		c0,0,0.1,0,0.1,0c0.1,0,0.2,0,0.3-0.1c0.1,0,0.1,0,0.2,0c0.1,0,0.2-0.1,0.4-0.1c0.1,0,0.1,0,0.2-0.1c0.1,0,0.3-0.1,0.4-0.1
		c0.1,0,0.2-0.1,0.3-0.1c0.1-0.1,0.3-0.1,0.4-0.2c0.1,0,0.2-0.1,0.3-0.1c0.1-0.1,0.3-0.1,0.4-0.2c0.1-0.1,0.2-0.1,0.4-0.2
		c0.2-0.1,0.3-0.1,0.5-0.2c0.1-0.1,0.3-0.1,0.4-0.2c0.2-0.1,0.3-0.2,0.5-0.3c0.1-0.1,0.3-0.2,0.4-0.3c0.2-0.1,0.3-0.2,0.5-0.3
		c0.2-0.1,0.3-0.2,0.5-0.3c0.2-0.1,0.3-0.2,0.5-0.4c0.2-0.1,0.3-0.3,0.5-0.4c0.2-0.1,0.3-0.3,0.5-0.4c0.2-0.1,0.3-0.3,0.5-0.5
		c0.2-0.2,0.3-0.3,0.5-0.5c0.2-0.2,0.3-0.4,0.5-0.5c0.2-0.2,0.3-0.3,0.5-0.5c0.2-0.2,0.3-0.4,0.5-0.6c0.1-0.2,0.3-0.3,0.4-0.5h9.9
		C-184,396.3-189.4,401-193.2,410.6z M-177.7,392.9h-12.7h-7.8c0-0.1-0.1-0.2-0.1-0.4l-9.4-22.8c0.2-0.5,0.3-1,0.5-1.4
		c5.5,2.5,12.4,3.1,17.3,3.1c1.8,0,3.1-0.1,3.8-0.1c2.3,10.2,10.8,18.7,14,21.6C-172,392.9-177.7,392.9-177.7,392.9z"/>
</g>
<g class="st0">
	<path class="st1" d="M-205,335.3c-26.9,0-48.7,21.9-48.7,48.7s21.9,48.7,48.7,48.7s48.7-21.9,48.7-48.7S-178.1,335.3-205,335.3z
		 M-205,430.7c-25.8,0-46.7-21-46.7-46.7s21-46.7,46.7-46.7s46.7,21,46.7,46.7S-179.2,430.7-205,430.7z"/>
	<path class="st1" d="M-184.9,370.5c-0.1-0.3-0.3-0.5-0.6-0.5c0,0-1.7,0.2-4.3,0.2c-4.9,0-11.7-0.5-16.9-3c1.7-4.4,3.9-9,7.1-13.4
		c0,0,0.4-0.5,0.4-1.1c-0.1-0.5-0.4-1-0.9-1.4c-0.4-0.3-0.7-0.4-1.2-0.4c-1.3,0-2.3,1.5-2.3,1.6c-2.7,3.8-4.7,7.6-6.3,11.5
		c-0.4-1-1.6-1.4-2.6-1c-0.5,0.2-0.9,0.6-1.1,1.1c-0.2,0.5-0.2,1.1,0,1.6l1.7,4c-2.3,7.6-3,14.7-3,20.6c-6.2-1-11.8-2.8-16.8-5.2
		c0,0-1-0.3-2.3-0.3c-1.9,0-3.5,0.6-4.5,1.9c-1.5,1.8-2,4.7-1.4,8.6c0,0.2,0.2,0.4,0.5,0.5l0.4,0.1c0,0,0.1,0,0.1,0
		c0.1,0,2.2,0.1,5.7,0.4c3.8,6.2,2,14.8,2,14.9c-0.1,0.3,0.1,0.6,0.4,0.7c6.2,2.3,12.7,3.5,19.3,3.5h0c11.3,0,19-3.3,19.4-3.5
		c0.1-0.1,0.3-0.2,0.3-0.3c4.5-11.3,11.1-15.7,14.7-17.3h7.2c0.3,0,0.5-0.2,0.6-0.4c0.1-0.2,0-0.5-0.2-0.7
		C-170.1,392.9-182.5,382.7-184.9,370.5z M-191.7,394.1c-0.1,0.1-0.2,0.2-0.3,0.3c-0.2,0.2-0.4,0.4-0.6,0.6
		c-0.1,0.1-0.2,0.2-0.3,0.3c-0.2,0.2-0.4,0.3-0.5,0.5c-0.1,0.1-0.2,0.2-0.4,0.3c-0.2,0.1-0.3,0.3-0.5,0.4c-0.1,0.1-0.2,0.2-0.4,0.3
		c-0.2,0.1-0.3,0.3-0.5,0.4c-0.1,0.1-0.2,0.2-0.4,0.2c-0.2,0.1-0.3,0.2-0.5,0.3c-0.1,0.1-0.2,0.1-0.3,0.2c-0.1,0.1-0.3,0.2-0.4,0.3
		c-0.1,0.1-0.2,0.1-0.3,0.2c-0.1,0.1-0.3,0.2-0.4,0.2c-0.1,0.1-0.2,0.1-0.3,0.2c-0.1,0.1-0.3,0.1-0.4,0.2c-0.1,0-0.2,0.1-0.3,0.1
		c-0.1,0.1-0.2,0.1-0.4,0.1c-0.1,0-0.2,0.1-0.3,0.1c-0.1,0-0.2,0.1-0.3,0.1c-0.1,0-0.2,0.1-0.2,0.1c-0.1,0-0.2,0.1-0.3,0.1
		c-0.1,0-0.1,0-0.2,0.1c-0.1,0-0.2,0-0.3,0.1c-0.1,0-0.1,0-0.2,0c-0.1,0-0.2,0-0.2,0c0,0-0.1,0-0.1,0c-0.1,0-0.1,0-0.2,0
		c0,0-0.1,0-0.1,0c-0.1,0-0.1,0-0.2,0c-0.7-0.2-1.4-0.4-2.1-0.6c-0.1,0-0.2-0.1-0.3-0.1c-0.7-0.2-1.3-0.3-2-0.5c-0.1,0-0.1,0-0.2,0
		c-0.7-0.2-1.5-0.4-2.3-0.5c0,0-0.1,0-0.1,0c-0.7-0.1-1.4-0.3-2.1-0.4c-0.2-1.9-0.3-3.9-0.4-5.9c2.7,0.3,5.5,0.5,8.2,0.5l0.7,1.6
		c0.1,0.2,0.2,0.3,0.3,0.4c0,0.1,0.1,0.1,0.1,0.2c0.1,0.1,0.1,0.1,0.2,0.2c0.1,0.1,0.3,0.2,0.4,0.3c0,0,0.1,0,0.1,0
		c0.1,0,0.2,0.1,0.3,0.1c0.1,0,0.2,0,0.2,0c0.1,0,0.1,0,0.2,0c0.3,0,0.5-0.1,0.7-0.1c0,0,0,0,0,0c0,0,0.1,0,0.1-0.1
		c0.4-0.2,0.8-0.6,1-1L-191.7,394.1C-191.7,394.1-191.7,394.1-191.7,394.1z M-209.4,376.1l6.2,15.1c-2.6-0.1-5.2-0.2-7.7-0.5
		C-210.9,386.4-210.5,381.5-209.4,376.1z M-199.4,393C-199.4,393-199.4,393-199.4,393c0,0.1,0.1,0.2,0,0.4c0,0.1-0.1,0.3-0.1,0.4
		c0,0,0,0.1-0.1,0.1c0,0-0.1,0.1-0.1,0.1c-0.1,0.1-0.1,0.1-0.2,0.2c-0.2,0.1-0.4,0.1-0.6,0c0,0,0,0,0,0c-0.1,0-0.2-0.1-0.2-0.2
		c0,0,0,0,0,0c-0.1-0.1-0.1-0.2-0.2-0.2c0,0,0,0,0,0l-8-19.4c0.2-0.9,0.5-1.8,0.7-2.6l0.6,1.5L-199.4,393z M-213.2,402.4
		C-213.2,402.4-213.2,402.4-213.2,402.4c0.7-0.6,1.6-0.8,2.4-0.6c0,0,0,0,0,0c1.4,0.2,2.4,1.4,2.4,2.9c0,1.6-1.3,2.9-2.9,2.9
		s-2.9-1.3-2.9-2.9C-214.3,403.7-213.8,402.9-213.2,402.4z M-211.6,367.8l-1.1-2.7c-0.1-0.2-0.1-0.4,0-0.6c0.1-0.2,0.2-0.4,0.4-0.4
		c0.1,0,0.2-0.1,0.3-0.1c0.3,0,0.6,0.2,0.8,0.5l0.4,1.1c0,0.1,0,0.1-0.1,0.2c-0.2,0.5-0.4,1.1-0.6,1.6
		C-211.4,367.4-211.5,367.6-211.6,367.8z M-202.7,353.1c0.2-0.3,0.8-1.1,1.3-1.1c0.1,0,0.3,0.1,0.4,0.2c0.3,0.2,0.4,0.4,0.4,0.6
		c0,0.1-0.1,0.3-0.1,0.3c-12.1,17.1-12.1,35.8-11,45.4c0,0,0,0,0,0l0,0c0,0,0,0,0,0c0,0,0,0,0,0c0,0,0,0,0,0c0.1,0.7,0.2,1.4,0.2,2
		c-0.1,0-0.2,0-0.3,0c-0.2,0-0.4,0-0.6,0.1c-0.1,0-0.2,0.1-0.2,0.1c-0.2,0.1-0.4,0.1-0.6,0.2c0,0,0,0,0,0c-0.1-0.5-0.1-1-0.2-1.5
		c0-0.1,0-0.1,0-0.2c-0.1-0.4-0.1-0.8-0.1-1.2c0-0.1,0-0.2,0-0.4c-0.1-1-0.2-2.1-0.3-3.1c0-0.1,0-0.2,0-0.3c-0.1-1-0.1-2-0.1-3
		C-214.1,381.1-212.2,366.5-202.7,353.1z M-237.9,387.2c0.8-1,2.1-1.5,3.6-1.5c1,0,1.8,0.2,1.9,0.2c5.1,2.5,10.9,4.3,17.3,5.3
		c0,0.1,0,0.2,0,0.3c0,0.8,0,1.5,0.1,2.2c0,0.2,0,0.4,0,0.6c0.1,0.8,0.1,1.6,0.2,2.4c0,0.1,0,0.1,0,0.2c-0.1,0-0.1,0-0.2,0
		c-0.3,0-0.5-0.1-0.8-0.1c-0.1,0-0.2,0-0.3-0.1c-6.5-1-12.7-1.6-17-2c0,0,0,0,0,0c-3.3-0.3-5.5-0.4-5.9-0.4
		C-239.5,391.1-239.2,388.7-237.9,387.2z M-193.2,410.6c-1.3,0.5-8.6,3.3-18.6,3.3c-6.3,0-12.5-1.1-18.4-3.2
		c0.3-1.9,1.2-8.9-1.8-14.5c1.9,0.2,4.1,0.4,6.4,0.6c0.2,0,0.4,0,0.6,0.1c0.5,0.1,0.9,0.1,1.4,0.2c0.5,0.1,0.9,0.1,1.4,0.2
		c0.3,0,0.5,0.1,0.8,0.1c0.5,0.1,1.1,0.1,1.6,0.2c0.2,0,0.4,0.1,0.6,0.1c0.6,0.1,1.2,0.2,1.8,0.3c0.2,0,0.3,0.1,0.5,0.1
		c0.6,0.1,1.3,0.2,1.9,0.3c0.1,0,0.2,0,0.3,0c0,0.1,0,0.2,0,0.2c0.1,0.5,0.1,1,0.2,1.5c0,0.1,0,0.2,0,0.3c0.1,0.5,0.1,0.9,0.2,1.3
		c-0.8,0.8-1.2,1.8-1.2,3c0,2.3,1.9,4.1,4.1,4.1c2.3,0,4.1-1.9,4.1-4.1c0-1.9-1.3-3.5-3-4c-0.1-0.5-0.1-1-0.2-1.5
		c0.2,0,0.3,0.1,0.5,0.1c0.6,0.1,1.2,0.2,1.7,0.4c0.3,0.1,0.5,0.1,0.8,0.2c0.5,0.1,1,0.2,1.5,0.3c0.4,0.1,0.7,0.2,1.1,0.3
		c0.4,0.1,0.7,0.2,1.1,0.3c0.7,0.2,1.4,0.4,2.1,0.6c0.1,0,0.1,0,0.2,0c0,0,0,0,0,0c0,0,0.1,0,0.3,0c0,0,0,0,0,0c0.1,0,0.2,0,0.3,0
		c0,0,0.1,0,0.1,0c0.1,0,0.2,0,0.3-0.1c0.1,0,0.1,0,0.2,0c0.1,0,0.2-0.1,0.4-0.1c0.1,0,0.1,0,0.2-0.1c0.1,0,0.3-0.1,0.4-0.1
		c0.1,0,0.2-0.1,0.3-0.1c0.1-0.1,0.3-0.1,0.4-0.2c0.1,0,0.2-0.1,0.3-0.1c0.1-0.1,0.3-0.1,0.4-0.2c0.1-0.1,0.2-0.1,0.4-0.2
		c0.2-0.1,0.3-0.1,0.5-0.2c0.1-0.1,0.3-0.1,0.4-0.2c0.2-0.1,0.3-0.2,0.5-0.3c0.1-0.1,0.3-0.2,0.4-0.3c0.2-0.1,0.3-0.2,0.5-0.3
		c0.2-0.1,0.3-0.2,0.5-0.3c0.2-0.1,0.3-0.2,0.5-0.4c0.2-0.1,0.3-0.3,0.5-0.4c0.2-0.1,0.3-0.3,0.5-0.4c0.2-0.1,0.3-0.3,0.5-0.5
		c0.2-0.2,0.3-0.3,0.5-0.5c0.2-0.2,0.3-0.4,0.5-0.5c0.2-0.2,0.3-0.3,0.5-0.5c0.2-0.2,0.3-0.4,0.5-0.6c0.1-0.2,0.3-0.3,0.4-0.5h9.9
		C-184,396.3-189.4,401-193.2,410.6z M-177.7,392.9h-12.7h-7.8c0-0.1-0.1-0.2-0.1-0.4l-9.4-22.8c0.2-0.5,0.3-1,0.5-1.4
		c5.5,2.5,12.4,3.1,17.3,3.1c1.8,0,3.1-0.1,3.8-0.1c2.3,10.2,10.8,18.7,14,21.6C-172,392.9-177.7,392.9-177.7,392.9z"/>
</g>
<g>
	<path d="M-162.2,370c-0.1-0.6-0.7-1.1-1.4-1c0,0-3.7,0.3-9.1,0.3c-10.3,0-24.7-1.2-35.9-6.4c3.5-9.4,8.4-19,15-28.3
		c0.1-0.1,0.9-1.1,0.7-2.4c-0.1-1.1-0.8-2.1-1.9-3c-0.8-0.6-1.6-0.9-2.4-0.9c-2.8,0-4.8,3.2-4.9,3.5c-5.7,8-10,16.2-13.5,24.3
		c-0.9-2-3.4-3.1-5.5-2.2c-1.1,0.4-1.9,1.3-2.3,2.3c-0.4,1.1-0.4,2.2,0,3.3l3.5,8.5c-5,16-6.4,31.3-6.4,43.6
		c-13.1-2.2-25.1-5.9-35.7-11.1c-0.1,0-2.2-0.7-4.9-0.7c-4,0-7.4,1.4-9.6,4c-3.2,3.7-4.2,9.9-2.9,18.3c0.1,0.5,0.5,0.9,1,1.1
		l0.9,0.2c0.1,0,0.2,0,0.2,0c0.1,0,4.7,0.2,12,0.8c8,13.1,4.3,31.5,4.2,31.7c-0.1,0.6,0.2,1.2,0.8,1.5c13.1,4.9,26.9,7.3,41,7.3h0
		c24,0,40.4-7.1,41.1-7.4c0.3-0.1,0.6-0.4,0.7-0.7c9.4-24,23.4-33.2,31.1-36.6h15.2c0.5,0,1-0.3,1.2-0.8c0.2-0.5,0-1.1-0.4-1.4
		C-130.7,417.6-157,395.9-162.2,370z M-176.5,420.2c-0.2,0.2-0.4,0.5-0.6,0.7c-0.4,0.4-0.8,0.9-1.2,1.3c-0.2,0.2-0.5,0.5-0.7,0.7
		c-0.4,0.4-0.8,0.7-1.1,1.1c-0.2,0.2-0.5,0.4-0.8,0.7c-0.4,0.3-0.7,0.6-1.1,0.9c-0.3,0.2-0.5,0.4-0.8,0.6c-0.3,0.3-0.7,0.5-1,0.8
		c-0.2,0.2-0.5,0.4-0.8,0.5c-0.3,0.2-0.7,0.5-1,0.7c-0.2,0.2-0.5,0.3-0.7,0.5c-0.3,0.2-0.6,0.4-0.9,0.6c-0.2,0.1-0.5,0.3-0.7,0.4
		c-0.3,0.2-0.6,0.3-0.9,0.5c-0.2,0.1-0.4,0.2-0.7,0.3c-0.3,0.1-0.6,0.3-0.8,0.4c-0.2,0.1-0.4,0.2-0.6,0.3c-0.3,0.1-0.5,0.2-0.8,0.3
		c-0.2,0.1-0.4,0.2-0.6,0.2c-0.2,0.1-0.5,0.2-0.7,0.2c-0.2,0.1-0.3,0.1-0.5,0.2c-0.2,0.1-0.4,0.1-0.6,0.2c-0.1,0-0.3,0.1-0.4,0.1
		c-0.2,0.1-0.4,0.1-0.6,0.1c-0.1,0-0.3,0.1-0.4,0.1c-0.2,0-0.3,0.1-0.5,0.1c-0.1,0-0.2,0-0.3,0.1c-0.2,0-0.3,0.1-0.4,0.1
		c-0.1,0-0.1,0-0.2,0c-0.2,0-0.3,0-0.4,0.1c-1.5-0.4-3-0.9-4.6-1.3c-0.2-0.1-0.4-0.1-0.6-0.2c-1.4-0.4-2.8-0.7-4.3-1.1
		c-0.1,0-0.2-0.1-0.4-0.1c-1.6-0.4-3.2-0.7-4.9-1.1c-0.1,0-0.1,0-0.2,0c-1.5-0.3-2.9-0.6-4.4-0.9c-0.4-4.1-0.7-8.3-0.7-12.6
		c5.7,0.7,11.6,1,17.4,1.1l1.4,3.4c0.1,0.3,0.3,0.7,0.6,0.9c0.1,0.1,0.2,0.2,0.3,0.3c0.1,0.1,0.3,0.2,0.4,0.4
		c0.3,0.2,0.6,0.4,0.9,0.6c0.1,0,0.1,0.1,0.2,0.1c0.2,0.1,0.4,0.2,0.7,0.2c0.2,0,0.3,0.1,0.5,0.1c0.1,0,0.3,0.1,0.4,0.1
		c0.5,0,1.1-0.1,1.6-0.3c0,0,0,0,0.1,0c0.1,0,0.1-0.1,0.2-0.1c1-0.5,1.7-1.2,2.1-2.2h14C-176.4,420.1-176.4,420.1-176.5,420.2z
		 M-214.1,382l13.2,32c-5.5-0.1-11-0.5-16.4-1.1C-217.2,403.9-216.5,393.3-214.1,382z M-192.8,417.7
		C-192.8,417.7-192.8,417.7-192.8,417.7c0.1,0.3,0.1,0.5,0.1,0.8c0,0.3-0.1,0.5-0.2,0.8c0,0.1-0.1,0.2-0.1,0.2
		c0,0.1-0.1,0.1-0.2,0.2c-0.1,0.1-0.3,0.2-0.5,0.3c-0.4,0.2-0.9,0.2-1.3,0c0,0,0,0,0,0c-0.2-0.1-0.4-0.2-0.5-0.3c0,0,0,0-0.1-0.1
		c-0.1-0.2-0.3-0.3-0.4-0.5c0,0,0,0,0,0l-17.1-41.3c0.5-1.9,1-3.7,1.5-5.6l1.3,3.2L-192.8,417.7z M-222.1,437.6
		C-222.1,437.6-222.1,437.6-222.1,437.6c1.5-1.2,3.3-1.7,5-1.4c0,0,0,0,0,0c2.9,0.5,5.2,3.1,5.2,6.1c0,3.4-2.8,6.3-6.3,6.3
		c-3.4,0-6.3-2.8-6.3-6.3C-224.4,440.5-223.5,438.8-222.1,437.6z M-218.7,364.3l-2.4-5.8c-0.2-0.4-0.2-0.9,0-1.3
		c0.2-0.4,0.5-0.8,1-0.9c0.2-0.1,0.4-0.1,0.7-0.1c0.7,0,1.3,0.4,1.6,1.1l0.9,2.2c0,0.1-0.1,0.3-0.1,0.4c-0.4,1.1-0.8,2.3-1.2,3.4
		C-218.4,363.5-218.5,363.9-218.7,364.3z M-199.9,333.1c0.3-0.6,1.6-2.3,2.8-2.3c0.3,0,0.6,0.1,0.9,0.3c0.5,0.4,0.9,0.8,0.9,1.2
		c0,0.3-0.1,0.5-0.2,0.6c-25.6,36.2-25.6,76.1-23.4,96.3c0,0,0,0,0,0l0,0c0,0,0,0,0,0c0,0,0,0,0,0c0,0,0,0,0,0.1
		c0.2,1.5,0.3,3,0.5,4.2c-0.2,0-0.4,0.1-0.6,0.1c-0.4,0-0.8,0.1-1.2,0.2c-0.2,0-0.3,0.1-0.5,0.1c-0.4,0.1-0.9,0.3-1.3,0.5
		c0,0-0.1,0-0.1,0c-0.2-1-0.3-2.1-0.5-3.1c0-0.1,0-0.3-0.1-0.4c-0.1-0.9-0.2-1.7-0.3-2.6c0-0.3-0.1-0.5-0.1-0.8
		c-0.2-2.2-0.4-4.4-0.6-6.6c0-0.2,0-0.4,0-0.7c-0.1-2.1-0.2-4.3-0.2-6.4C-224,392.6-220.1,361.7-199.9,333.1z M-274.6,405.6
		c1.8-2.1,4.4-3.1,7.7-3.1c2.2,0,3.9,0.5,4,0.5c10.8,5.2,23.2,9.1,36.7,11.3c0,0.2,0,0.4,0,0.7c0,1.6,0.1,3.2,0.2,4.7
		c0,0.5,0,0.9,0.1,1.4c0.1,1.8,0.2,3.5,0.4,5.1c0,0.1,0,0.3,0,0.4c-0.1,0-0.3,0-0.4-0.1c-0.6-0.1-1.1-0.2-1.7-0.3
		c-0.2,0-0.5-0.1-0.7-0.1c-13.8-2.2-27-3.5-36-4.2c0,0,0,0,0,0c-7-0.5-11.7-0.8-12.6-0.8C-278,413.8-277.2,408.6-274.6,405.6z
		 M-179.8,455.2c-2.9,1.2-18.3,7-39.6,7c-13.4,0-26.6-2.3-39.1-6.8c0.7-4.1,2.6-18.9-3.8-30.9c4,0.3,8.6,0.8,13.6,1.3
		c0.4,0,0.9,0.1,1.3,0.1c1,0.1,2,0.2,3,0.4c1,0.1,1.9,0.2,2.9,0.4c0.6,0.1,1.1,0.1,1.7,0.2c1.1,0.2,2.3,0.3,3.4,0.5
		c0.5,0.1,0.9,0.1,1.4,0.2c1.3,0.2,2.5,0.4,3.8,0.6c0.4,0.1,0.7,0.1,1.1,0.2c1.4,0.2,2.7,0.4,4.1,0.7c0.2,0,0.4,0.1,0.6,0.1
		c0,0.2,0,0.3,0.1,0.5c0.1,1.1,0.3,2.2,0.4,3.2c0,0.2,0.1,0.4,0.1,0.6c0.2,1,0.3,2,0.5,2.8c-1.6,1.6-2.6,3.8-2.6,6.3
		c0,4.9,3.9,8.8,8.8,8.8c4.9,0,8.8-3.9,8.8-8.8c0-4-2.7-7.4-6.4-8.4c-0.1-1-0.3-2.1-0.4-3.2c0.4,0.1,0.7,0.1,1,0.2
		c1.2,0.3,2.5,0.5,3.6,0.8c0.6,0.1,1.1,0.3,1.7,0.4c1.1,0.2,2.1,0.5,3.1,0.7c0.8,0.2,1.5,0.4,2.3,0.6c0.8,0.2,1.6,0.4,2.3,0.6
		c1.5,0.4,3,0.8,4.4,1.2c0.1,0,0.2,0.1,0.4,0.1c0,0,0.1,0,0.1,0c0.1,0,0.3,0,0.7-0.1c0,0,0.1,0,0.1,0c0.2,0,0.4-0.1,0.6-0.1
		c0.1,0,0.2,0,0.2,0c0.2,0,0.4-0.1,0.7-0.1c0.1,0,0.2-0.1,0.4-0.1c0.3-0.1,0.5-0.1,0.8-0.2c0.1,0,0.3-0.1,0.5-0.1
		c0.3-0.1,0.6-0.2,0.9-0.3c0.2-0.1,0.4-0.1,0.6-0.2c0.3-0.1,0.6-0.2,0.9-0.3c0.2-0.1,0.5-0.2,0.7-0.3c0.3-0.1,0.6-0.3,0.9-0.4
		c0.3-0.1,0.5-0.3,0.8-0.4c0.3-0.2,0.7-0.3,1-0.5c0.3-0.1,0.6-0.3,0.9-0.5c0.3-0.2,0.7-0.4,1-0.6c0.3-0.2,0.6-0.4,0.9-0.6
		c0.3-0.2,0.7-0.4,1-0.7c0.3-0.2,0.7-0.5,1-0.7c0.4-0.3,0.7-0.5,1.1-0.8c0.3-0.3,0.7-0.6,1-0.8c0.4-0.3,0.7-0.6,1.1-0.9
		c0.3-0.3,0.7-0.6,1.1-1c0.4-0.3,0.7-0.7,1.1-1c0.4-0.4,0.7-0.8,1.1-1.1c0.4-0.4,0.7-0.7,1.1-1.1c0.4-0.4,0.7-0.9,1.1-1.3
		c0.3-0.4,0.6-0.7,0.9-1.1h21C-160.2,424.9-171.6,434.9-179.8,455.2z M-146.8,417.5h-26.9h-16.5c-0.1-0.3-0.1-0.5-0.2-0.7l-20-48.3
		c0.3-1,0.7-2,1-3c11.6,5.4,26.3,6.5,36.8,6.5c3.8,0,6.7-0.2,8.1-0.3c4.8,21.6,22.9,39.7,29.7,45.8
		C-134.7,417.5-146.8,417.5-146.8,417.5z"/>
</g>
<g class="st0">
	<path class="st1" d="M-186.8,399.1c-0.1,0.2-0.3,0.3-0.4,0.4c-0.3,0.3-0.5,0.6-0.8,0.8c-0.2,0.2-0.3,0.3-0.5,0.4
		c-0.2,0.2-0.5,0.5-0.7,0.7c-0.2,0.1-0.3,0.3-0.5,0.4c-0.2,0.2-0.5,0.4-0.7,0.6c-0.2,0.1-0.3,0.3-0.5,0.4c-0.2,0.2-0.4,0.3-0.7,0.5
		c-0.2,0.1-0.3,0.2-0.5,0.3c-0.2,0.1-0.4,0.3-0.6,0.4c-0.2,0.1-0.3,0.2-0.5,0.3c-0.2,0.1-0.4,0.2-0.6,0.4c-0.1,0.1-0.3,0.2-0.4,0.3
		c-0.2,0.1-0.4,0.2-0.6,0.3c-0.1,0.1-0.3,0.1-0.4,0.2c-0.2,0.1-0.4,0.2-0.5,0.2c-0.1,0.1-0.3,0.1-0.4,0.2c-0.2,0.1-0.3,0.1-0.5,0.2
		c-0.1,0.1-0.2,0.1-0.4,0.1c-0.2,0.1-0.3,0.1-0.4,0.2c-0.1,0-0.2,0.1-0.3,0.1c-0.1,0-0.3,0.1-0.4,0.1c-0.1,0-0.2,0.1-0.3,0.1
		c-0.1,0-0.2,0.1-0.4,0.1c-0.1,0-0.2,0-0.2,0.1c-0.1,0-0.2,0-0.3,0.1c-0.1,0-0.1,0-0.2,0c-0.1,0-0.2,0-0.3,0c0,0-0.1,0-0.1,0
		c-0.1,0-0.2,0-0.2,0c-0.9-0.3-1.9-0.6-2.9-0.8c-0.1,0-0.3-0.1-0.4-0.1c-0.9-0.2-1.8-0.5-2.7-0.7c-0.1,0-0.2,0-0.2-0.1
		c-1-0.2-2-0.5-3.1-0.7c0,0-0.1,0-0.1,0c-0.9-0.2-1.9-0.4-2.8-0.6c-0.3-2.6-0.4-5.3-0.5-8c3.7,0.4,7.4,0.7,11.1,0.7l0.9,2.2
		c0.1,0.2,0.2,0.4,0.4,0.6c0.1,0.1,0.1,0.1,0.2,0.2c0.1,0.1,0.2,0.2,0.3,0.2c0.2,0.2,0.4,0.3,0.6,0.4c0,0,0.1,0,0.1,0.1
		c0.1,0.1,0.3,0.1,0.4,0.1c0.1,0,0.2,0,0.3,0c0.1,0,0.2,0,0.3,0c0.3,0,0.7-0.1,1-0.2c0,0,0,0,0,0c0,0,0.1,0,0.1-0.1
		c0.6-0.3,1.1-0.8,1.4-1.4L-186.8,399.1C-186.8,399-186.8,399.1-186.8,399.1z M-197.2,397.5C-197.2,397.5-197.2,397.5-197.2,397.5
		c0.1,0.2,0.1,0.3,0.1,0.5c0,0.2-0.1,0.3-0.2,0.5c0,0-0.1,0.1-0.1,0.1c0,0-0.1,0.1-0.1,0.1c-0.1,0.1-0.2,0.2-0.3,0.2
		c-0.3,0.1-0.6,0.1-0.8,0c0,0,0,0,0,0c-0.1-0.1-0.2-0.1-0.3-0.2c0,0,0,0,0,0c-0.1-0.1-0.2-0.2-0.2-0.3c0,0,0,0,0,0l-10.9-26.3
		c0.3-1.2,0.6-2.4,1-3.5l0.9,2.1L-197.2,397.5z M-215.9,410.2C-215.9,410.2-215.9,410.2-215.9,410.2c0.9-0.8,2.1-1.1,3.2-0.9
		c0,0,0,0,0,0c1.9,0.3,3.3,2,3.3,3.9c0,2.2-1.8,4-4,4c-2.2,0-4-1.8-4-4C-217.4,412.1-216.8,411-215.9,410.2z M-213.7,363.4l-1.5-3.7
		c-0.1-0.3-0.1-0.6,0-0.9c0.1-0.3,0.3-0.5,0.6-0.6c0.1-0.1,0.3-0.1,0.4-0.1c0.5,0,0.9,0.3,1,0.7l0.6,1.4c0,0.1-0.1,0.2-0.1,0.2
		c-0.3,0.7-0.5,1.4-0.8,2.2C-213.5,363-213.6,363.2-213.7,363.4z M-201.8,343.6c0.2-0.4,1-1.5,1.8-1.5c0.2,0,0.4,0.1,0.6,0.2
		c0.3,0.3,0.6,0.5,0.6,0.8c0,0.2-0.1,0.3-0.1,0.4c-16.3,23.1-16.3,48.5-14.9,61.4c0,0,0,0,0,0l0,0c0,0,0,0,0,0c0,0,0,0,0,0
		c0,0,0,0,0,0c0.1,1,0.2,1.9,0.3,2.7c-0.1,0-0.2,0-0.4,0.1c-0.3,0-0.5,0-0.8,0.1c-0.1,0-0.2,0.1-0.3,0.1c-0.3,0.1-0.6,0.2-0.8,0.3
		c0,0,0,0-0.1,0c-0.1-0.6-0.2-1.3-0.3-2c0-0.1,0-0.2,0-0.3c-0.1-0.5-0.1-1.1-0.2-1.6c0-0.2,0-0.3-0.1-0.5c-0.1-1.4-0.3-2.8-0.4-4.2
		c0-0.1,0-0.3,0-0.4c-0.1-1.3-0.1-2.7-0.1-4.1C-217.1,381.5-214.6,361.8-201.8,343.6z M-249.4,389.8c1.1-1.3,2.8-2,4.9-2
		c1.4,0,2.5,0.3,2.5,0.3c6.9,3.3,14.8,5.8,23.4,7.2c0,0.1,0,0.3,0,0.4c0,1,0.1,2,0.1,3c0,0.3,0,0.6,0,0.9c0.1,1.1,0.2,2.2,0.2,3.2
		c0,0.1,0,0.2,0,0.3c-0.1,0-0.2,0-0.3,0c-0.4-0.1-0.7-0.1-1.1-0.2c-0.2,0-0.3,0-0.5-0.1c-8.8-1.4-17.2-2.2-23-2.7c0,0,0,0,0,0
		c-4.5-0.4-7.5-0.5-8-0.5C-251.6,395-251,391.7-249.4,389.8z M-188.9,421.4c-1.8,0.7-11.7,4.4-25.2,4.4c-8.6,0-16.9-1.5-24.9-4.3
		c0.4-2.6,1.6-12-2.4-19.7c2.6,0.2,5.5,0.5,8.7,0.8c0.3,0,0.5,0.1,0.8,0.1c0.6,0.1,1.3,0.1,1.9,0.2c0.6,0.1,1.2,0.1,1.9,0.2
		c0.4,0,0.7,0.1,1.1,0.1c0.7,0.1,1.4,0.2,2.2,0.3c0.3,0,0.6,0.1,0.9,0.1c0.8,0.1,1.6,0.2,2.4,0.4c0.2,0,0.5,0.1,0.7,0.1
		c0.9,0.1,1.7,0.3,2.6,0.4c0.1,0,0.2,0,0.4,0.1c0,0.1,0,0.2,0,0.3c0.1,0.7,0.2,1.4,0.3,2c0,0.1,0,0.3,0.1,0.4
		c0.1,0.7,0.2,1.3,0.3,1.8c-1,1-1.7,2.4-1.7,4c0,3.1,2.5,5.6,5.6,5.6c3.1,0,5.6-2.5,5.6-5.6c0-2.6-1.7-4.7-4.1-5.4
		c-0.1-0.6-0.2-1.3-0.3-2.1c0.2,0,0.4,0.1,0.7,0.1c0.8,0.2,1.6,0.3,2.3,0.5c0.4,0.1,0.7,0.2,1.1,0.3c0.7,0.2,1.3,0.3,2,0.5
		c0.5,0.1,1,0.2,1.5,0.4c0.5,0.1,1,0.2,1.5,0.4c1,0.3,1.9,0.5,2.8,0.8c0.1,0,0.2,0,0.2,0c0,0,0,0,0,0c0,0,0.2,0,0.5-0.1
		c0,0,0,0,0.1,0c0.1,0,0.2,0,0.4-0.1c0,0,0.1,0,0.1,0c0.1,0,0.3-0.1,0.4-0.1c0.1,0,0.2,0,0.2-0.1c0.2,0,0.3-0.1,0.5-0.1
		c0.1,0,0.2-0.1,0.3-0.1c0.2-0.1,0.4-0.1,0.6-0.2c0.1,0,0.3-0.1,0.4-0.1c0.2-0.1,0.4-0.1,0.6-0.2c0.1-0.1,0.3-0.1,0.4-0.2
		c0.2-0.1,0.4-0.2,0.6-0.3c0.2-0.1,0.3-0.2,0.5-0.2c0.2-0.1,0.4-0.2,0.6-0.3c0.2-0.1,0.4-0.2,0.6-0.3c0.2-0.1,0.4-0.2,0.6-0.4
		c0.2-0.1,0.4-0.2,0.6-0.4c0.2-0.1,0.4-0.3,0.7-0.4c0.2-0.1,0.4-0.3,0.6-0.5c0.2-0.2,0.4-0.3,0.7-0.5c0.2-0.2,0.4-0.4,0.7-0.5
		c0.2-0.2,0.5-0.4,0.7-0.6c0.2-0.2,0.4-0.4,0.7-0.6c0.2-0.2,0.5-0.4,0.7-0.6c0.2-0.2,0.5-0.5,0.7-0.7c0.2-0.2,0.5-0.5,0.7-0.7
		c0.2-0.3,0.5-0.6,0.7-0.8c0.2-0.2,0.4-0.4,0.6-0.7h13.4C-176.5,402.1-183.7,408.5-188.9,421.4z M-167.9,397.4H-185h-10.5
		c0-0.2-0.1-0.3-0.1-0.5l-12.7-30.8c0.2-0.6,0.4-1.3,0.7-1.9c7.4,3.4,16.8,4.2,23.5,4.2c2.4,0,4.2-0.1,5.2-0.2
		c3.1,13.8,14.6,25.3,19,29.2C-160.2,397.4-167.9,397.4-167.9,397.4z"/>
</g>
</svg>
