<?xml version="1.0" encoding="utf-8"?>
<!-- Generator: Adobe Illustrator 19.0.0, SVG Export Plug-In . SVG Version: 6.00 Build 0)  -->
<svg version="1.1" id="Camada_1" xmlns="http://www.w3.org/2000/svg" xmlns:xlink="http://www.w3.org/1999/xlink" x="0px" y="0px"
	 viewBox="-280 321.5 150 150" style="enable-background:new -280 321.5 150 150;" xml:space="preserve">
<g>
	<g>
		<path d="M-131.8,374.2h-11.9c-1,0-1.8-0.8-1.8-1.8c0-1,0.8-1.8,1.8-1.8h11.9c1,0,1.8,0.8,1.8,1.8
			C-130,373.4-130.8,374.2-131.8,374.2z"/>
	</g>
	<g>
		<path d="M-146.6,368.3c-0.7,0-1.3-0.4-1.7-1.1c-0.4-0.9,0-2,0.9-2.4l10.7-5.1c0.9-0.4,2,0,2.4,0.9c0.4,0.9,0,2-0.9,2.4l-10.7,5.1
			C-146,368.2-146.3,368.3-146.6,368.3z"/>
	</g>
	<g>
		<path d="M-135.9,385.1c-0.3,0-0.5-0.1-0.8-0.2l-10.7-5.1c-0.9-0.4-1.3-1.5-0.9-2.4c0.4-0.9,1.5-1.3,2.4-0.9l10.7,5.1
			c0.9,0.4,1.3,1.5,0.9,2.4C-134.5,384.8-135.2,385.1-135.9,385.1z"/>
	</g>
	<g>
		<path d="M-190.3,427.8C-190.3,427.8-190.4,427.8-190.3,427.8h-40.1c-1,0-1.8-0.8-1.8-1.8v-5.4c0-0.5,0.2-1,0.5-1.3
			c0.1-0.1,9.5-9.5,9.5-18.1c0-6,11.3-10.7,28.5-17.2c7.4-2.8,18.5-7,19.3-9c0.3-3.6-9.3-10.7-16.2-14.7c-0.7-0.4-1.1-1.2-0.9-2
			c0.2-0.8,0.8-1.4,1.6-1.5l16.8-1.8c0.5-0.1,0.9,0.1,1.3,0.4c1.9,1.5,18.1,14.5,18.5,23.7c0.1,2.2-0.7,4.1-2.2,5.5
			c-0.3,0.3-0.7,0.5-1.2,0.5c-0.1,0-14.6,0.8-23.9,11.4c-6.1,7-8.8,16.6-7.9,28.7c0.1,0.2,0.1,0.4,0.1,0.6
			C-188.5,427-189.3,427.8-190.3,427.8z M-228.6,424.2h36.3c-0.6-12.4,2.4-22.5,9-29.9c9.2-10.4,22.4-12.2,25.7-12.5
			c0.5-0.6,0.7-1.3,0.6-2.2c-0.3-6.2-11.5-16.5-16.5-20.5l-10.7,1.1c5.7,3.7,13.8,10.1,13.4,15.4c-0.4,3.9-7.7,6.8-21.7,12
			c-9.7,3.7-26.1,9.8-26.1,13.7c0,8.9-7.8,17.8-10,20.1L-228.6,424.2L-228.6,424.2z"/>
	</g>
	<g>
		<path d="M-226,417.1c-0.1,0-0.3,0-0.4-0.1c-1-0.2-1.6-1.2-1.3-2.2c1.4-5.7-1-14.2-5.7-20.2c-3.5-4.5-7.9-7-12.3-7
			c-13.7,0-30.6-14.6-31.3-15.2c-0.4-0.3-0.6-0.8-0.6-1.4v-4.3c0-1,0.8-1.8,1.8-1.8h20.8c0.4,0,0.8,0.1,1.1,0.4l15.4,11.6h10.7
			c3.1-11.9,14.9-11.9,27.4-11.9c13.6,0,25,12,25.5,12.5c0.7,0.7,0.7,1.9-0.1,2.6c-0.7,0.7-1.9,0.7-2.6-0.1
			c-0.1-0.1-10.8-11.4-22.8-11.4c-13.8,0-22.3,0.5-24.1,10.4c-0.2,0.9-0.9,1.5-1.8,1.5h-12.8c-0.4,0-0.8-0.1-1.1-0.4l-15.4-11.6
			H-274v1.6c3.1,2.6,17.3,13.8,28.2,13.8c5.5,0,10.9,3,15.2,8.4c5.4,6.9,8,16.5,6.3,23.3C-224.5,416.6-225.2,417.1-226,417.1z"/>
	</g>
	<g>
		<path d="M-257.2,437.8c-12.6,0-22.8-10.2-22.8-22.8c0-12.6,10.2-22.8,22.8-22.8c8,0,15.2,4.1,19.4,10.9c0.3,0.5,0.4,1.1,0.2,1.6
			c-0.2,0.5-0.6,0.9-1.2,1.1l-17.8,5.3c-0.7,0.2-2.3,1-2.6,1.9c-0.2,0.5,0,1.2,0.5,2c0,0.1,1.5,1.7,13.3,1.7c3,0,6.1-0.1,8.8-0.2
			c0.5-0.1,1.1,0.2,1.5,0.6c0.4,0.4,0.5,1,0.4,1.5C-236.5,429.7-246,437.8-257.2,437.8z M-257.2,395.9c-10.5,0-19.1,8.6-19.1,19.1
			c0,10.5,8.6,19.1,19.1,19.1c8.7,0,16.1-5.7,18.4-13.9c-2.1,0.1-4.4,0.1-6.6,0.1c-12.5,0-15.3-1.7-16.4-3.3c-1.5-2.3-1.4-4.1-1-5.3
			c1.1-3,4.6-4.1,5.1-4.2l15.4-4.6C-246,398.5-251.4,395.9-257.2,395.9z"/>
	</g>
	<g>
		<path d="M-260.1,383.5c-0.1,0-0.2,0-0.3,0l-14.8-2.3c-0.5-0.1-0.9-0.3-1.2-0.8c-0.3-0.4-0.4-0.9-0.3-1.4l1.3-6.5
			c0.2-1,1.2-1.7,2.2-1.4c1,0.2,1.6,1.2,1.4,2.2l-0.9,4.6l12.9,2c1,0.2,1.7,1.1,1.5,2.1C-258.4,382.9-259.2,383.5-260.1,383.5z"/>
	</g>
	<g>
		<path d="M-161.4,413.5c-0.7,0-1.4-0.4-1.7-1.1l-10.8-23.7c-0.4-0.9,0-2,0.9-2.4c0.9-0.4,2,0,2.4,0.9l10.8,23.7
			c0.4,0.9,0,2-0.9,2.4C-160.9,413.4-161.2,413.5-161.4,413.5z"/>
	</g>
	<g>
		<path d="M-197.7,416.2c-0.3,0-0.5-0.1-0.8-0.2c-4.7-2.1-7-4.8-7-7.9c0-6.4,10.7-11.3,11.9-11.8c0.8-0.3,1.6-0.1,2.2,0.5
			c0.5,0.6,0.6,1.6,0.1,2.2c0,0.1-4.4,6.2-4.6,15.4c0,0.6-0.3,1.2-0.9,1.5C-197.1,416.1-197.4,416.2-197.7,416.2z M-197.2,402.6
			c-2.4,1.7-4.6,3.8-4.6,5.6c0,1.2,1.1,2.3,2.4,3.2C-199,407.9-198.1,404.9-197.2,402.6z"/>
	</g>
	<g>
		<path d="M-160.2,437.8c-12.6,0-22.8-10.2-22.8-22.8c0-4.6,1.4-9.1,4-12.9c0.4-0.6,1.1-0.9,1.8-0.8l12.6,2l17.4-6
			c0.6-0.2,1.3-0.1,1.8,0.3c5.1,4.3,8,10.6,8,17.3C-137.4,427.6-147.6,437.8-160.2,437.8z M-176.6,405.2c-1.8,3-2.7,6.4-2.7,9.8
			c0,10.5,8.6,19.1,19.1,19.1c10.5,0,19.1-8.6,19.1-19.1c0-5.2-2.1-10.2-5.9-13.8l-16.8,5.8c-0.3,0.1-0.6,0.1-0.9,0.1L-176.6,405.2z
			"/>
	</g>
	<g>
		<path d="M-134.4,427.5c-0.2,0-0.5,0-0.7-0.1c-0.9-0.4-1.4-1.5-1-2.4c1.3-3.1,1.9-6.4,1.9-9.8c0-4.4-1.1-8.8-3.3-12.6
			c-0.5-0.9-0.2-2,0.7-2.5c0.9-0.5,2-0.2,2.5,0.7c2.5,4.4,3.8,9.4,3.8,14.4c0,3.9-0.7,7.6-2.2,11.2
			C-133,427.1-133.7,427.5-134.4,427.5z"/>
	</g>
	<g>
		<path d="M-138.6,434.7c-0.4,0-0.8-0.1-1.2-0.4c-0.8-0.6-0.9-1.8-0.3-2.6c0.7-0.8,1.3-1.7,1.8-2.5c0.5-0.9,1.7-1.1,2.5-0.6
			c0.9,0.5,1.1,1.7,0.6,2.5c-0.6,1-1.3,2-2.1,2.9C-137.6,434.4-138.1,434.7-138.6,434.7z"/>
	</g>
	<g>
		<path d="M-160.2,421c-3.1,0-5.7-2.6-5.7-5.7s2.6-5.7,5.7-5.7s5.7,2.6,5.7,5.7S-157,421-160.2,421z M-160.2,413.3c-1.1,0-2,0.9-2,2
			c0,1.1,0.9,2,2,2c1.1,0,2-0.9,2-2C-158.2,414.2-159.1,413.3-160.2,413.3z"/>
	</g>
	<g>
		<path d="M-164.4,407.1c-0.1,0-0.2,0-0.3,0l-14.9-2.3c-0.6-0.1-1.1-0.5-1.4-1.1c-0.3-0.6-0.2-1.2,0.1-1.7
			c4.6-7.4,12.5-11.8,21.2-11.8c6.3,0,12.4,2.4,17,6.8c0.5,0.4,0.7,1.1,0.5,1.7c-0.1,0.6-0.6,1.1-1.2,1.4l-20.5,7
			C-163.9,407-164.1,407.1-164.4,407.1z M-176,401.5l11.5,1.8l16.9-5.8c-3.5-2.4-7.7-3.8-12-3.8C-166,393.8-172,396.6-176,401.5z"/>
	</g>
	<g>
		<path d="M-160.1,431.1c-8.9,0-16.1-7.2-16.1-16.1c0-4.5,2-8.9,5.4-12c0.4-0.4,1-0.5,1.5-0.4l4.7,0.8l9.4-3.2
			c0.4-0.2,0.9-0.1,1.3,0c6,2.5,9.9,8.3,9.9,14.8C-144,423.9-151.2,431.1-160.1,431.1z M-168.9,406.4c-2.3,2.3-3.6,5.4-3.6,8.7
			c0,6.8,5.6,12.4,12.4,12.4c6.8,0,12.4-5.6,12.4-12.4c0-4.8-2.7-9.1-7-11.2l-9.1,3.1c-0.3,0.1-0.6,0.1-0.9,0.1L-168.9,406.4z"/>
	</g>
	<g>
		<path d="M-257.4,431.1c-8.9,0-16.1-7.2-16.1-16.1c0-8.9,7.2-16.1,16.1-16.1c4.9,0,9.4,2.2,12.5,6.1c0.4,0.5,0.5,1.1,0.3,1.7
			c-0.2,0.6-0.6,1-1.2,1.2l-10.9,3.2c-0.7,0.2-2.3,1-2.6,1.9c-0.2,0.5,0,1.2,0.5,2c0,0.1,1.5,1.7,13.3,1.7l1.8,0
			c0.7,0,1.1,0.3,1.5,0.7c0.4,0.4,0.5,1,0.3,1.6C-243.6,426.1-250,431.1-257.4,431.1z M-257.4,402.6c-6.9,0-12.4,5.6-12.4,12.4
			c0,6.8,5.6,12.4,12.4,12.4c4.8,0,9.1-2.8,11.1-7.1c-11.9-0.1-14.6-1.7-15.6-3.3c-1.5-2.3-1.4-4.1-1-5.3c1.1-3,4.6-4.1,5.1-4.2
			l8-2.4C-251.9,403.5-254.6,402.6-257.4,402.6z"/>
	</g>
	<g>
		<path d="M-213.4,388.1c-10.8,0-14.5-8.3-14.7-8.6c-0.4-0.9,0-2,1-2.4c0.9-0.4,2,0,2.4,1c0.1,0.3,3,6.4,11.3,6.4c0.2,0,0.4,0,0.5,0
			c0,0,0,0,0.1,0c1,0,1.8,0.8,1.8,1.8c0,1-0.8,1.9-1.8,1.9C-212.9,388.1-213.1,388.1-213.4,388.1z"/>
	</g>
	<g>
		<path d="M-244.9,420.4c-7.8,0-15.2-0.7-16.9-3.3c-1.5-2.3-1.4-4.1-1-5.3c1.1-3,4.6-4.1,5.1-4.2l28.1-8.3
			c0.8-8.6,9.5-12.1,9.9-12.2l36.9-15.1c0.9-0.4,2,0.1,2.4,1c0.4,0.9-0.1,2-1,2.4l-37,15.1c-0.3,0.1-7.8,3.1-7.7,10.1
			c0,0.8-0.5,1.6-1.3,1.8l-29.3,8.7c-0.7,0.2-2.3,1-2.6,1.9c-0.2,0.5,0,1.2,0.5,2c1.5,1.8,15.6,2.2,30.7,0.9c1-0.1,1.9,0.7,2,1.7
			c0.1,1-0.7,1.9-1.7,2C-231.9,419.9-238.6,420.4-244.9,420.4z"/>
	</g>
	<g>
		<path d="M-234.3,392.9c-0.1,0-0.3,0-0.4,0c-1-0.2-1.6-1.2-1.4-2.2c1.3-6-3.9-10.3-4.1-10.5c-0.8-0.6-0.9-1.8-0.3-2.6
			c0.6-0.8,1.8-0.9,2.6-0.3c0.3,0.2,7.3,5.9,5.4,14.2C-232.7,392.3-233.5,392.9-234.3,392.9z"/>
	</g>
	<g>
		<path d="M-155.2,381.3c-0.2,0-0.3,0-0.5-0.1c-0.3-0.1-6.9-2.1-11.5-7.2c-2-2.2-1.9-4-1.5-5.1c1.1-2.9,5.3-3.7,6.2-3.8
			c1-0.1,1.9,0.5,2.1,1.5c0.1,1-0.5,1.9-1.5,2.1c-1.5,0.2-3.1,0.9-3.2,1.4c0,0.1,0,0.6,0.8,1.4c3.8,4.3,9.7,6.1,9.8,6.1
			c1,0.3,1.5,1.3,1.2,2.3C-153.7,380.8-154.4,381.3-155.2,381.3z"/>
	</g>
	<g>
		<path d="M-244.8,414.4c-0.8,0-1.6-0.6-1.8-1.5c-0.2-1,0.4-2,1.4-2.2l18.4-3.9c1-0.2,2,0.4,2.2,1.4c0.2,1-0.4,2-1.4,2.2l-18.4,3.9
			C-244.5,414.4-244.6,414.4-244.8,414.4z"/>
	</g>
</g>
</svg>
