<?xml version="1.0" encoding="utf-8"?>
<!-- Generator: Adobe Illustrator 19.0.0, SVG Export Plug-In . SVG Version: 6.00 Build 0)  -->
<svg version="1.1" id="Camada_1" xmlns="http://www.w3.org/2000/svg" xmlns:xlink="http://www.w3.org/1999/xlink" x="0px" y="0px"
	 viewBox="-280 321.5 150 150" style="enable-background:new -280 321.5 150 150;" xml:space="preserve">
<style type="text/css">
	.st0{fill:none;stroke:#000000;stroke-linecap:round;stroke-linejoin:round;stroke-miterlimit:10;}
</style>
<g>
	<path class="st0" d="M-212.9,470.5c0-2.5,2-4.5,4.5-4.5c2.5,0,4.5,2,4.5,4.5H-212.9z"/>
	<path class="st0" d="M-197.9,470.5c0-2.5,2-4.5,4.5-4.5c2.5,0,4.5,2,4.5,4.5H-197.9z"/>
	<path class="st0" d="M-213.8,447.3l2.2,20c0.8-0.8,1.9-1.3,3.2-1.3c2.5,0,4.5,2,4.5,4.5l1.2-24.7
		C-206.4,445.9-210.1,446.4-213.8,447.3z"/>
	<path class="st0" d="M-199.1,445.8l1.2,24.7c0-2.5,2-4.5,4.5-4.5c1.2,0,2.3,0.5,3.2,1.3l2.2-20
		C-191.6,446.4-195.3,445.9-199.1,445.8z"/>
	<path class="st0" d="M-185.4,374.1c-2-2-4.7-3.2-7.7-3.2l0,0v0c-3,0-5.8,1.2-7.8,3.2v0c-2-2-4.7-3.2-7.7-3.2l0,0v0
		c-3,0-5.8,1.2-7.8,3.2c2-2,4.7-3.2,7.8-3.2v0l0,0c3,0,5.8,1.2,7.7,3.2v0c2-2,4.7-3.2,7.8-3.2v0l0,0
		C-190.1,370.9-187.4,372.1-185.4,374.1z"/>
	<path class="st0" d="M-192.2,363.8c1.2-1.2,2-3,2-4.9v-3.8c0-6-2.3-12-6.9-16.6v0c-2.3-2.3-3.8-5.6-3.8-9.1l0,0h0
		c7.1,0,12.9,5.8,12.9,12.9v11.2h0C-188,357.5-189.6,361.2-192.2,363.8z"/>
	<path class="st0" d="M-209.5,363.8c-1.2-1.2-2-3-2-4.9v-3.8c0-6,2.3-12,6.9-16.6v0c2.3-2.3,3.8-5.6,3.8-9.1l0,0l0,0
		c-7.1,0-12.9,5.8-12.9,12.9v11.2h0C-213.8,357.5-212.2,361.2-209.5,363.8z"/>
	<path class="st0" d="M-197.1,338.5L-197.1,338.5c-2.3-2.3-3.8-5.5-3.8-9.1c0,0,0,0,0,0c0,3.6-1.4,6.8-3.8,9.1v0
		c-2.7,2.7-4.5,5.8-5.7,9.2c1.8,5.4,5.3,9.1,9.4,9.1c4.1,0,7.7-3.7,9.4-9C-192.6,344.3-194.4,341.2-197.1,338.5z"/>
	<path class="st0" d="M-268.7,470.5c0-3.9,3.2-7.1,7.1-7.1c3.9,0,7.1,3.2,7.1,7.1H-268.7z"/>
	<path class="st0" d="M-248.5,470.5c0-3.9,3.2-7.1,7.1-7.1c3.9,0,7.1,3.2,7.1,7.1H-248.5z"/>
	<path class="st0" d="M-241.4,463.4c1.5,0,2.8,0.5,4,1.2l1.4-56.1h-31l1.4,56.1c1.1-0.8,2.5-1.2,4-1.2c3.9,0,7.1,3.2,7.1,7.1l3-48.2
		l3,48.2C-248.4,466.6-245.3,463.4-241.4,463.4z"/>
	<path class="st0" d="M-240.2,335.7V329c0-2.7-2.2-4.9-4.9-4.9c-0.7,0-1.4,0.2-2,0.4c-1.6-1.3-3.7-2-5.9-2c-5.4,0-9.7,4.3-9.7,9.7
		v3.5c-1.5,0.5-2.5,1.9-2.5,3.5c0,3.2,1.6,5.8,3.7,5.9c1.9,5.8,5.7,9.7,10.1,9.7c4.4,0,8.2-4,10.1-9.7c2-0.1,3.7-2.7,3.7-5.9
		C-237.7,337.6-238.7,336.2-240.2,335.7z"/>
	<path class="st0" d="M-240.2,335.7c-2.7,0-4.9-2.2-4.9-4.9l0,0c-3,3-7.2,4.9-11.7,4.9l0,0h-5.9h5.9l0,0c4.6,0,8.7-1.9,11.7-4.9l0,0
		C-245.1,333.5-242.9,335.7-240.2,335.7z"/>
	<path class="st0" d="M-149.6,350.3l-1.3,0c0.8-0.8,1.3-1.9,1.3-3.1c-1.9,1.9-4.6,3.1-7.5,3.1v0c-3,0-5.4,2.4-5.4,5.4v5.3l1.5,1.5
		l1.4-4.5l0,0c3.4,3.4,8.9,3.4,12.4,0l0,0l1.4,4.5l1.5-1.5v-5.3C-144.2,352.7-146.7,350.3-149.6,350.3z"/>
	<path class="st0" d="M-144.2,361l-1.5,1.5l-1.4-4.5l0,0c-3.4,3.4-9,3.4-12.4,0l0,0l-1.4,4.5l-1.5-1.5l0,0c-1.2,0.4-2.1,1.5-2.1,2.9
		c0,2.6,1.3,4.7,3,4.8c1.5,4.7,4.6,7.9,8.2,7.9c3.6,0,6.7-3.2,8.2-7.9c1.7-0.1,3-2.2,3-4.8C-142.2,362.5-143,361.4-144.2,361z"/>
	<path class="st0" d="M-167.3,470.5c0-3.2,2.6-5.8,5.8-5.8c3.2,0,5.8,2.6,5.8,5.8H-167.3z"/>
	<path class="st0" d="M-150.9,470.5c0-3.2,2.6-5.8,5.8-5.8c3.2,0,5.8,2.6,5.8,5.8H-150.9z"/>
	<path class="st0" d="M-145.2,464.7c1.2,0,2.3,0.4,3.2,1l1.1-45.6H-166l1.1,45.6c0.9-0.6,2-1,3.2-1c3.2,0,5.8,2.6,5.8,5.8l2.4-39.1
		l2.4,39.1C-150.9,467.3-148.3,464.7-145.2,464.7z"/>
	<path class="st0" d="M-131.8,387.9c-0.6-1.4-1.4-2.6-2.4-3.6v0c-1-1-2.3-1.9-3.6-2.4c-0.3-0.1-5.3-2.2-10.5-4.3l-0.5-2.9
		c-1.3,1.2-2.9,1.9-4.5,1.9c-1.7,0-3.2-0.7-4.5-1.9l-0.5,2.9c-5.2,2.2-10.2,4.2-10.4,4.3c-1.4,0.6-2.6,1.4-3.6,2.4v0
		c-1,1-1.9,2.3-2.4,3.6c-0.5,1.3-0.9,2.8-0.9,4.3v39.1c0.8,0,1.5-0.2,2.1-0.4c0.7-0.3,1.3-0.7,1.8-1.2v0c0.5-0.5,0.9-1.1,1.2-1.8
		l4.6-35.7v28h25.2v-28l4.6,35.7c0.3,0.7,0.7,1.3,1.2,1.8v0c0.5,0.5,1.1,0.9,1.8,1.2c0.7,0.3,1.4,0.4,2.1,0.4v-39.1
		C-131,390.7-131.3,389.2-131.8,387.9z"/>
	<path class="st0" d="M-228.3,420.7l3.3-46.6c0-1.2,0.2-2.4,0.5-3.6c-0.2-0.6-0.3-1.2-0.5-1.7c-0.7-1.7-1.7-3.2-3-4.5v0
		c-1.3-1.3-2.8-2.3-4.5-3c-0.3-0.1-6.5-2.7-12.9-5.3l-0.6-3.5c-1.6,1.5-3.5,2.3-5.6,2.3c-2,0-3.9-0.9-5.6-2.4l-0.6,3.5
		c-6.4,2.6-12.5,5.2-12.9,5.3c-1.7,0.7-3.2,1.7-4.5,3v0c-1.3,1.3-2.3,2.8-3,4.5c-0.7,1.6-1.1,3.4-1.1,5.3v48.2
		c0.9,0,1.8-0.2,2.6-0.5c0.8-0.4,1.6-0.9,2.2-1.5v0c0.6-0.6,1.1-1.4,1.5-2.2l5.7-43.9v34.4h31v-34.4l5.7,43.9
		c0.4,0.8,0.9,1.6,1.5,2.2v0C-228.6,420.5-228.5,420.6-228.3,420.7z"/>
	<path class="st0" d="M-175.7,392.2c0-0.5,0.1-0.9,0.1-1.4l-1.2-16.7c0-1.9-0.4-3.6-1-5.3c-0.7-1.7-1.7-3.2-3-4.5v0
		c-1.3-1.3-2.8-2.3-4.5-3c-0.3-0.1-4.5-1.8-9.5-3.9l-0.5-3.3c-1.6,1.6-3.5,2.5-5.6,2.5c-2,0-4-0.9-5.6-2.5l-0.5,3.3
		c-5,2.1-9.2,3.8-9.5,3.9c-1.7,0.7-3.2,1.7-4.5,3v0c-1.3,1.3-2.3,2.8-3,4.5c-0.7,1.6-1,3.4-1,5.3l-3.4,48.2c0.9,0,1.8-0.2,2.6-0.5
		c0.8-0.4,1.6-0.9,2.2-1.5v0c0.6-0.6,1.1-1.4,1.5-2.2l5.7-43.9c4.3,10.3,4.3,21.4,0.3,31h0c-0.7,1.6-5.5,44.7-5.5,44.7
		c13.8-5.7,28.5-5.3,41.3,0c0-0.2-4.8-43.1-5.5-44.7h0c-4-9.6-3.9-20.7,0.3-31l5.7,43.9c0.4,0.8,0.9,1.6,1.5,2.2v0
		c0.6,0.6,1.4,1.1,2.2,1.5c0.1,0,0.2,0,0.2,0.1L-175.7,392.2L-175.7,392.2z"/>
</g>
</svg>
