<?xml version="1.0" encoding="utf-8"?>
<!-- Generator: Adobe Illustrator 19.0.0, SVG Export Plug-In . SVG Version: 6.00 Build 0)  -->
<svg version="1.1" id="Camada_1" xmlns="http://www.w3.org/2000/svg" xmlns:xlink="http://www.w3.org/1999/xlink" x="0px" y="0px"
	 viewBox="-280 321.5 150 150" style="enable-background:new -280 321.5 150 150;" xml:space="preserve">
<g>
	<path d="M-131.5,364.9c0-23.9-22.9-43.4-51.2-43.4h-44.9c-28.2,0-51.2,19.5-51.2,43.4v1.3c0,5.4,5,9.7,11.1,9.7h125.1
		c6.1,0,11.1-4.5,11.1-9.7c0-0.2,0-0.5,0-0.7C-131.5,365.2-131.5,365.1-131.5,364.9z M-137.3,366.2c0,2.1-2.3,3.8-5.1,3.8h-125.2
		c-2.8,0-5.1-1.8-5.1-3.8v-1.3c0-9.9,4.6-19.3,13-26.4c8.6-7.3,20-11.2,32.2-11.2h45c12,0,23.6,4,32.2,11.2c8.4,7.1,13,16.5,13,26.4
		c0,0.2,0,0.5,0,0.7C-137.3,365.7-137.3,365.9-137.3,366.2z"/>
	<path d="M-142.5,429.6h-125.1c-6.3,0-11.1,3.5-11.1,8.1c0,0.2,0,0.3,0,0.5s0,0.3,0,0.5c0,9.1,5.4,17.5,15.5,23.6
		c9.6,5.9,22.3,9.2,35.6,9.2h45c13.4,0,26.1-3.3,35.6-9.2c10.1-6.3,15.5-14.7,15.5-23.6v-1C-131.5,433.2-136.3,429.6-142.5,429.6z
		 M-137.3,438.7c0,6.9-4.5,13.5-12.7,18.6c-8.7,5.4-20.1,8.4-32.5,8.4h-45c-12.2,0-23.8-3-32.5-8.4c-8.3-5.1-12.7-11.7-12.7-18.6
		c0-0.2,0-0.3,0-0.5s0-0.3,0-0.5c0-0.5,1.8-2.1,5.1-2.1h125.1c3.3,0,5.1,1.5,5.1,2.1v1H-137.3z"/>
	<path d="M-272.1,426.3h134.7v-12.5h-134.7V426.3z M-268.6,417h127.7v5.8h-127.7V417z"/>
	<path d="M-271.1,379.4V392h64.5v-12.5H-271.1z M-210,388.7h-57.8v-5.8h57.8V388.7z"/>
	<path d="M-202.9,379.4V392h64.5v-12.5H-202.9z M-141.9,388.7h-57.8v-5.8h57.8V388.7z"/>
	<path d="M-236.6,335.5h-6.6c-1,0-1.7,0.8-1.7,1.7c0,0.8,0.8,1.7,1.7,1.7h6.6c1,0,1.7-0.8,1.7-1.7
		C-235,336.4-235.8,335.5-236.6,335.5z"/>
	<path d="M-202.8,335.5h-6.6c-1,0-1.7,0.8-1.7,1.7c0,0.8,0.8,1.7,1.7,1.7h6.6c1,0,1.7-0.8,1.7-1.7
		C-201.1,336.4-201.9,335.5-202.8,335.5z"/>
	<path d="M-224.1,348.2h-6.6c-1,0-1.7,0.8-1.7,1.7c0,0.8,0.8,1.7,1.7,1.7h6.6c1,0,1.7-0.8,1.7-1.7
		C-222.4,349.1-223.1,348.2-224.1,348.2z"/>
	<path d="M-253.6,348.2h-6.6c-1,0-1.7,0.8-1.7,1.7c0,0.8,0.8,1.7,1.7,1.7h6.6c1,0,1.7-0.8,1.7-1.7
		C-251.9,349.1-252.6,348.2-253.6,348.2z"/>
	<path d="M-185.9,348.2h-6.6c-1,0-1.7,0.8-1.7,1.7c0,0.8,0.8,1.7,1.7,1.7h6.6c1,0,1.7-0.8,1.7-1.7
		C-184.3,349.1-185,348.2-185.9,348.2z"/>
	<path d="M-152.1,348.2h-6.6c-1,0-1.7,0.8-1.7,1.7c0,0.8,0.8,1.7,1.7,1.7h6.6c1,0,1.7-0.8,1.7-1.7
		C-150.5,349.1-151.1,348.2-152.1,348.2z"/>
	<path d="M-168.9,335.5h-6.6c-1,0-1.7,0.8-1.7,1.7c0,0.8,0.8,1.7,1.7,1.7h6.6c1,0,1.7-0.8,1.7-1.7
		C-167.3,336.4-168,335.5-168.9,335.5z"/>
	<path d="M-168.9,455.8h-6.6c-1,0-1.7,0.8-1.7,1.7c0,0.8,0.8,1.7,1.7,1.7h6.6c1,0,1.7-0.8,1.7-1.7
		C-167.3,456.6-168,455.8-168.9,455.8z"/>
	<path d="M-202.8,455.8h-6.6c-1,0-1.7,0.8-1.7,1.7c0,0.8,0.8,1.7,1.7,1.7h6.6c1,0,1.7-0.8,1.7-1.7
		C-201.1,456.6-201.9,455.8-202.8,455.8z"/>
	<path d="M-181.7,446.4h-6.6c-1,0-1.7,0.8-1.7,1.7c0,1,0.8,1.7,1.7,1.7h6.6c1,0,1.7-0.8,1.7-1.7C-180,447.2-180.7,446.4-181.7,446.4
		z"/>
	<path d="M-152.1,446.4h-6.6c-1,0-1.7,0.8-1.7,1.7c0,1,0.8,1.7,1.7,1.7h6.6c1,0,1.7-0.8,1.7-1.7
		C-150.3,447.2-151.1,446.4-152.1,446.4z"/>
	<path d="M-219.8,446.4h-6.6c-1,0-1.7,0.8-1.7,1.7c0,1,0.8,1.7,1.7,1.7h6.6c1,0,1.7-0.8,1.7-1.7
		C-218.1,447.2-218.8,446.4-219.8,446.4z"/>
	<path d="M-253.6,446.4h-6.6c-1,0-1.7,0.8-1.7,1.7c0,1,0.8,1.7,1.7,1.7h6.6c1,0,1.7-0.8,1.7-1.7
		C-251.9,447.2-252.6,446.4-253.6,446.4z"/>
	<path d="M-236.6,455.8h-6.6c-1,0-1.7,0.8-1.7,1.7c0,0.8,0.8,1.7,1.7,1.7h6.6c1,0,1.7-0.8,1.7-1.7
		C-235,456.6-235.8,455.8-236.6,455.8z"/>
	<path d="M-276.5,401v3.1c0,2.8,2.3,5.1,5.1,5.1h133.2c2.8,0,5.1-2.3,5.1-5.1V401c0-2.8-2.3-5.1-5.1-5.1h-133.2
		C-274.2,396.1-276.5,398.2-276.5,401z"/>
</g>
</svg>
