<?xml version="1.0" encoding="utf-8"?>
<!-- Generator: Adobe Illustrator 19.0.0, SVG Export Plug-In . SVG Version: 6.00 Build 0)  -->
<svg version="1.1" id="Camada_1" xmlns="http://www.w3.org/2000/svg" xmlns:xlink="http://www.w3.org/1999/xlink" x="0px" y="0px"
	 viewBox="-230 322.3 150 150" style="enable-background:new -230 322.3 150 150;" xml:space="preserve">
<g>
	<path d="M-80,364.3c0-0.1,0-0.1,0-0.3c0-0.1,0-0.1,0-0.3s0-0.1,0-0.3s0-0.3,0-0.3l0,0c0,0,0-0.1-0.1-0.1c0-0.1-0.1-0.1-0.1-0.3
		s-0.1-0.1-0.1-0.3s-0.1-0.1-0.1-0.3c0-0.1-0.1-0.1-0.1-0.3l-0.1-0.1c-0.1,0-0.1-0.1-0.3-0.1l-0.1-0.1c-0.1,0-0.3-0.1-0.3-0.1h-0.1
		l-72.6-23.7l0,0c-0.1,0-0.3,0-0.3-0.1c-0.1,0-0.1,0-0.3,0s-0.1,0-0.3,0c-0.1,0-0.1,0-0.3,0c-0.1,0-0.1,0-0.3,0c-0.1,0-0.3,0-0.3,0
		l0,0l-72.6,23.7c-1,0.4-1.8,1.3-1.8,2.4c0,1.1,0.8,2,1.8,2.4l23.3,7.6v38.7c0,1.4,1.1,2.5,2.5,2.5c11.9,0,23.4,4.1,32.7,11.6
		l13.4,10.9l0,0c0,0,0.1,0,0.1,0.1c0.1,0.1,0.3,0.1,0.4,0.3c0,0,0.1,0,0.1,0.1c0.1,0,0.3,0.1,0.4,0.1h0.1c0.1,0,0.4,0,0.5,0l0,0l0,0
		c0.1,0,0.4,0,0.5,0h0.1c0.1,0,0.3-0.1,0.4-0.1c0,0,0,0,0.1,0l0,0c0.1-0.1,0.4-0.1,0.5-0.3l13-11.1c5.5-4.5,11.9-7.8,18.8-9.6v14.3
		c-3,0.9-5.3,3.6-5.3,7v11c0,4,3.3,7.3,7.3,7.3h1c4,0,7.3-3.3,7.3-7.3v-11c0-3.3-2.3-6.1-5.3-7v-15.5c2.9-0.5,5.9-0.8,8.9-0.8
		c1.4,0,2.5-1.1,2.5-2.5V374l23.2-7.6l0,0l0,0c0.3-0.1,0.4-0.1,0.6-0.3c0,0,0.1,0,0.1-0.1c0.1-0.1,0.4-0.3,0.5-0.5c0,0,0,0,0-0.1
		c0.1-0.1,0.3-0.4,0.3-0.6l0,0l0,0c0-0.1,0-0.1,0-0.3C-80,364.4-80,364.3-80,364.3z M-116.1,449.3c0,1.3-1,2.3-2.3,2.3h-1
		c-1.3,0-2.3-1-2.3-2.3v-11c0-1.3,1-2.3,2.3-2.3h1c1.3,0,2.3,1,2.3,2.3V449.3z M-155.1,343l64.6,21l-28.3,9.3l-35.6-11.6
		c-1.4-0.4-2.8,0.3-3.1,1.6c-0.4,1.4,0.3,2.8,1.6,3.1l29,9.5l-28.3,9.1l-64.5-21L-155.1,343z M-143.2,422.9l-9.4,7.6v-8.6
		c0-1.4-1.1-2.5-2.5-2.5c-1.4,0-2.5,1.1-2.5,2.5v8.6l-9.4-7.6c-9.4-7.6-21.2-12.1-33.3-12.6v-34.6l44.3,14.5
		c0.3,0.1,0.5,0.1,0.8,0.1s0.5,0,0.8-0.1l33.1-10.8V412C-129.3,413.8-136.8,417.6-143.2,422.9z M-109.9,410.2
		c-2.1,0.1-4.3,0.4-6.4,0.6v-33.2l6.4-2.1V410.2z"/>
</g>
</svg>
