<?xml version="1.0" encoding="utf-8"?>
<!-- Generator: Adobe Illustrator 19.0.0, SVG Export Plug-In . SVG Version: 6.00 Build 0)  -->
<svg version="1.1" id="Camada_1" xmlns="http://www.w3.org/2000/svg" xmlns:xlink="http://www.w3.org/1999/xlink" x="0px" y="0px"
	 viewBox="-280 321.5 150 150" style="enable-background:new -280 321.5 150 150;" xml:space="preserve">
<path d="M-130.2,394.7c-0.3-0.7-1-1.1-1.7-1.4c-6.7-3.4-13.4-5.8-20-7.3c6.2-4.7,11.4-10.7,15.1-17.4c0.3-0.5,0.8-1.5,0.6-2.6
	c-0.2-0.9-1-1.9-3.5-2c-6.2-0.3-12.7,0.3-19.3,1.9c3.1-6.2,5.1-12.9,7-19c0.7-2.3,0.2-4-1.2-4.5c-0.8-0.3-1.6,0-2.2,0.2
	c-8.5,2.8-16,6.5-22.4,11.1c1.5-8.7,0.8-17.7-2.1-26c-0.2-0.6-0.6-1.6-1.5-2.1c-0.8-0.4-2.1-0.5-3.8,1.3c-3.1,3.1-6.1,6.8-8.7,11
	c-0.1-0.3-0.2-0.6-0.4-0.9l-5.1-12.4c-0.8-1.8-1.6-2.8-2.7-2.8c-1.5,0-2.6,1.8-3.6,3.9c-1.9,3.9-3.3,7.1-4.5,10.1
	c-1.3,3.3-2.4,6.4-3.2,9.4c-5-6.4-11.4-11.7-17.2-16.4c-1.8-1.5-3.6-1.7-4.6-0.6c-0.5,0.6-0.6,1.4-0.7,2.1
	c-0.5,6.3-0.3,12.5,0.6,18.5c-1.4-0.6-2.8-1.2-4.2-1.8l-12.3-5.1c-1.8-0.8-3.1-0.8-3.9-0.1c-1.1,1.1-0.6,3.2,0.2,5.3
	c1.5,4.2,2.7,7.3,4,10.3c1.8,4.3,3.8,8.1,5.9,11.5c-9-1.3-18.4,0.1-26.7,1.4c-2.3,0.4-3.7,1.5-3.5,3c0.1,0.9,0.7,1.5,1.1,1.9
	c4.2,4.4,8.7,8.2,13.3,11.4c-2.3,0.9-4.4,2.2-6.3,3.4l-11.6,7c-0.3,0.2-0.5,0.6-0.3,1c1.1,2.9,4,4.6,6.3,5.8
	c3.5,1.9,7.3,3.3,11.1,4.3c-0.5,0.5-1.1,1-1.6,1.5l-9.4,9.5c-1.4,1.4-1.9,2.6-1.5,3.6c0.6,1.4,2.7,1.7,4.9,1.9
	c3.6,0.2,6.6,0.3,9.3,0.3c0.6,0,1.2,0,1.7,0c3.8-0.1,7.2-0.3,10.5-0.7c-0.6,0.7-1.2,1.4-1.7,2.2c-2.1,3.1-3,6.9-3.8,10.2l-3.2,13.2
	c-0.1,0.4,0.1,0.8,0.5,0.9c1.1,0.5,2.2,0.6,3.4,0.6c1.8,0,3.7-0.5,5.2-0.9c4.7-1.5,9.2-3.6,13.4-6.4c0,1.9,0.1,3.7,0.2,5.3l0.7,13.3
	c0.1,2,0.6,3.1,1.6,3.5c0.2,0.1,0.4,0.1,0.7,0.1c1.3,0,2.7-1.2,4-2.6c3.1-3.1,5.5-5.6,7.6-8c1.7-2,3.3-4,4.8-5.9
	c1.8,7.3,5.2,14.2,9.9,20.1c0.4,0.5,1.1,1.3,2.1,1.5c0.1,0,0.2,0,0.3,0c0.8,0,1.9-0.5,2.9-2.5c2.7-5.7,4.6-12.1,5.7-18.7
	c2.1,3,5.1,5.2,7.8,7.1l10.9,8c0.1,0.1,0.3,0.2,0.5,0.2c0.2,0,0.4-0.1,0.5-0.2c2.2-2.2,2.8-5.4,3-8c0.4-4.7,0.1-9.6-0.8-14.4
	c5.9,3.2,12.4,5.3,19.1,6c0.2,0,0.5,0.1,0.8,0.1c0.6,0,1.2-0.1,1.7-0.5c0.7-0.5,1.3-1.7,0.5-4c-2.5-7.2-6.6-14.2-11.8-20.6
	c1.3,0.4,2.5,0.8,3.7,0.9c0.9,0.1,1.7,0.2,2.6,0.2c2.9,0,5.7-0.6,8.3-1.1l13.3-2.8c0.4-0.1,0.6-0.4,0.6-0.8c-0.1-3.1-2.2-5.7-4-7.6
	c-2.4-2.6-5.2-5-8.2-7.1c4.7-2,9.2-4.4,13.4-6.7C-130.4,397.7-129.6,396.1-130.2,394.7z M-139.8,365.5c0.7,0,1.9,0.2,2.1,0.9
	c0.1,0.4-0.2,1-0.4,1.4c-3.7,6.9-9.2,13.1-15.7,17.7c-4.6-0.9-9.1-1.3-13.6-1.3c-3.1,0-6.3,0.3-9.3,0.9c2.3-1.4,4.3-2.9,6.2-4.4
	c0.5-0.4,1.1-0.9,1.6-1.3c0,0,0,0,0.1-0.1c0.8-0.7,1.5-1.4,2.2-2.1c2.7-2.9,4.9-6.1,6.7-9.5C-153.1,365.9-146.3,365.2-139.8,365.5z
	 M-155.1,344c0.5-0.2,0.9-0.3,1.2-0.2c0.6,0.2,0.6,1.5,0.2,2.6c-2,6.5-4.1,13.6-7.5,20c-0.1,0.1-0.2,0.2-0.3,0.3
	c-1.9,3.7-4.1,6.7-6.5,9.4c-0.9,1-1.9,1.9-2.9,2.8c-3.1,2.7-7,5.1-11.8,7.5l-0.1,0.1c-3,0.9-5.9,2-8.7,3.4c-0.5,0.2-1,0.5-1.5,0.8
	c0,0,0-0.1-0.1-0.1c-1.3-2.3-3.3-4-5.9-5.1c0.1-0.2,0.2-0.5,0.3-0.7c0.4-0.7,0.7-1.4,1-2.1c0.2-0.3,0.3-0.7,0.5-1
	c0.4-0.8,0.7-1.6,1-2.3c0.1-0.3,0.2-0.5,0.3-0.8c0.4-1,0.8-2,1.1-3c0-0.1,0.1-0.2,0.1-0.3c0.4-1.2,0.8-2.3,1.1-3.5
	c0.4-0.6,0.8-1.2,1.2-1.8c0.2-0.2,0.3-0.5,0.5-0.7c0.4-0.6,0.8-1.1,1.2-1.6c0.2-0.3,0.4-0.5,0.6-0.8c0.4-0.5,0.8-1,1.3-1.5
	c0.2-0.3,0.4-0.5,0.7-0.8c0.7-0.7,1.3-1.5,2-2.2c0.8-0.8,1.7-1.6,2.5-2.4c0.3-0.3,0.6-0.6,0.9-0.9c0.7-0.6,1.4-1.1,2-1.7
	c0.6-0.5,1.3-1,1.9-1.5l0,0C-171.9,351-164.1,347-155.1,344z M-194.6,402.2c-0.2,0.3-0.4,0.7-0.6,1c-0.1,0.2-0.3,0.3-0.4,0.5
	c-0.2,0.2-0.4,0.5-0.5,0.7c-0.3,0.4-0.7,0.7-1.1,1c-0.3,0.3-0.7,0.5-1.1,0.7c-0.1,0.1-0.3,0.2-0.4,0.2c0,0-0.1,0-0.1,0
	c-0.4,0.2-0.8,0.4-1.2,0.6c-0.1,0-0.2,0.1-0.3,0.1c-0.4,0.2-0.9,0.3-1.4,0.4c-0.1,0-0.3,0.1-0.4,0.1c-0.4,0.1-0.9,0.2-1.4,0.2
	c-0.1,0-0.2,0-0.3,0c-0.5,0-1,0-1.6,0c-0.1,0-0.1,0-0.2,0c-0.6,0-1.2-0.1-1.8-0.3c-0.3-0.1-0.7-0.2-1-0.3c-0.2-0.1-0.4-0.1-0.6-0.2
	c-0.2-0.1-0.4-0.1-0.6-0.2c0,0,0,0,0,0s0,0,0,0l0,0c-0.6-0.3-1.1-0.6-1.6-0.9c0,0-0.1-0.1-0.1-0.1c-0.5-0.3-1-0.7-1.4-1.1
	c-0.1-0.1-0.1-0.1-0.2-0.2c-0.9-0.9-1.7-1.9-2.3-3c0,0,0,0,0,0c-0.2-0.3-0.3-0.7-0.5-1c0,0,0,0,0,0l0,0c0-0.1-0.1-0.2-0.1-0.3
	c0,0,0,0,0,0c-0.2-0.5-0.3-1.1-0.4-1.6c0-0.1,0-0.2-0.1-0.3c-0.2-1.1-0.2-2.3,0-3.5c0,0,0-0.1,0-0.1c0.1-0.6,0.3-1.2,0.5-1.7l0,0
	c0,0,0,0,0-0.1c0.2-0.5,0.4-1,0.7-1.4c0.1-0.1,0.1-0.3,0.2-0.4c0.3-0.5,0.7-1,1.1-1.4c0.2-0.2,0.4-0.4,0.6-0.6
	c0.2-0.2,0.5-0.4,0.7-0.6c0.2-0.2,0.5-0.3,0.7-0.5c0.3-0.2,0.6-0.4,0.9-0.5c0.2-0.1,0.4-0.2,0.7-0.3c0.4-0.2,0.8-0.4,1.3-0.5
	c0.3-0.1,0.7-0.2,1-0.3c0,0,0,0,0,0c2.4-0.6,5.1-0.5,7.4,0.3l0,0c0,0,0,0,0,0c2.2,0.7,4,2,5.3,3.6c0.1,0.1,0.2,0.2,0.3,0.4
	c0.1,0.2,0.3,0.4,0.4,0.6c0.1,0.2,0.2,0.5,0.4,0.7c0.1,0.1,0.1,0.2,0.2,0.3c0,0,0,0,0,0c0,0.1,0.1,0.2,0.1,0.3
	c0.2,0.4,0.3,0.8,0.4,1.3c0.1,0.6,0.2,1.1,0.3,1.7c0,0.2,0,0.4,0,0.6c0,0.4,0,0.8,0,1.2c0,0.2,0,0.4-0.1,0.6
	c-0.1,0.4-0.1,0.9-0.3,1.3c0,0.1-0.1,0.3-0.1,0.4c-0.1,0.5-0.3,0.9-0.5,1.3c-0.1,0.3-0.3,0.6-0.4,0.9
	C-194.5,402-194.6,402.1-194.6,402.2z M-217.6,391.2c0.1,0,0.2,0,0.3,0.1c0.1,0,0.2,0.1,0.4,0.1c0,0.1,0,0.1-0.1,0.2
	c-0.1-0.1-0.3-0.2-0.4-0.2C-217.4,391.3-217.5,391.3-217.6,391.2z M-184.2,327.9c0.5-0.5,1.4-1.3,2-1c0.3,0.2,0.6,0.7,0.7,1.2
	c2.9,8.5,3.5,17.8,1.7,26.8c-0.6,0.5-1.2,0.9-1.8,1.4c-0.7,0.5-1.3,1.1-2,1.6c-0.3,0.3-0.7,0.6-1,0.9c-0.9,0.8-1.8,1.6-2.6,2.5
	c-0.8,0.8-1.6,1.7-2.4,2.6c-0.2,0.3-0.5,0.6-0.7,0.9c-0.5,0.7-1.1,1.3-1.6,2c-0.1,0.2-0.3,0.3-0.4,0.5c0.1-0.3,0.1-0.6,0.2-0.9
	c0.1-0.5,0.2-1,0.3-1.5c0.2-1,0.4-2,0.5-2.9c0.6-3.6,1.3-9.1,0.3-14.4c-0.2-0.8-0.4-1.7-0.6-2.5c-0.1-0.3-0.2-0.6-0.3-0.9
	c-0.2-0.5-0.3-1.1-0.5-1.6c-0.1-0.3-0.2-0.6-0.3-0.9c-0.2-0.6-0.4-1.2-0.7-1.8c0-0.1-0.1-0.2-0.1-0.4
	C-190.5,335.1-187.5,331.2-184.2,327.9z M-208.8,336.3c1.2-2.9,2.6-6.1,4.4-10c1.3-2.7,1.9-3,2.1-3c0.1,0,0.6,0,1.3,1.8l5.1,12.4
	c0.3,0.8,0.6,1.5,0.9,2.3v0c0.1,0.2,0.2,0.5,0.3,0.7c0.2,0.6,0.4,1.1,0.6,1.7c0.1,0.2,0.2,0.5,0.3,0.7c0.2,0.6,0.4,1.2,0.6,1.8
	c0.1,0.2,0.1,0.4,0.2,0.7c0.2,0.8,0.4,1.6,0.6,2.5c0.9,5.1,0.3,10.4-0.3,13.9c-0.2,1.5-0.5,3-0.9,4.5c0,0.2-0.1,0.4-0.1,0.6
	c-0.3,1.5-0.7,3-1.2,4.5c0,0,0,0,0,0c-0.3,1.2-0.7,2.3-1.1,3.5c0,0.1-0.1,0.3-0.1,0.4c-0.3,1-0.7,2-1.1,2.9
	c-0.1,0.2-0.2,0.4-0.3,0.6c-0.4,0.9-0.8,1.8-1.2,2.7c-0.1,0.2-0.2,0.4-0.3,0.6c-0.5,1-1,2-1.5,2.9c-0.6-0.2-1.1-0.3-1.7-0.4
	c-1.9-0.3-3.8-0.2-5.6,0.1c-0.6-0.8-1.1-1.6-1.6-2.4c-0.2-0.4-0.4-0.7-0.6-1.1c-0.3-0.6-0.6-1.2-0.9-1.8c-0.1-0.3-0.3-0.6-0.4-0.9
	c-0.4-0.9-0.8-1.9-1.1-2.9c-0.1-0.2-0.1-0.5-0.2-0.7c-0.3-0.8-0.5-1.7-0.7-2.5c-0.1-0.3-0.1-0.5-0.2-0.8c-0.2-1-0.4-1.9-0.5-2.9
	c0-0.3-0.1-0.7-0.1-1c-0.1-1-0.2-2-0.3-3c0-0.3,0-0.6,0-0.9c0-1.1-0.1-2.1,0-3.2c0-0.2,0-0.4,0-0.5c0-1.2,0.1-2.4,0.3-3.6
	c0.1-0.7,0.2-1.5,0.3-2.3c0.3-2.2,0.8-4.5,1.5-7c0,0,0,0,0,0C-211.5,343.6-210.4,340-208.8,336.3z M-233.8,349.4
	c-0.9-6.1-1.1-12.6-0.7-19.1c0-0.5,0.1-0.9,0.3-1.1c0.4-0.5,1.6,0,2.5,0.8c6,4.9,12.7,10.4,17.6,17.1c0,0,0,0.1,0,0.1
	c-0.2,0.7-0.4,1.5-0.5,2.2c0,0.1,0,0.2-0.1,0.3c-0.1,0.7-0.3,1.3-0.4,2c-0.1,0.3-0.1,0.6-0.1,0.8c-0.1,0.5-0.2,1-0.2,1.4
	c-0.1,0.8-0.2,1.5-0.3,2.3c-0.1,1-0.2,1.9-0.2,2.8c0,0.2,0,0.4,0,0.5c-0.1,2-0.1,3.9,0.1,5.8c0,0.1,0,0.1,0,0.2c0.1,1,0.2,2,0.3,2.9
	c-0.1-0.1-0.1-0.2-0.2-0.3c-0.5-0.8-1-1.6-1.5-2.4c-0.1-0.2-0.3-0.4-0.4-0.7c-0.6-1-1.3-2-2-2.9c-2.2-3-5.5-7.3-10-10.4
	c-0.7-0.5-1.4-0.9-2.2-1.4c-0.2-0.1-0.4-0.2-0.5-0.3C-232.8,349.9-233.3,349.7-233.8,349.4z M-254.3,346.4c-1-2.8-0.7-3.5-0.6-3.6
	c0,0,0.1-0.1,0.4-0.1c0.3,0,0.9,0.1,1.8,0.5l12.3,5.1c2.4,1,4.8,2,7.1,3.2c0.2,0.1,0.4,0.2,0.5,0.3c0.7,0.4,1.5,0.9,2.2,1.3
	c3.3,2.3,6.3,5.4,9.6,10c2.4,3.3,4.5,6.8,6.4,10.5c0,0.1,0.1,0.2,0.1,0.2c0.2,0.8,0.4,1.5,0.7,2.3c0,0.1,0.1,0.2,0.1,0.3
	c0.2,0.7,0.5,1.4,0.8,2c0.1,0.2,0.1,0.3,0.2,0.5c0.7,1.5,1.4,3,2.2,4.4c0.2,0.6,0.4,1.3,0.6,1.9c-1.2,0.4-2.3,1-3.3,1.8
	c-0.1,0.1-0.2,0.1-0.3,0.2c-0.3,0.3-0.6,0.5-0.9,0.8c-0.2,0.2-0.4,0.3-0.6,0.5c-0.2,0.2-0.4,0.5-0.6,0.8c-0.2,0.2-0.3,0.4-0.5,0.6
	c-0.3-0.1-0.6-0.1-0.9-0.2c-0.1,0-0.3-0.1-0.4-0.1c-0.4-0.1-0.8-0.2-1.3-0.3c-0.1,0-0.3-0.1-0.4-0.1c-0.4-0.1-0.8-0.2-1.2-0.4
	c-0.1,0-0.3-0.1-0.4-0.1c-0.4-0.1-0.8-0.3-1.2-0.4c-0.2-0.1-0.3-0.1-0.5-0.2c-0.4-0.2-0.8-0.3-1.1-0.5c-0.2-0.1-0.3-0.1-0.5-0.2
	c-0.4-0.2-0.7-0.4-1.1-0.5c-0.2-0.1-0.3-0.2-0.5-0.2c-0.4-0.2-0.7-0.4-1.1-0.6c-0.2-0.1-0.3-0.2-0.5-0.3c-0.4-0.2-0.7-0.4-1-0.6
	c-0.2-0.1-0.3-0.2-0.5-0.3c-0.3-0.2-0.7-0.5-1-0.7c-0.2-0.1-0.3-0.2-0.5-0.3c-0.3-0.2-0.7-0.5-1-0.7c-0.2-0.1-0.3-0.2-0.5-0.4
	c-0.3-0.3-0.7-0.5-1-0.8c-0.2-0.1-0.3-0.3-0.5-0.4c-0.3-0.3-0.6-0.5-1-0.8c-0.2-0.1-0.3-0.3-0.5-0.4c-0.3-0.3-0.6-0.6-0.9-0.9
	c-0.1-0.1-0.3-0.3-0.5-0.4c-0.3-0.3-0.6-0.7-1-1c-0.1-0.1-0.3-0.3-0.4-0.4c-0.3-0.4-0.7-0.7-1-1.1c-0.1-0.1-0.2-0.2-0.3-0.3
	c-0.4-0.5-0.9-1-1.3-1.5c-0.4-0.5-0.8-1-1.2-1.6c-0.2-0.2-0.3-0.5-0.5-0.7c-0.2-0.2-0.3-0.5-0.5-0.7c-0.5-0.7-1-1.5-1.5-2.3
	c0,0,0,0,0,0c-2.4-3.7-4.6-7.9-6.6-12.7C-251.6,353.7-252.8,350.5-254.3,346.4z M-259.9,385.9c-4.9-3.3-9.6-7.3-13.9-11.9
	c-0.3-0.3-0.6-0.7-0.7-1c-0.1-0.7,1.1-1.2,2.2-1.3c8.6-1.3,18.3-2.8,27.5-1.3c0,0,0,0,0,0c0.5,0.8,1.1,1.6,1.6,2.4
	c0.1,0.1,0.2,0.2,0.2,0.3c0.6,0.8,1.1,1.6,1.7,2.3c0.5,0.6,1,1.3,1.6,1.9c0.2,0.2,0.3,0.3,0.5,0.5c0.4,0.4,0.8,0.9,1.2,1.3
	c0.2,0.2,0.3,0.3,0.5,0.5c0.6,0.6,1.1,1.1,1.7,1.6c0,0,0,0,0,0c0.6,0.5,1.2,1.1,1.8,1.6c0.2,0.1,0.3,0.3,0.5,0.4
	c0.5,0.4,0.9,0.7,1.4,1.1c0.2,0.1,0.4,0.3,0.5,0.4c0.6,0.4,1.2,0.8,1.8,1.2c0,0,0.1,0,0.1,0.1c0.7,0.4,1.3,0.8,2,1.2
	c0.2,0.1,0.3,0.2,0.5,0.3c0.5,0.3,1,0.6,1.6,0.8c0.1,0.1,0.2,0.1,0.3,0.2c-1.2-0.3-2.4-0.6-3.6-0.8c-0.4-0.1-0.7-0.1-1.1-0.2
	c-0.9-0.2-1.9-0.4-2.9-0.5c-0.4-0.1-0.8-0.1-1.1-0.2c-1.2-0.2-2.4-0.4-3.7-0.5c-0.1,0-0.1,0-0.2,0c-1.3-0.2-2.7-0.3-4-0.4
	c-0.4,0-0.8-0.1-1.1-0.1c-1-0.1-2-0.2-3.1-0.2c-0.4,0-0.7-0.1-1.1-0.1c-1.3-0.1-2.6-0.2-3.9-0.3c-0.9-0.1-1.8-0.1-2.7-0.1
	c-0.1,0-0.3,0-0.4,0c-0.1,0-0.1,0-0.2,0c-0.4,0-0.8,0-1.2,0c-0.2,0-0.5,0-0.7,0c-0.7,0.1-1.3,0.1-2,0.3c-0.4,0.1-0.7,0.2-1.1,0.3
	C-259.4,385.8-259.6,385.8-259.9,385.9C-259.9,385.9-259.9,385.9-259.9,385.9z M-278.2,398l11-6.7c2.4-1.4,4.8-2.9,7.5-3.8
	c0.3-0.1,0.6-0.2,0.9-0.3c0.3-0.1,0.7-0.2,1-0.3c2.3-0.4,4.6-0.4,6.8-0.2c11.7,0.7,23.8,1.7,32.9,6c0.2,0.1,0.3,0.2,0.5,0.3
	c0,0,0,0,0,0.1c-0.2,0.5-0.3,1-0.4,1.6c0,0.1,0,0.2,0,0.3c-0.2,1.1-0.2,2.3,0,3.5c0,0.1,0,0.3,0.1,0.4c0.1,0.4,0.2,0.9,0.3,1.3
	c0,0.1,0,0.2,0.1,0.3c-0.1,0-0.1,0-0.2,0.1c-0.5,0.1-0.9,0.2-1.4,0.3c-0.8,0.2-1.6,0.3-2.3,0.5c-1.7,0.6-3.4,1.3-5.1,2.1
	c-0.9,0.4-1.7,0.8-2.6,1.1c-1.1,0.5-2.3,0.9-3.4,1.3c-0.2,0.1-0.5,0.2-0.7,0.2c-8.8,2.7-18.5,3.1-27.7,1c0,0,0,0-0.1,0
	c-4.2-1-8.2-2.5-12-4.5C-275,401.3-277.1,400-278.2,398z M-259.2,423.2c-3.2,0-6.6,0-11-0.3c-3-0.2-3.5-0.6-3.6-0.9
	c0-0.1-0.2-0.5,1.2-1.9l9.4-9.5c0.7-0.7,1.5-1.5,2.2-2.2c3.9,0.9,8,1.4,12,1.4c5.5,0,11-0.8,16.2-2.5c0.2-0.1,0.4-0.1,0.6-0.2
	c1.2-0.4,2.3-0.8,3.5-1.3c0.9-0.4,1.7-0.8,2.6-1.1c1.6-0.7,3.2-1.5,4.9-2c0.3-0.1,0.6-0.2,0.9-0.2c0.1,0,0.2,0,0.3-0.1
	c0.1,0,0.2,0,0.3-0.1c0,0-0.1,0-0.1,0.1c-1.1,0.5-2.1,1-3.2,1.5c0,0-0.1,0-0.1,0c-1,0.5-2.1,1.1-3.1,1.8c-0.1,0.1-0.2,0.1-0.3,0.2
	c-1,0.6-2,1.3-3,1.9c-0.1,0.1-0.3,0.2-0.4,0.3c-1,0.7-1.9,1.4-2.9,2.1c-0.1,0.1-0.3,0.2-0.4,0.3c-1,0.7-1.9,1.4-2.8,2.2
	c-0.1,0.1-0.3,0.2-0.4,0.3c-0.9,0.8-1.9,1.5-2.8,2.3c-0.1,0.1-0.3,0.2-0.4,0.3c-1,0.8-1.9,1.6-2.8,2.4c-0.1,0.1-0.2,0.2-0.3,0.2
	c-1,0.9-1.9,1.7-2.9,2.6c-0.5,0.4-0.9,0.8-1.4,1.3C-250.6,422.8-254.7,423.1-259.2,423.2z M-248.9,448.7c-2,0.6-4.6,1.3-6.9,0.6
	l3.1-12.5c0.8-3.4,1.7-6.8,3.6-9.7c0.9-1.3,2-2.5,3.1-3.6c0.5-0.5,1-1,1.5-1.4c8.7-7.8,18.1-15.6,27.5-19.1c0.2-0.1,0.4-0.1,0.6-0.1
	c0.3,0.5,0.6,1,1,1.5c0,0,0.1,0.1,0.1,0.1c0.3,0.4,0.7,0.8,1,1.1c0.1,0.1,0.2,0.2,0.3,0.3c0.4,0.3,0.8,0.7,1.2,1
	c0,0,0.1,0.1,0.1,0.1c0.5,0.3,1,0.6,1.5,0.9c0,0,0,0,0.1,0c0,0.1-0.1,0.1-0.1,0.2c-0.3,0.4-0.6,0.9-0.8,1.3c-0.5,0.7-0.9,1.4-1.2,2
	c-0.8,1.6-1.5,3.4-2.1,5c-0.3,0.9-0.7,1.8-1,2.6c-0.4,1-0.9,2.1-1.4,3.1c-0.1,0.2-0.2,0.4-0.3,0.5c-0.5,0.9-1,1.9-1.5,2.8
	c0,0,0,0.1-0.1,0.1c-3.8,6.3-8.9,11.8-15,16.1c0,0,0,0-0.1,0.1C-239.1,444.8-243.8,447.1-248.9,448.7z M-221.5,454.6
	c-2.1,2.4-4.4,4.9-7.5,8c-2.1,2.1-2.8,2.1-3,2.1c-0.1,0-0.5-0.2-0.6-2.1l-0.7-13.3c-0.1-1.9-0.2-4.1-0.2-6.4
	c6.1-4.3,11.3-10,15.2-16.4c0-0.1,0.1-0.1,0.1-0.2c0.5-0.9,1-1.8,1.5-2.8c0.1-0.2,0.2-0.4,0.3-0.6c0.5-1,1-2.1,1.4-3.1
	c0.4-0.9,0.7-1.8,1-2.7c0.6-1.6,1.3-3.3,2.1-4.9c0.3-0.5,0.7-1.2,1.1-1.8c0.3-0.5,0.6-1,0.9-1.5c0.1-0.1,0.1-0.2,0.2-0.3
	c0.1,0,0.3,0.1,0.4,0.1c0.1,0,0.3,0.1,0.4,0.1c-3.3,5.2-5.7,11.1-7,17.2c0,0.1,0,0.2-0.1,0.3c-0.2,1.1-0.4,2.2-0.6,3.3
	c-0.1,0.4-0.1,0.9-0.1,1.3c-0.1,0.8-0.2,1.6-0.3,2.4c-0.1,1.2-0.1,2.4-0.1,3.7c0,0,0,0,0,0.1c0,0,0,0,0,0l0,0c0,0,0,0,0,0
	c0,0.8,0,1.7,0.1,2.5c0,0.2,0,0.4,0,0.6c0,0.7,0.1,1.4,0.2,2c0,0.2,0,0.3,0.1,0.5c0.1,0.8,0.2,1.5,0.3,2.3c0,0.1,0,0.1,0,0.2
	c0.1,0.9,0.3,1.7,0.5,2.6C-217.6,450-219.4,452.3-221.5,454.6z M-201.7,468.1c-0.3,0.6-0.9,1.7-1.6,1.6c-0.4,0-0.8-0.5-1.1-0.9
	c-4.9-6.2-8.3-13.4-9.9-21.1c0,0,0,0,0-0.1c-0.4-1.7-0.6-3.4-0.8-5.1c0-0.1,0-0.3,0-0.4c-0.1-0.7-0.1-1.4-0.2-2.1c0-0.2,0-0.4,0-0.6
	c0-0.8-0.1-1.7-0.1-2.5c0-1.2,0-2.5,0.1-3.7c0,0,0,0,0,0c0.7-8.5,3.5-16.9,8.2-24.1c0.6,0.1,1.1,0.2,1.7,0.2c0,0,0,0,0,0
	c0.2,0,0.4,0,0.7,0c0.9,0,1.8-0.1,2.6-0.3c0.1,0,0.2,0,0.4-0.1c0.5-0.1,0.9-0.2,1.4-0.4c0,0,0.1,0,0.1,0c0.5,1.3,1,2.6,1.4,3.9
	c0,0,0,0,0,0c0.5,1.5,0.9,2.9,1.3,4.4c0.1,0.2,0.1,0.5,0.2,0.7c0.3,1.4,0.6,2.8,0.9,4.2c0,0.1,0,0.2,0.1,0.4
	c1.5,8.2,1.7,16.9,0.6,25.4c0,0,0,0,0,0C-196.8,455-198.8,462-201.7,468.1z M-173.5,457c-0.2,2.3-0.6,4.8-2.1,6.6l-10.4-7.6
	c-2.8-2-5.7-4.2-7.6-7.1c-0.3-0.4-0.5-0.8-0.7-1.2c0.8-6.3,0.9-12.7,0.3-19.1c0-0.1,0-0.2,0-0.4c-0.1-1.1-0.3-2.2-0.4-3.3
	c0-0.2-0.1-0.5-0.1-0.7c-0.2-1-0.3-2-0.5-2.9c-0.1-0.3-0.1-0.7-0.2-1c-0.2-0.9-0.4-1.8-0.6-2.7c0-0.2-0.1-0.3-0.1-0.5
	c0,0,0,0.1,0.1,0.1c0.2,0.6,0.5,1.1,0.8,1.7c0.2,0.5,0.4,0.9,0.7,1.4c0.3,0.6,0.6,1.3,1,1.9c0.4,0.7,0.8,1.3,1.2,2
	c0.2,0.4,0.5,0.7,0.7,1.1c0.5,0.7,0.9,1.4,1.4,2.1c0.1,0.2,0.3,0.4,0.4,0.6c0.6,0.9,1.3,1.7,2,2.5c0.2,0.2,0.4,0.5,0.6,0.7
	c0.7,0.8,1.5,1.7,2.3,2.4c0.7,0.7,1.4,1.4,2.2,2c0.1,0.1,0.3,0.3,0.4,0.4c2.4,2.1,5,4,7.8,5.7C-173.3,446.9-173,452-173.5,457z
	 M-152,447.1c-0.3,0.2-0.9,0.2-1.4,0.1c-7-0.8-13.8-3.1-19.9-6.6c0,0,0,0,0,0c-2.8-1.6-5.4-3.5-7.8-5.6c-0.1-0.1-0.3-0.2-0.4-0.4
	c-0.7-0.7-1.5-1.3-2.2-2c-0.9-0.9-1.7-1.8-2.5-2.7c0,0-0.1-0.1-0.1-0.1c-5.4-6.4-9.3-14.2-11.1-22.4c0.4-0.2,0.8-0.5,1.2-0.8
	c0.4-0.3,0.8-0.7,1.2-1.1c0.1-0.1,0.2-0.2,0.3-0.4c0.3-0.3,0.5-0.6,0.8-1c0.1-0.1,0.2-0.3,0.3-0.4c0.2-0.3,0.4-0.7,0.6-1.1
	c0.6,0.3,1.2,0.6,1.8,0.8c0.1,0,0.2,0.1,0.2,0.1c0.9,0.4,1.7,0.7,2.5,1c0.3,0.1,0.5,0.2,0.8,0.3c0.7,0.3,1.3,0.5,1.9,0.7
	c0.2,0.1,0.4,0.1,0.6,0.2c1.9,1.1,3.7,2.3,5.5,3.6c0.4,0.3,0.7,0.6,1.1,0.8c0.5,0.3,0.9,0.7,1.4,1c0.7,0.6,1.5,1.2,2.2,1.8
	c0.1,0.1,0.2,0.1,0.2,0.2c3.3,2.8,6.4,5.8,9.3,9.1c0,0,0,0,0,0c6,6.9,10.6,14.6,13.4,22.4C-151.8,445.5-151.5,446.7-152,447.1z
	 M-139,413.6c1.5,1.7,3.1,3.7,3.5,5.9l-12.6,2.6c-3.4,0.7-6.9,1.4-10.3,0.9c-1.9-0.3-3.8-0.9-6-1.9c0,0,0,0,0,0
	c-2.2-2.5-4.5-4.9-7-7.1c-0.1-0.1-0.2-0.2-0.3-0.2c-1.1-1-2.2-1.9-3.4-2.9c-0.2-0.1-0.3-0.3-0.5-0.4c-1.2-0.9-2.3-1.8-3.5-2.7
	c-0.1-0.1-0.2-0.2-0.3-0.2c0.1,0,0.2,0.1,0.3,0.1c1.2,0.3,2.4,0.7,3.6,0.9c0.1,0,0.3,0.1,0.4,0.1c1.1,0.2,2.2,0.4,3.3,0.6
	c0.1,0,0.2,0,0.4,0.1c1.1,0.2,2.1,0.3,3.2,0.3c0.2,0,0.4,0,0.6,0c0.8,0,1.5,0.1,2.3,0.1c0.3,0,0.7,0,1,0c0.7,0,1.4-0.1,2.1-0.1
	c0.3,0,0.6-0.1,0.9-0.1c0.4,0,0.7-0.1,1.1-0.1c0.4-0.1,0.9-0.1,1.3-0.2c0.2,0,0.4-0.1,0.7-0.1c0.6-0.1,1.2-0.2,1.7-0.4
	c0.1,0,0.2,0,0.3-0.1c2.9-0.7,5.8-1.6,8.6-2.7C-144.5,408.3-141.5,410.8-139,413.6z M-133.3,397.4c-4.6,2.5-9.5,5.1-14.6,7.1
	c0,0,0,0,0,0c-3,1.2-5.8,2.1-8.6,2.8c-0.1,0-0.2,0-0.3,0.1c-0.6,0.1-1.1,0.2-1.7,0.3c-0.2,0-0.5,0.1-0.7,0.1
	c-0.4,0.1-0.8,0.1-1.2,0.2c-0.4,0.1-0.8,0.1-1.1,0.1c-0.3,0-0.6,0.1-0.9,0.1c-0.7,0.1-1.3,0.1-2,0.1c-5.3,0.1-10.9-0.8-17.7-3.1
	c-0.8-0.3-1.6-0.6-2.5-0.8c0,0,0,0,0,0c0,0,0,0,0,0c0,0,0,0,0,0c-0.2-0.1-0.3-0.1-0.5-0.2c-0.6-0.2-1.2-0.4-1.7-0.6
	c-0.3-0.1-0.6-0.2-0.8-0.3c-0.5-0.2-1.1-0.4-1.6-0.6c-0.3-0.1-0.5-0.2-0.8-0.3c-0.7-0.3-1.4-0.6-2.1-1c-0.1,0-0.1-0.1-0.2-0.1
	c0,0,0-0.1,0-0.1c0,0,0,0,0,0c0,0,0,0,0,0c0,0,0,0,0,0c0,0,0-0.1,0-0.1c0.1-0.4,0.3-0.8,0.4-1.2c0.1-0.2,0.1-0.5,0.2-0.7
	c0.1-0.4,0.1-0.7,0.2-1.1c0-0.3,0.1-0.6,0.1-0.8c0-0.4,0-0.8,0-1.1c0-0.2,0-0.5,0-0.7c-0.1-0.6-0.2-1.2-0.3-1.8
	c-0.1-0.4-0.3-0.9-0.4-1.3c0.3-0.2,0.6-0.3,0.9-0.5c0.5-0.2,0.9-0.5,1.4-0.7c0.6-0.3,1.2-0.6,1.8-0.8c0.2-0.1,0.4-0.2,0.6-0.3
	c1.5-0.6,3-1.1,4.5-1.6c0.1,0,0.2,0.1,0.3,0.1c0.1,0,0.1,0,0.2,0c4.9-1.4,9.9-2.2,15-2.3c4.3-0.1,8.8,0.4,13.3,1.3
	c0.2,0,0.4,0,0.6-0.1c6.9,1.4,13.9,3.9,21,7.5c0.4,0.2,0.8,0.4,0.9,0.7C-131.3,396-132.3,396.9-133.3,397.4z"/>
</svg>
