<?xml version="1.0" encoding="utf-8"?>
<!-- Generator: Adobe Illustrator 19.0.0, SVG Export Plug-In . SVG Version: 6.00 Build 0)  -->
<svg version="1.1" id="Camada_1" xmlns="http://www.w3.org/2000/svg" xmlns:xlink="http://www.w3.org/1999/xlink" x="0px" y="0px"
	 viewBox="132 322 150 150" style="enable-background:new 132 322 150 150;" xml:space="preserve">
<g>
	<path d="M277.2,428.4v-91.9h-60.5V322h-19.4v14.5h-60.5v91.9h60.5v24.2h-38.7V472H178v-4.8h19.3v4.8h19.4v-4.8H236v4.8h19.3v-19.4
		h-38.7v-24.2H277.2z M202.2,326.8h9.7v9.7h-9.7L202.2,326.8L202.2,326.8z M141.7,341.3h130.7v82.3H141.7V341.3z M250.6,457.5v9.7
		h-9.7v-4.8h-29v4.8h-9.7v-4.8h-29v4.8h-9.7v-9.7h38.7v-29h9.7v29H250.6z"/>
</g>
</svg>
