<?xml version="1.0" encoding="utf-8"?>
<!-- Generator: Adobe Illustrator 19.0.0, SVG Export Plug-In . SVG Version: 6.00 Build 0)  -->
<svg version="1.1" id="Camada_1" xmlns="http://www.w3.org/2000/svg" xmlns:xlink="http://www.w3.org/1999/xlink" x="0px" y="0px"
	 viewBox="-356 322 150 150" style="enable-background:new -356 322 150 150;" xml:space="preserve">
<g>
	<g>
		<path d="M-234.1,328.3h9.4v9.4c0,1.7,1.4,3.1,3.1,3.1s3.1-1.4,3.1-3.1v-12.5c0-1.7-1.4-3.1-3.1-3.1h-12.5c-1.7,0-3.1,1.4-3.1,3.1
			S-235.8,328.3-234.1,328.3z M-340.4,340.8c1.7,0,3.1-1.4,3.1-3.1v-9.4h9.4c1.7,0,3.1-1.4,3.1-3.1s-1.4-3.1-3.1-3.1h-12.5
			c-1.7,0-3.1,1.4-3.1,3.1v12.5C-343.5,339.4-342.1,340.8-340.4,340.8z M-234.1,428.3h12.5c1.7,0,3.1-1.4,3.1-3.1v-12.5
			c0-1.7-1.4-3.1-3.1-3.1s-3.1,1.4-3.1,3.1v9.4h-9.4c-1.7,0-3.1,1.4-3.1,3.1S-235.8,428.3-234.1,428.3z M-340.4,428.3h12.5
			c1.7,0,3.1-1.4,3.1-3.1s-1.4-3.1-3.1-3.1h-9.4v-9.4c0-1.7-1.4-3.1-3.1-3.1s-3.1,1.4-3.1,3.1v12.5
			C-343.5,426.9-342.1,428.3-340.4,428.3z M-232.6,434.8l-23.9-6l-2-8.1c6.4-6.3,10.8-15.1,12.1-24c3.6-1,6.3-4.1,6.8-7.9l1.6-12.5
			c0.3-2.6-0.5-5.3-2.2-7.3c-1-1.2-2.3-2.1-3.8-2.6l0.6-11.8l2.3-2.3c3.5-3.7,6.4-10.2,0.3-19.5c-4.7-7.2-12.6-10.8-23.7-10.8
			c-4.3,0-14.4,0-23.7,6.3c-26.6,0.6-30.3,12.9-30.3,25c0,2.8,0.7,9.1,1.1,12.9c-1.6,0.5-3.1,1.4-4.2,2.7c-1.8,2-2.6,4.7-2.3,7.4
			l1.6,12.5c0.5,4.1,3.6,7.3,7.5,8c1.3,8.6,5.5,17,11.5,23.3l-2.2,8.7l-23.9,6c-15.7,3.9-26.6,17.9-26.6,34.1c0,0.8,0.3,1.6,0.9,2.2
			c0.6,0.6,1.4,0.9,2.2,0.9l143.8,0c1.7,0,3.1-1.4,3.1-3.1C-206,452.7-216.9,438.7-232.6,434.8z M-349.6,465.7
			c1.3-11.9,9.9-21.9,21.7-24.9l25.8-6.4c1.1-0.3,2-1.1,2.3-2.3l3.1-12.3c0.3-1.1-0.1-2.3-0.9-3c-6.3-5.9-10.5-14.6-11.2-23.2
			c-0.1-1.6-1.5-2.9-3.1-2.9h-1c-1.6,0-2.9-1.2-3.1-2.7l-1.6-12.5c-0.1-0.9,0.2-1.8,0.8-2.5c0.6-0.7,1.4-1.1,2.3-1.1h0.6
			c0.9,0,1.8-0.4,2.3-1c0.6-0.7,0.9-1.6,0.8-2.5c-0.4-3.2-1.5-12.2-1.5-15.2c0-9.8,1.9-18.5,25-18.8c0.6,0,1.3-0.2,1.8-0.6
			c7-5,14.5-5.7,20.9-5.7c8.8,0,15,2.7,18.4,8c4.1,6.3,2.4,9.6,0.4,11.7l-3.1,3.1c-0.6,0.5-0.9,1.3-0.9,2.1l-0.8,15.6
			c0,0.8,0.3,1.7,0.8,2.3c0.6,0.6,1.4,1,2.2,1c0.9,0,1.7,0.4,2.3,1.1c0.6,0.7,0.9,1.5,0.7,2.4l-1.6,12.5c-0.2,1.6-1.5,2.7-3.4,2.7
			c-1.6,0-3,1.3-3.1,2.9c-0.7,8.9-5.1,17.7-11.7,23.7c-0.9,0.8-1.2,2-0.9,3.1l2.9,11.7c0.3,1.1,1.2,2,2.3,2.3l25.8,6.4
			c11.9,3,20.4,13,21.7,24.9L-349.6,465.7z"/>
	</g>
</g>
</svg>
