<?xml version="1.0" encoding="utf-8"?>
<!-- Generator: Adobe Illustrator 19.0.0, SVG Export Plug-In . SVG Version: 6.00 Build 0)  -->
<svg version="1.1" id="Camada_1" xmlns="http://www.w3.org/2000/svg" xmlns:xlink="http://www.w3.org/1999/xlink" x="0px" y="0px"
	 viewBox="-280 321.5 150 150" style="enable-background:new -280 321.5 150 150;" xml:space="preserve">
<g>
	<path d="M-130.4,357.9l-54.8-31.6c-0.4-0.2-0.9-0.1-1.2,0.3l-19,32.9l-18.8-32.6c-0.2-0.4-0.7-0.5-1.2-0.3l-53.6,31
		c-0.4,0.2-0.5,0.7-0.3,1.2l18.4,31.8l-17.8-10.3c-0.4-0.2-0.9-0.1-1.2,0.3s-0.1,0.9,0.3,1.2l18.9,10.9v41.7c0,0,0,0.1,0,0.1
		c0,0.1,0,0.1,0,0.2c0,0.1,0,0.1,0.1,0.1c0,0,0.1,0.1,0.1,0.1c0,0,0.1,0.1,0.1,0.1c0,0,0,0,0.1,0.1l54.8,31.6c0,0,0,0,0,0
		c0,0,0,0,0,0c0.1,0.1,0.2,0.1,0.4,0.1h0l0,0l0,0l0,0l0,0h0c0.1,0,0.3,0,0.4-0.1c0,0,0,0,0,0c0,0,0,0,0,0l54.8-31.6c0,0,0,0,0.1-0.1
		c0,0,0.1-0.1,0.1-0.1c0,0,0.1-0.1,0.1-0.1c0,0,0.1-0.1,0.1-0.1c0-0.1,0-0.1,0-0.2c0,0,0-0.1,0-0.1v-41.7l18.4-10.6
		c0.4-0.2,0.5-0.7,0.3-1.2s-0.7-0.5-1.2-0.3l-16.1,9.3l17.8-30.8C-129.9,358.7-130,358.1-130.4,357.9z M-151.1,433.9l-53.1,30.7
		v-40.2l17.8-10.3c0,0,0,0,0,0l0,0l35.3-20.4C-151.1,393.6-151.1,433.9-151.1,433.9z M-225.2,328.5l18.5,32.1l-52.2,30.1l-18.5-32.1
		L-225.2,328.5z M-205.8,402.2l-17.4,10.1l-34.8-20.1l52.3-30.2V402.2z M-205,422.8l-16.6-9.6l16.6-9.6l16.6,9.6L-205,422.8z
		 M-203.8,360.2l18.5-32.1l53.3,30.8l-18.5,32.1L-203.8,360.2z"/>
</g>
</svg>
