<?xml version="1.0" encoding="utf-8"?>
<!-- Generator: Adobe Illustrator 19.0.0, SVG Export Plug-In . SVG Version: 6.00 Build 0)  -->
<svg version="1.1" id="Camada_1" xmlns="http://www.w3.org/2000/svg" xmlns:xlink="http://www.w3.org/1999/xlink" x="0px" y="0px"
	 viewBox="-350 322.3 150 150" style="enable-background:new -350 322.3 150 150;" xml:space="preserve">
<g>
	<path d="M-309.7,330.8c-14.3,7.5-25.8,19.4-32.8,33.9c30-6.3,49-13.8,61.1-20.7C-292.9,335.9-302.7,332.3-309.7,330.8z"/>
	<path d="M-261.2,323.6c-4.5-0.8-9.1-1.3-13.8-1.3c-9.5,0-18.5,1.8-26.9,5c7.1,2.3,15.8,6.4,25.4,13.6
		C-265.6,333.6-262.2,327.2-261.2,323.6z"/>
	<path d="M-243.1,376.7c13.7-7.3,22.8-10,30.4-4c2.8,2.2,7.3,6.9,11.5,11.5c-2.5-14.4-9.1-27.3-18.6-37.6
		c-12.8,4.3-24.3,9.5-34.6,15.4C-250.2,366.9-246.4,371.8-243.1,376.7z"/>
	<path d="M-262.7,360.7c-4.9-5.2-9.6-9.6-14.1-13.2c-13.2,8-34.3,16.4-68.2,23.2c-3.1,8.3-4.9,17.2-4.9,26.5
		c0,16.2,5.2,31.1,13.9,43.4C-326.8,421.7-305.1,386.5-262.7,360.7z"/>
	<path d="M-272.2,344.4c4.6,3.8,9.3,8.2,14.1,13.5c10.2-5.8,21.6-11,34.1-15.4c-8.9-8.3-19.8-14.4-32-17.6
		C-257.2,329.4-261,336.6-272.2,344.4z"/>
	<path d="M-247.8,379.4c-3.3-4.9-7.1-9.7-11.3-14.6c-43.8,26.4-65.1,63-73.4,80.7c11.7,14,28.5,23.6,47.5,26.1
		c4.8-11.2,12.1-30,12.3-41.8C-272.3,412-263.7,389.5-247.8,379.4z"/>
	<path d="M-200.2,393.3c-5-5.6-12.1-13.5-15.9-16.4c-4.7-3.7-11-2.6-24.1,4.3c14.3,22.8,19.4,44.7,22.8,64
		c10.8-13,17.4-29.7,17.4-48C-200,395.9-200.1,394.6-200.2,393.3z"/>
	<path d="M-267.3,429.8c-0.2,12.2-7.1,30.6-12,42.3c1.4,0.1,2.9,0.2,4.3,0.2c20.7,0,39.5-8.4,53.1-22c-3.3-19.8-8-42.6-22.9-66.4
		C-259.2,393-267,413.5-267.3,429.8z"/>
</g>
</svg>
