<?xml version="1.0" encoding="utf-8"?>
<!-- Generator: Adobe Illustrator 19.0.0, SVG Export Plug-In . SVG Version: 6.00 Build 0)  -->
<svg version="1.1" id="Camada_1" xmlns="http://www.w3.org/2000/svg" xmlns:xlink="http://www.w3.org/1999/xlink" x="0px" y="0px"
	 viewBox="-280 321.5 150 150" style="enable-background:new -280 321.5 150 150;" xml:space="preserve">
<style type="text/css">
	.st0{fill:none;stroke:#000000;stroke-width:1.7;stroke-linecap:round;stroke-linejoin:round;stroke-miterlimit:10;}
</style>
<g>
	<path d="M-217.2,410.9c-0.2,0-0.4,0-0.6-0.1c-2.6-1.3-5.1-3.6-7.5-6.2c-0.6-0.6-0.5-1.5,0-2c0.6-0.6,1.5-0.5,2,0
		c1.8,1.9,4.3,4.4,6.7,5.6c0.7,0.3,1,1.2,0.7,1.9C-216.2,410.6-216.7,410.9-217.2,410.9z"/>
	<path d="M-195,410.9c-0.5,0-1-0.3-1.3-0.8c-0.3-0.7,0-1.6,0.7-1.9c2.3-1.1,4.6-3.3,6.9-5.7c0.6-0.6,1.5-0.6,2,0
		c0.6,0.6,0.6,1.5,0,2c-2.5,2.5-5,4.9-7.7,6.2C-194.6,410.8-194.8,410.9-195,410.9z"/>
	<path d="M-221.4,393c-5.9,0-10.2-1.5-13-4.4c-0.5-0.6-0.5-1.5,0-2c0.6-0.5,1.5-0.5,2,0c2.2,2.3,5.9,3.5,10.9,3.5
		c5.3,0,10.1-3.4,11.9-8.4c0.2-0.6,0.7-1,1.4-1h4.1c0.6,0,1.1,0.4,1.4,1c1.8,5,6.6,8.4,11.9,8.4c5.3,0,9.2-1.3,11.3-3.9
		c0.5-0.6,1.4-0.7,2-0.2c0.6,0.5,0.7,1.4,0.2,2c-2.7,3.2-7.2,4.9-13.5,4.9c-6.2,0-11.8-3.7-14.3-9.3h-2.2
		C-209.5,389.3-215.2,393-221.4,393z"/>
	<path d="M-176.8,366h-57.8c-0.8,0-1.4-0.6-1.4-1.4s0.6-1.4,1.4-1.4h57.8c0.8,0,1.4,0.6,1.4,1.4S-176,366-176.8,366z"/>
	<path d="M-236,381.2h-6.7c-0.8,0-1.4-0.6-1.4-1.4v-10.4c0-0.8,0.6-1.4,1.4-1.4h5.5c0.8,0,1.4,0.6,1.4,1.4c0,0.8-0.6,1.4-1.4,1.4h-4
		v7.5h5.3c0.8,0,1.4,0.6,1.4,1.4C-234.6,380.5-235.3,381.2-236,381.2z"/>
	<path d="M-169.1,381.2h-6.7c-0.8,0-1.4-0.6-1.4-1.4c0-0.8,0.6-1.4,1.4-1.4h5.3v-7.5h-4.7c-0.8,0-1.4-0.6-1.4-1.4
		c0-0.8,0.6-1.4,1.4-1.4h6.1c0.8,0,1.4,0.6,1.4,1.4v10.4C-167.6,380.5-168.3,381.2-169.1,381.2z"/>
	<path d="M-205.8,395.6c-4.2,0-9-3.9-9.6-4.3c-0.6-0.5-0.7-1.4-0.2-2c0.5-0.6,1.4-0.7,2-0.2c1.2,1,5,3.7,7.7,3.7c0,0,0.1,0,0.1,0
		c2.6-0.1,6.8-2.7,8.2-3.7c0.6-0.5,1.5-0.3,2,0.3c0.5,0.6,0.3,1.5-0.3,2c-0.6,0.4-5.9,4.2-9.9,4.3
		C-205.7,395.6-205.7,395.6-205.8,395.6z"/>
	<path d="M-211.5,417c-4,0-7-3.2-7-7.4c0-4.1,3.4-7.5,7.5-7.5h10c4.1,0,7.4,3.3,7.4,7.5c0,3.8-2.2,6.6-5.6,7.2
		c-0.8,0.1-1.5-0.4-1.7-1.2c-0.1-0.8,0.4-1.5,1.2-1.7c2-0.4,3.2-2,3.2-4.4c0-2.5-2.1-4.6-4.6-4.6h-10c-2.6,0-4.7,2.1-4.7,4.6
		c0,2.6,1.7,4.6,4.2,4.6c0.8,0,1.4,0.6,1.4,1.4C-210.1,416.3-210.7,417-211.5,417z"/>
	<path d="M-163.6,415.5c-0.1,0-0.1,0-0.2,0c-0.8-0.1-1.4-0.8-1.3-1.6c0-0.1,0.9-8.5-2.8-12.7c-1.4-1.6-3.3-2.4-5.8-2.4h-8.6
		c-0.8,0-1.4-0.6-1.4-1.4c0-0.8,0.6-1.4,1.4-1.4h8.6c3.3,0,6,1.1,7.9,3.3c4.6,5.2,3.6,14.6,3.5,14.9
		C-162.2,415-162.9,415.5-163.6,415.5z"/>
	<path d="M-247.1,415.2C-247.1,415.2-247.1,415.2-247.1,415.2c-0.8,0-1.5-0.7-1.4-1.5c0.2-11.3,4.4-17.8,11.5-17.8h6.8
		c0.8,0,1.4,0.6,1.4,1.4c0,0.8-0.6,1.4-1.4,1.4h-6.8c-7.2,0-8.5,9.4-8.6,15C-245.7,414.6-246.3,415.2-247.1,415.2z"/>
	<path d="M-181.1,443.7c-3.8,0-7.7-0.6-11.4-2.1c-7.8-3-17.7-10.6-20.5-30c0-0.2,0-0.5,0.1-0.7c0.4-2.4,4-3.3,7.1-3.3
		c4.3,0,7,1.4,7,3.8c0,0.7,1.1,18.8,16.9,18.8c0.2,0,0.4,0,0.6,0c18.3-0.5,24.3-12,24.3-15.9c0-0.8,0.6-1.4,1.4-1.4
		c0.8,0,1.4,0.6,1.4,1.4c0,6.3-7.9,18.2-27.1,18.8c-19.1,0.5-20.4-21.4-20.4-21.6c-0.2-0.3-1.5-0.9-3.9-1c-2.5,0-4.2,0.6-4.5,1
		c2.2,14.1,8.6,23.6,18.7,27.4c12.1,4.6,25.7,0,33.3-6.3c5.7-4.7,8.4-10.4,7.4-15.7c-0.1-0.8,0.4-1.5,1.2-1.7
		c0.8-0.1,1.5,0.4,1.7,1.2c1.1,6.3-1.9,13-8.4,18.4C-162.2,439.7-171.5,443.7-181.1,443.7z"/>
	<path d="M-132.5,460.2h-144.9c-0.7,0-1.4-0.3-1.9-0.8c-0.5-0.5-0.7-1.2-0.7-1.9c1-11.6,3.2-31.5,6.5-34.7c1.7-1.7,24.6-11,44.8-19
		c-3.7-4.6-6.3-10.3-7.7-16.3c0-0.1-0.1-0.3-0.1-0.4l-1-20.8c0-21.3,11.5-33.4,31.5-33.4c23.1,0,31.3,17.2,31.3,33.3l-0.9,20.8
		c0,0.2,0,0.3-0.1,0.4c-1.3,6-4.1,11.7-7.8,16.3l24.7,9.7c1-1.7,2.6-3,4.9-3c0.6,0,1.2,0.1,1.8,0.3c2.8,0.8,4.8,2.3,5.9,4.4
		c0.7,1.3,0.9,2.6,0.8,3.6l9.1,3.6c0.3,0.1,0.5,0.3,0.8,0.5c3.7,3.2,4.9,23.3,5.3,35c0,0.7-0.2,1.4-0.7,1.9
		C-131.2,460-131.9,460.2-132.5,460.2z M-274.7,455.2h139.5c-0.5-12.3-1.9-25.7-3.4-28.6l-10.3-4c-1.3-0.5-1.9-1.9-1.5-3.2v0
		c0,0,0.3-1.1-0.2-2.1c-0.4-0.8-1.4-1.4-2.8-1.8c-0.2-0.1-0.3-0.1-0.4-0.1c-0.4,0-0.8,1.1-0.9,1.6c-0.1,0.8-0.6,1.4-1.2,1.8
		c-0.7,0.4-1.5,0.5-2.2,0.2l-30.6-11.9c-0.8-0.3-1.4-1-1.6-1.8c-0.2-0.8,0.1-1.7,0.7-2.3c4.3-4.4,7.5-10.2,8.9-16.5l0.9-20.5
		c0-6.5-1.9-28.1-26.2-28.1c-21.8,0-26.4,15.4-26.4,28.2l1,20.5c1.5,6.3,4.6,12.2,8.8,16.5c0.6,0.6,0.8,1.5,0.7,2.3
		c-0.2,0.8-0.8,1.5-1.5,1.8c-16.5,6.6-43.5,17.5-46.6,19.3C-271.4,428.7-273.5,442.5-274.7,455.2z"/>
	<path d="M-234.9,459c0,0-0.1,0-0.1,0c-0.8-0.1-1.4-0.8-1.3-1.6l3-30.6c0-0.3,0.2-0.7,0.4-0.9l15.4-14.8c0.6-0.6,1.5-0.5,2,0
		c0.6,0.6,0.5,1.5,0,2l-15,14.4l-2.9,30C-233.5,458.5-234.1,459-234.9,459z"/>
	<path d="M-177.1,459c-0.7,0-1.4-0.6-1.4-1.3l-1.5-14.6c-0.1-0.8,0.5-1.5,1.3-1.6c0.8-0.1,1.5,0.5,1.6,1.3l1.5,14.6
		c0.1,0.8-0.5,1.5-1.3,1.6C-177,459-177.1,459-177.1,459z"/>
	<path class="st0" d="M-179.7,430.9"/>
	<path d="M-179.7,432.3c-0.7,0-1.4-0.6-1.4-1.3l-0.3-3.3l-15-14.4c-0.6-0.5-0.6-1.5,0-2c0.5-0.6,1.5-0.6,2,0l15.4,14.8
		c0.2,0.2,0.4,0.6,0.4,0.9l0.4,3.8c0.1,0.8-0.5,1.5-1.3,1.6C-179.6,432.3-179.7,432.3-179.7,432.3z"/>
</g>
</svg>
