<?xml version="1.0" encoding="utf-8"?>
<!-- Generator: Adobe Illustrator 19.0.0, SVG Export Plug-In . SVG Version: 6.00 Build 0)  -->
<svg version="1.1" id="Camada_1" xmlns="http://www.w3.org/2000/svg" xmlns:xlink="http://www.w3.org/1999/xlink" x="0px" y="0px"
	 viewBox="-350 322.3 150 150" style="enable-background:new -350 322.3 150 150;" xml:space="preserve">
<g transform="translate(-150 -80)">
	<g>
		<path d="M-55,467.3h-5v-15h-15v65h5v10h15v15h-5v-10h-15v-10h-5v-105h-5v-10h-45v10h-5v125h-5v-95h-5v-5h-25v5h-5v75h-5v10h-10v10
			h-5v-15h10v-10h5v-55h-15v25h-5v55v5h150v-5v-40h-5V467.3z M-170,457.3h25v5h-25V457.3z M-170,467.3h25v5h-25V467.3z M-170,477.3
			h25v5h-25V477.3z M-170,487.3h25v5h-25V487.3z M-170,497.3h25v5h-25V497.3z M-170,507.3h25v5h-25V507.3z M-170,517.3h25v5h-25
			V517.3z M-170,527.3h25v5h-25V527.3z M-125,537.3h-5v-10h5V537.3z M-125,517.3h-5v-10h5V517.3z M-125,497.3h-5v-10h5V497.3z
			 M-125,477.3h-5v-10h5V477.3z M-125,457.3h-5v-10h5V457.3z M-125,437.3h-5v-10h5V437.3z M-115,537.3h-5v-10h5V537.3z M-115,517.3
			h-5v-10h5V517.3z M-115,497.3h-5v-10h5V497.3z M-115,477.3h-5v-10h5V477.3z M-115,457.3h-5v-10h5V457.3z M-115,437.3h-5v-10h5
			V437.3z M-105,537.3h-5v-10h5V537.3z M-105,517.3h-5v-10h5V517.3z M-105,497.3h-5v-10h5V497.3z M-105,477.3h-5v-10h5V477.3z
			 M-105,457.3h-5v-10h5V457.3z M-105,437.3h-5v-10h5V437.3z M-95,537.3h-5v-10h5V537.3z M-95,517.3h-5v-10h5V517.3z M-95,497.3h-5
			v-10h5V497.3z M-95,477.3h-5v-10h5V477.3z M-95,457.3h-5v-10h5V457.3z M-95,437.3h-5v-10h5V437.3z M-85,537.3h-5v-10h5V537.3z
			 M-85,517.3h-5v-10h5V517.3z M-85,497.3h-5v-10h5V497.3z M-85,477.3h-5v-10h5V477.3z M-85,457.3h-5v-10h5V457.3z M-85,437.3h-5
			v-10h5V437.3z"/>
	</g>
</g>
</svg>
