<?xml version="1.0" encoding="utf-8"?>
<!-- Generator: Adobe Illustrator 19.0.0, SVG Export Plug-In . SVG Version: 6.00 Build 0)  -->
<svg version="1.1" id="Camada_1" xmlns="http://www.w3.org/2000/svg" xmlns:xlink="http://www.w3.org/1999/xlink" x="0px" y="0px"
	 viewBox="-280 321.5 150 150" style="enable-background:new -280 321.5 150 150;" xml:space="preserve">
<g>
	<path d="M-230.6,365.6c1.3,0,2.2-0.9,2.2-2.2v-2c0-1.3-1.1-2.2-2.2-2.2c-0.4,0-0.7,0.2-0.9,0.4l-1.3,0.9l-1.6-0.9
		c-0.2-0.2-0.5-0.2-0.9-0.2c-1.3,0-2.2,0.9-2.2,2.2v2c0,1.5,1.5,2.5,2.7,2.2l2-0.5l1.6,0.5C-230.9,365.6-230.8,365.6-230.6,365.6z"
		/>
	<circle cx="-232.9" cy="372.1" r="1.6"/>
	<circle cx="-232.9" cy="378.6" r="1.6"/>
	<circle cx="-232.9" cy="385.2" r="1.6"/>
	<path d="M-245.3,371.6c0-3.1-2.5-5.6-5.6-5.6c-3.1,0-5.6,2.5-5.6,5.6s2.5,5.6,5.6,5.6C-247.8,377.2-245.3,374.6-245.3,371.6z
		 M-252.7,371.6c0-1.1,0.9-2,2-2c1.1,0,2,0.9,2,2s-0.9,2-2,2C-251.8,373.6-252.7,372.5-252.7,371.6z"/>
	<path d="M-232.9,353.6c7.6,0,13.8-6.2,13.8-13.8c0-7.6-6.2-13.8-13.8-13.8c-7.6,0-13.8,6.2-13.8,13.8
		C-246.7,347.4-240.5,353.6-232.9,353.6z M-232.9,329.8c5.6,0,10.2,4.5,10.2,10.2s-4.5,10.2-10.2,10.2c-5.6,0-10.2-4.5-10.2-10.2
		S-238.6,329.8-232.9,329.8z"/>
	<path d="M-211,345.1c1.1,0,1.8-0.7,1.8-1.8c0-11.8,5.8-18.1,16.5-18.1c10.5,0,16.5,6.5,16.5,18.1c0,1.1,0.7,1.8,1.8,1.8
		c1.1,0,1.8-0.7,1.8-1.8c0-13.6-7.4-21.8-20.1-21.8c-12.5,0-20.1,8.2-20.1,21.8C-212.8,344.2-212.1,345.1-211,345.1z"/>
	<path d="M-149.1,464.8l-34.8-75.6l4.2-11.8c0.4-0.9-0.2-2-1.1-2.4c-0.9-0.4-2,0.2-2.4,1.1l-4.4,12.5c-0.2,0.4-0.2,0.9,0,1.3
		l35,75.8c-0.2,1.3-1.1,2.5-2.2,2.5s-2-1.1-2-2.4c0-3.4-2.5-6-5.6-6c-2.7,0-4.9,2.5-4.9,6c0,1.5-0.7,2.4-1.3,2.4
		c-0.5,0-1.3-1.1-1.3-2.4c0-3.4-2-6-4.7-6s-4.9,2.5-4.9,6c0,1.3-0.7,2.4-1.3,2.4c-0.5,0-1.1-1.1-1.1-2.4c0-3.4-2-6-4.9-6
		c-2.7,0-4.9,2.5-4.9,6c0,1.5-0.7,2.4-1.3,2.4c-0.5,0-1.1-1.1-1.1-2.4c0-3.4-2.2-6-4.9-6c-2.7,0-4.9,2.5-4.9,6
		c0,1.5-0.7,2.4-1.3,2.4c-0.5,0-1.3-1.1-1.3-2.4c0-3.4-2-6-4.9-6c-2.7,0-4.9,2.7-4.9,6c0,1.3-0.7,2.4-1.3,2.4
		c-0.5,0-1.1-1.1-1.1-2.4c0-0.2,0-0.5,0-0.5c-0.4-2.9-2.7-5.4-5.3-5.4c-2.9,0-5.3,2.4-5.6,5.3c0,0.2,0,0.4,0,0.7
		c0,1.3-0.9,2.4-2,2.4c-0.9,0-1.8-1.3-2-2.5l29.9-61.9c2.5-0.4,3.8-1.6,4.5-2.7c2.7-3.8,0.9-9.8,0.7-10.5l-8.2-25.2
		c-0.2-0.5-0.5-2.2-1.8-3.8h33.7v43.9c0,1.1,0.7,1.8,1.8,1.8l0,0c1.1,0,1.8-0.7,1.8-1.8v-45c0-1.3-0.9-2.5-2.9-2.5h-37.9
		c-0.5,0-0.9,0-1.1,0.2c-1.8-0.7-3.8-1.1-6.2-1.1h-6.3c-1.1,0-1.8,0.7-1.8,1.8v25.4c0,0.7-0.4,4-5.8,4s-5.8-3.4-5.8-4.2l-0.2-25.4
		c0-1.1-0.7-1.8-1.8-1.8h-10.7c-3.4,0.2-10,2.5-10,9.4v45.2c0,1.5,1.3,5.4,6.7,5.4c1.5,0,2.7-0.2,3.6-0.5v46.8
		c-0.2,0.5-0.2,1.1-0.2,1.8c0,0.5,0.2,0.9,0.5,1.3c0.4,0.5,0.9,0.7,1.5,0.7h12.5c0.7,2.4,2.5,4.5,5.3,4.5c3.1,0,5.6-2.7,5.6-6v-0.2
		c0.2-1.3,0.9-2.2,2-2.2c0.5,0,1.6,0.9,1.6,2.2v0.2c0,3.4,2,6,4.7,6s4.9-2.7,4.9-6c0-1.5,0.7-2.4,1.3-2.4c0.5,0,1.3,1.1,1.3,2.4
		c0,3.4,2,6,4.9,6c2.7,0,4.9-2.7,4.9-6c0-1.3,0.7-2.4,1.3-2.4c0.5,0,1.3,1.1,1.3,2.4c0,3.4,2,6,4.7,6s4.9-2.7,4.9-6
		c0-1.3,0.7-2.4,1.3-2.4c0.5,0,1.3,1.1,1.3,2.4c0,3.4,2.2,6,4.9,6s4.9-2.7,4.9-6c0-1.3,0.7-2.4,1.3-2.4c0.5,0,1.1,1.1,1.1,2.4
		c0,3.4,2,6,4.9,6c2.7,0,4.9-2.7,4.9-6c0-1.3,0.7-2.4,1.3-2.4c1.1,0,2,1.1,2,2.4c0,3.4,2.5,6,5.6,6s5.8-3.1,5.8-6.5
		C-149,465.3-149,465.2-149.1,464.8z M-247.4,463.9c0.9-2.5,4.4-2.9,5.8-2.9c1.3,0,4.4,0.2,5.4,2.4l-0.4,0.7
		C-236.6,463.9-247.4,463.9-247.4,463.9z M-207.5,404l-8.9,18.3V404H-207.5z M-223.5,384.4v-23.6h4.5c2,0,3.8,0.4,5.3,1.1l0,0
		c0.2,0.2,0.4,0.2,0.5,0.2c2.9,1.6,3.3,4.2,3.4,4.2v0.2l8.2,25.2c0.4,1.3,1.3,5.3-0.2,7.3c-0.5,0.9-1.5,1.3-2.9,1.3h-0.2h-18.5
		c-0.9-1.6-2.4-5.4-0.2-8.5h10.9h3.3c1.1,0,1.8-0.7,1.8-1.8s-0.7-1.8-1.8-1.8h-3.3h-11.6c-0.2,0-0.2,0-0.4,0
		C-223.9,387-223.5,385.5-223.5,384.4z M-254.7,413.6c-2.7,0-3.1-1.5-3.1-1.8v-45.2c0-5.3,6.3-5.8,6.5-5.8h8.7l0.2,23.6
		c0,2.7,2,7.6,9.4,7.6c2.5,0,4.5-0.5,6-1.5c-3.3,5.6,0.9,12.3,1.1,12.7c0.4,0.5,0.9,0.9,1.5,0.9h4.4V430l-12,24.7v-30.5
		c0-1.1-0.7-1.8-1.8-1.8s-1.8,0.7-1.8,1.8v34.6c-1.6-0.9-3.6-1.5-6-1.5s-4.4,0.5-5.8,1.5v-65.5c0-1.1-0.7-1.8-1.8-1.8
		c-1.1,0-1.8,0.7-1.8,1.8v19.4C-251.3,412.7-252.2,413.6-254.7,413.6z"/>
	<path d="M-193,326.2c-7.6,0-13.8,6.2-13.8,13.8s6.2,13.8,13.8,13.8c7.6,0,13.8-6.2,13.8-13.8C-179.2,332.4-185.4,326.2-193,326.2z
		 M-193,350c-5.6,0-10.2-4.5-10.2-10.2s4.5-10.2,10.2-10.2s10.2,4.5,10.2,10.2C-182.9,345.4-187.4,350-193,350z"/>
</g>
</svg>
