<?xml version="1.0" encoding="utf-8"?>
<!-- Generator: Adobe Illustrator 19.0.0, SVG Export Plug-In . SVG Version: 6.00 Build 0)  -->
<svg version="1.1" id="Camada_1" xmlns="http://www.w3.org/2000/svg" xmlns:xlink="http://www.w3.org/1999/xlink" x="0px" y="0px"
	 viewBox="-280 321.5 150 150" style="enable-background:new -280 321.5 150 150;" xml:space="preserve">
<g>
	<path d="M-173.8,353.4c-0.2-1-1-1.7-2-1.7h-25c-1,0-1.8,0.7-2,1.7l-2.2,12.5c-0.2,0.7,0,1.2,0.5,1.7c0.3,0.5,1,0.7,1.7,0.7h29.2
		c0.7,0,1.2-0.3,1.7-0.7c0.3-0.5,0.5-1.2,0.5-1.7L-173.8,353.4z M-200.5,364.3l1.3-8.3h21.5l1.3,8.3H-200.5z"/>
	<path d="M-157.8,370.6l-5.5-28c-0.3-2-2.2-3.3-4.2-3.3h-41.7c-2,0-3.7,1.3-4.2,3.3l-5.5,27.8h-17.3c0-1.8-0.5-3.5-1.5-5.2
		c-0.3-0.7-1-1-1.8-1h-14.3c-0.7,0-1.5,0.3-1.8,1c-1,1.7-1.5,3.3-1.5,5.2h2.2c-13.8,0-25,11.2-25,25v45.8c0,6.8,5.7,12.5,12.5,12.5
		h116.7l0,0c11.5,0,20.8-9.3,20.8-20.8v-31.2C-130,385.6-142.2,372.3-157.8,370.6z M-252.5,368.4h11.7c0.3,0.7,0.3,1.3,0.3,2.2H-253
		C-252.8,369.8-252.8,369.1-252.5,368.4z M-257,445.4h-10.5c-2.3,0-4.2-1.8-4.2-4.2v-45.8c0-9.2,7.5-16.7,16.7-16.7h18.8v6.2
		c0,9-3.5,17.3-9.8,23.7c-7.2,7.2-11,16.5-11,26.7V445.4z M-188.3,445.4c-16,0-29.2-13.2-29.2-29.2s13.2-29.2,29.2-29.2
		s29.2,13.2,29.2,29.2S-172.3,445.4-188.3,445.4z M-138.3,432.9c0,7-5.7,12.5-12.5,12.5h-14c8.5-6.8,14-17.5,14-29.2
		c0-20.7-16.8-37.5-37.5-37.5s-37.5,16.8-37.5,37.5c0,11.8,5.5,22.3,14,29.2H-253v-10.3c0-9,3.5-17.3,9.8-23.7
		c7.2-7.2,11-16.5,11-26.7v-6h16.7c2,0,3.7-1.3,4.2-3.3l5.5-27.8h34.8l5.7,27.8c0.3,2,2.2,3.3,4.2,3.3c12.5,0,22.8,10.3,22.8,23
		V432.9z"/>
	<path d="M-257,385.1c-4.7,0-8.3,3.7-8.3,8.3c0,4.7,3.7,8.3,8.3,8.3s8.3-3.7,8.3-8.3C-248.7,388.8-252.5,385.1-257,385.1z
		 M-257,397.6c-2.3,0-4.2-1.8-4.2-4.2c0-2.3,1.8-4.2,4.2-4.2c2.3,0,4.2,1.8,4.2,4.2C-252.8,395.8-254.8,397.6-257,397.6z"/>
	<path d="M-188.3,393.4c-12.7,0-23,10.3-23,23s10.3,22.8,23,22.8c12.7,0,23-10.3,23-23C-165.3,403.6-175.7,393.4-188.3,393.4z
		 M-188.3,435.1c-10.3,0-18.8-8.3-18.8-18.8s8.3-18.8,18.8-18.8s18.8,8.3,18.8,18.8S-178,435.1-188.3,435.1z"/>
</g>
</svg>
