<?xml version="1.0" encoding="utf-8"?>
<!-- Generator: Adobe Illustrator 19.0.0, SVG Export Plug-In . SVG Version: 6.00 Build 0)  -->
<svg version="1.1" id="Camada_1" xmlns="http://www.w3.org/2000/svg" xmlns:xlink="http://www.w3.org/1999/xlink" x="0px" y="0px"
	 viewBox="-316 322 150 150" style="enable-background:new -316 322 150 150;" xml:space="preserve">
<g>
	<path d="M-166,336.5v-4.8h-21.8v-2.4c0-4-3.3-7.3-7.3-7.3s-7.3,3.3-7.3,7.3v2.4h-21.8v4.8h26.6V351h-4.8v4.8h-7.3
		c-0.8,0-1.5-0.4-1.9-1l-6.5-8.7h-46l-6.5,8.7c-0.5,0.6-1.2,1-1.9,1h-7.3V351h-4.8v-14.5h26.6v-4.8h-21.8v-2.4c0-4-3.3-7.3-7.3-7.3
		s-7.3,3.3-7.3,7.3v2.4H-316v4.8h26.6V351h-4.8v21.8c0,4,3.3,7.3,7.3,7.3c3.1,0,5.8-2,6.8-4.8h6.4c2.4,0,4.4,1.7,4.8,4l0.9,5.6h-4.4
		c-12,0-21.8,9.8-21.8,21.8v60.5h-4.8v4.8h14.5v-4.8h-4.8v-60.5c0-9.3,7.6-16.9,16.9-16.9h5.2h2h2.4v4.8h-9.7v4.8h4.8v4.8h-4.8v4.8
		h19.4v4.8h-14.5c-2.7,0-4.8,2.2-4.8,4.8v38.7c0,2.7,2.2,4.8,4.8,4.8h53.2c2.7,0,4.8-2.2,4.8-4.8v-38.7c0-2.7-2.2-4.8-4.8-4.8h-14.5
		v-4.8h19.4v-4.8h-4.8v-4.8h4.8v-4.8h-9.7v-4.8h2.4h2h5.2c9.3,0,16.9,7.6,16.9,16.9v60.5h-4.8v4.8h14.5v-4.8h-4.8v-60.5
		c0-12-9.8-21.8-21.8-21.8h-4.4l0.9-5.6c0.4-2.3,2.4-4,4.8-4h6.4c1,2.8,3.7,4.8,6.8,4.8c4,0,7.3-3.3,7.3-7.3V351h-4.8v-14.5H-166z
		 M-289.4,329.3c0-1.3,1.1-2.4,2.4-2.4s2.4,1.1,2.4,2.4v2.4h-4.8V329.3z M-253.1,351h24.2v7.3h-24.2V351z M-284.5,372.8
		c0,1.3-1.1,2.4-2.4,2.4s-2.4-1.1-2.4-2.4v-16.9h4.8V372.8z M-262.8,399.4h19.4v4.8h-19.4V399.4z M-214.4,457.5h-53.2v-38.7h53.2
		V457.5z M-233.7,413.9h-14.5v-4.8h14.5V413.9z M-219.2,404.3h-19.4v-4.8h19.4V404.3z M-224.1,394.6h-33.9v-4.8h33.9V394.6z
		 M-216.6,375.2h-5v4.8h3.6l-0.8,4.8h-44.3l-0.8-4.8h37.5v-4.8h-38.9c-1.7-2.9-4.8-4.8-8.4-4.8h-5.9v-9.7h7.3c2.3,0,4.4-1.1,5.8-2.9
		l5.1-6.8h3.6v7.3c0,2.7,2.2,4.8,4.8,4.8h24.2c2.7,0,4.8-2.2,4.8-4.8V351h3.6l5.1,6.8c1.4,1.8,3.5,2.9,5.8,2.9h7.3v9.7h-5.9
		C-211.8,370.4-214.9,372.3-216.6,375.2z M-192.6,372.8c0,1.3-1.1,2.4-2.4,2.4c-1.3,0-2.4-1.1-2.4-2.4v-16.9h4.8V372.8z
		 M-197.5,329.3c0-1.3,1.1-2.4,2.4-2.4c1.3,0,2.4,1.1,2.4,2.4v2.4h-4.8V329.3z"/>
	<path d="M-241,455.1c9.3,0,16.9-7.6,16.9-16.9s-7.6-16.9-16.9-16.9s-16.9,7.6-16.9,16.9S-250.3,455.1-241,455.1z M-241,426
		c6.7,0,12.1,5.4,12.1,12.1s-5.4,12.1-12.1,12.1s-12.1-5.4-12.1-12.1S-247.7,426-241,426z"/>
	<path d="M-241,447.8c5.3,0,9.7-4.3,9.7-9.7s-4.3-9.7-9.7-9.7s-9.7,4.3-9.7,9.7S-246.3,447.8-241,447.8z M-241,433.3
		c2.7,0,4.8,2.2,4.8,4.8s-2.2,4.8-4.8,4.8s-4.8-2.2-4.8-4.8S-243.7,433.3-241,433.3z"/>
	<rect x="-224.1" y="447.8" width="4.8" height="4.8"/>
</g>
</svg>
