<?xml version="1.0" encoding="utf-8"?>
<!-- Generator: Adobe Illustrator 19.0.0, SVG Export Plug-In . SVG Version: 6.00 Build 0)  -->
<svg version="1.1" id="Camada_1" xmlns="http://www.w3.org/2000/svg" xmlns:xlink="http://www.w3.org/1999/xlink" x="0px" y="0px"
	 viewBox="-280 321.5 150 150" style="enable-background:new -280 321.5 150 150;" xml:space="preserve">
<g>
	<path d="M-205,321.5c-25.7,0-45,9-45,21v84c0,4.9,3.3,9.4,9,12.9v15c0,9.8,15.5,17.1,36,17.1s36-7.4,36-17.1v-15
		c5.7-3.5,9-7.9,9-12.9v-84C-160,330.5-179.3,321.5-205,321.5z M-175,454.4c0,5.3-12.8,11.1-30,11.1s-30-5.9-30-11.1v-12
		c7.9,3.2,18.2,5.1,30,5.1c11.8,0,22.2-1.9,30-5.1V454.4z M-166,426.5c0,7.1-16,15-39,15s-39-7.9-39-15v-31.2
		c7.6,6.2,21.9,10.2,39,10.2s31.4-4,39-10.2V426.5z M-166,384.5c0,7.1-16,15-39,15s-39-7.9-39-15v-7.2c7.6,6.2,21.9,10.2,39,10.2
		s31.4-4,39-10.2V384.5z M-166,366.5c0,7.1-16,15-39,15s-39-7.9-39-15v-13.2c7.6,6.2,21.9,10.2,39,10.2s31.4-4,39-10.2V366.5z
		 M-232,347.6c0-4.1,10.3-9.9,27-9.9s27,5.7,27,9.9c0,4.1-10.3,9.9-27,9.9c0,0,0,0,0,0s0,0,0,0C-221.7,357.5-232,351.8-232,347.6z
		 M-172.5,350.5c0.3-0.9,0.5-1.9,0.5-2.8c0-9-14.2-15.9-33-15.9c-18.8,0-33,6.8-33,15.9c0,1,0.2,1.9,0.5,2.8c-4.2-2.5-6.5-5.3-6.5-8
		c0-7.1,16-15,39-15s39,7.9,39,15C-166,345.2-168.3,348-172.5,350.5z M-214,417.5v6c0,5,4,9,9,9s9-4,9-9v-6c0-5-4-9-9-9
		S-214,412.5-214,417.5z M-202,417.5v6c0,1.7-1.3,3-3,3c-1.7,0-3-1.3-3-3v-6c0-1.7,1.3-3,3-3C-203.3,414.5-202,415.8-202,417.5z"/>
</g>
</svg>
