<?xml version="1.0" encoding="utf-8"?>
<!-- Generator: Adobe Illustrator 19.0.0, SVG Export Plug-In . SVG Version: 6.00 Build 0)  -->
<svg version="1.1" id="Camada_1" xmlns="http://www.w3.org/2000/svg" xmlns:xlink="http://www.w3.org/1999/xlink" x="0px" y="0px"
	 viewBox="-280 321.5 150 150" style="enable-background:new -280 321.5 150 150;" xml:space="preserve">
<g>
	<path d="M-200.9,435.8h-14.2v-14.2c0-1.3-1.1-2.4-2.4-2.4s-2.4,1.1-2.4,2.4v14.2h-14.2c-1.3,0-2.4,1.1-2.4,2.4
		c0,1.3,1.1,2.4,2.4,2.4h14.2v14.2c0,1.3,1.1,2.4,2.4,2.4s2.4-1.1,2.4-2.4v-14.2h14.2c1.3,0,2.4-1.1,2.4-2.4
		C-198.5,436.9-199.6,435.8-200.9,435.8z M-241.4,321.5l-6.8,24.5H-271v104h22.4c4.8,12.6,16.9,21.5,31.1,21.5
		c14.2,0,26.3-9,31.1-21.5h22.5v-7.4l24.9-94.5l0-0.1L-241.4,321.5z M-235,332.3l52.8,13.7h-56.6L-235,332.3z M-217.5,466.7
		c-15.7,0-28.5-12.8-28.5-28.5c0-15.7,12.8-28.5,28.5-28.5c15.7,0,28.5,12.8,28.5,28.5S-201.8,466.7-217.5,466.7z M-173,419.8h-16.8
		c-6-9-16.2-15-27.8-15c-11.6,0-21.8,6-27.8,15H-262V400c0.1-0.1,0.2-0.1,0.3-0.2l30.4-22.3l5.4,5.1c1,0.9,2.5,0.9,3.5-0.1
		c0.9-1,0.9-2.5-0.1-3.5l-6.9-6.5c-0.9-0.8-2.2-0.9-3.2-0.2L-262,394v-3.5c0.1,0,0.1-0.1,0.2-0.1l29.2-21.9l29.6,25.8
		c0.5,0.4,1.1,0.6,1.6,0.6c0.6,0,1.3-0.3,1.8-0.7l12.2-12.6l14.4,9V419.8z M-173,384.8l-13.5-8.4c-1-0.6-2.3-0.5-3.1,0.4l-11.9,12.3
		l-29.3-25.6c-0.9-0.8-2.2-0.8-3.1-0.1l-28,21V355h89V384.8z M-163.9,406.9v-56.2l14,3.6L-163.9,406.9z M-197.4,396.1
		c-1,0.9-1.1,2.5-0.1,3.5c0.5,0.5,1.2,0.8,1.8,0.8c0.6,0,1.2-0.2,1.7-0.6l8-7.3l6.1,3.7c1.2,0.7,2.7,0.3,3.4-0.8
		c0.7-1.2,0.3-2.7-0.8-3.4l-7.7-4.7c-0.9-0.6-2.2-0.5-3,0.3L-197.4,396.1z"/>
</g>
</svg>
