<?xml version="1.0" encoding="utf-8"?>
<!-- Generator: Adobe Illustrator 19.0.0, SVG Export Plug-In . SVG Version: 6.00 Build 0)  -->
<svg version="1.1" id="Camada_1" xmlns="http://www.w3.org/2000/svg" xmlns:xlink="http://www.w3.org/1999/xlink" x="0px" y="0px"
	 viewBox="-280 321.5 150 150" style="enable-background:new -280 321.5 150 150;" xml:space="preserve">
<path d="M-140.2,468.2l-2.2-12.9c-2.5-12.6-23.1-19.3-37-19.3c-1.6,0-2.8,1.3-2.8,2.8c0,1.6,1.3,2.8,2.8,2.8
	c13.2,0,29.8,6.4,31.4,14.6l2.1,12.8c0.2,1.4,1.4,2.4,2.8,2.4c0.2,0,0.3,0,0.5,0C-140.9,471.2-139.9,469.7-140.2,468.2z
	 M-230.7,435.9c-11.6,0-34.5,6.7-37,19.5l-2.1,12.8c-0.3,1.5,0.8,3,2.3,3.3c0.2,0,0.3,0,0.5,0c1.4,0,2.6-1,2.8-2.4l2.1-12.7
	c1.7-8.7,21.4-14.8,31.4-14.8c1.6,0,2.8-1.3,2.8-2.8C-227.8,437.1-229.1,435.9-230.7,435.9z M-181.2,421c3.7-5.5,8.7-18.2,10.4-22.6
	c2.9-0.9,5-3.6,5-6.8v-8.6c0-2.9-1.8-5.4-4.3-6.5v-1.8c0.1-0.8,0.8-6.1,3.9-11.5c5.1-8.9,6-22.2-0.8-27.1
	c-14.9-10.8-45.4-18.7-59.7-12.6c-4.4,1.9-7.2,5-8.2,9.1c-3.3,2-11.4,8-10.3,18.2c1.6,14.9,4,22.8,5,25.8c-2.3,1.2-4,3.6-4,6.3v8.6
	c0,3.2,2.1,5.9,5,6.8c1.7,4.4,6.7,17,10.4,22.6l0.3,0.5c2.8,4.3,7.6,11.5,23.4,11.5c15.9,0,20.6-7.2,23.4-11.5L-181.2,421z
	 M-239.6,350.4c-0.9-8.5,8.1-13.1,8.5-13.3c0.8-0.4,1.4-1.2,1.6-2.2c0.4-2.8,2.1-4.8,5.1-6.1c12.1-5.2,40.8,2.3,54.1,12
	c3.7,2.6,3.3,12.5-0.8,19.6c-0.3,0.5-0.5,1-0.8,1.4c-4-9.4-14.6-11.5-31.8-11.5c-2,0-4.6-1.7-7-3.2c-2.7-1.8-5.3-3.5-8-3.5
	c-0.7,0-1.3,0.1-1.9,0.3c-0.6,0.2-1.2,0.7-1.5,1.3c-3,5.2-6.4,8.4-9.3,11.2c-2.3,2.2-4.6,4.4-6.2,7.2
	C-238.3,360.1-239,355.7-239.6,350.4z M-186,417.9l-0.4,0.5c-2.5,3.8-5.9,8.9-18.7,8.9c-12.8,0-16.2-5.1-18.7-8.9l-0.4-0.5
	c-4-6.1-10.3-22.8-10.4-23c-0.4-1.1-1.5-1.8-2.7-1.8c-0.8,0-1.4-0.6-1.4-1.4v-8.6c0-0.7,0.8-1.4,1.4-1.4c1.6,0,2.8-1.3,2.8-2.8v-6.4
	c0-5.4,2.5-7.8,6.7-11.8c2.8-2.7,6.3-6,9.5-11.1c1.1,0.4,2.9,1.5,4.3,2.4c3,1.9,6.4,4.1,10.1,4.1c23.7,0,27.9,4.3,27.9,16.3v6.4
	c0,1.6,1.3,2.8,2.8,2.8c0.8,0,1.4,0.6,1.4,1.4v8.6c0,0.8-0.6,1.4-1.4,1.4c-1.2,0-2.2,0.7-2.7,1.8
	C-175.6,395.1-181.9,411.8-186,417.9z"/>
</svg>
