<?xml version="1.0" encoding="utf-8"?>
<!-- Generator: Adobe Illustrator 19.0.0, SVG Export Plug-In . SVG Version: 6.00 Build 0)  -->
<svg version="1.1" id="Camada_1" xmlns="http://www.w3.org/2000/svg" xmlns:xlink="http://www.w3.org/1999/xlink" x="0px" y="0px"
	 viewBox="-280 321.5 150 150" style="enable-background:new -280 321.5 150 150;" xml:space="preserve">
<g>
	<path d="M-280,411.7v-20.4c0-1.9,1.5-3.4,3.4-3.4h36l-15.7,27.1h-20.3C-278.5,415.1-280,413.6-280,411.7z M-254.4,453.4l-11.5,7.8
		c-1.5,1.1-2.6,0.4-2.4-1.5l1.5-13.3c0.2-1.9,1.7-2.6,3.3-1.7l8.9,5.1C-252.9,450.7-252.8,452.4-254.4,453.4z M-251.6,445.9
		l-8.9-5.1c-1.6-0.9-2.2-3-1.3-4.6l41.1-71.3c0.9-1.6,3-2.2,4.7-1.2l8.9,5.1c1.6,0.9,2.2,3,1.3,4.6l-41.1,71.3
		C-247.9,446.3-250,446.8-251.6,445.9z M-220.3,415.1l15.7-27.1h9l12.7,27.1H-220.3z M-169.3,423.2c-3.6-1.8-21.3-42.5-25.8-53.1
		c-4.5-10.6-18.3-38.9-13.8-41.1c3.2-1.6,14.5,20.7,23,34c8.5,13.4,26.2,47.8,28.4,51.7c2.2,3.9-2.1,7.2-4.5,8.2
		C-164.4,424-165.8,425-169.3,423.2z M-157.7,441.9l-5.4-8.4c-1.1-1.8-0.5-3.9,1.3-4.8l5.1-2.6c1.8-0.9,4-0.2,5,1.7l4.2,8.1
		c1,1.8,0.3,4.2-1.4,5.2l-3.6,2.2C-154.2,444.2-156.6,443.7-157.7,441.9z M-138,464c-1.1-3.6-9.7-3.8-13.5-9.2
		c-3.8-5.4-0.7-8.1,0.7-9.4C-135.3,436.8-138,464-138,464z M-130,411.7c0,1.9-1.5,3.4-3.4,3.4h-18c-0.2-1-0.5-2.1-1.1-3.1
		c-0.5-0.8-1.7-3.1-3.3-6.2c-2.4-4.5-5.8-11-9.5-17.8h31.8c1.9,0,3.4,1.5,3.4,3.4L-130,411.7L-130,411.7z"/>
</g>
</svg>
