<?xml version="1.0" encoding="utf-8"?>
<!-- Generator: Adobe Illustrator 19.0.0, SVG Export Plug-In . SVG Version: 6.00 Build 0)  -->
<svg version="1.1" id="Camada_1" xmlns="http://www.w3.org/2000/svg" xmlns:xlink="http://www.w3.org/1999/xlink" x="0px" y="0px"
	 viewBox="-358 322.3 150 150" style="enable-background:new -358 322.3 150 150;" xml:space="preserve">
<title>cat_4</title>
<desc>Created with Sketch.</desc>
<g>
	<g transform="translate(-63.000000, -34.000000)">
		<path d="M-288.2,417.6c0,0,54.6,0,54.6,0c0,0,0-54.6,0-54.6c0,0-54.6,0-54.6,0C-288.2,363.1-288.2,417.6-288.2,417.6z M-295,363
			c0-3.7,3.1-6.8,6.8-6.8h54.6c3.7,0,6.8,3.1,6.8,6.8v54.6c0,3.7-3.1,6.8-6.8,6.8h-54.6c-3.7,0-6.8-3.1-6.8-6.8V363z M-288.2,499.5
			c0,0,54.5,0,54.5,0c0,0,0-54.6,0-54.6c0,0-54.6,0-54.6,0C-288.2,444.9-288.2,499.5-288.2,499.5z M-295,444.9
			c0-3.7,3.1-6.8,6.8-6.8h54.6c3.7,0,6.8,3.1,6.8,6.8v54.6c0,3.7-3.1,6.8-6.8,6.8h-54.6c-3.7,0-6.8-3.1-6.8-6.8V444.9z
			 M-206.4,499.5c0,0,54.6,0,54.6,0c0,0,0-54.6,0-54.6c0,0-54.6,0-54.6,0C-206.4,444.9-206.4,499.5-206.4,499.5z M-213.2,444.9
			c0-3.7,3.1-6.8,6.8-6.8h54.6c3.7,0,6.8,3.1,6.8,6.8v54.6c0,3.7-3.1,6.8-6.8,6.8h-54.6c-3.7,0-6.8-3.1-6.8-6.8V444.9z
			 M-206.4,417.6c0,0,54.6,0,54.6,0c0,0,0-54.6,0-54.6c0,0-54.6,0-54.6,0C-206.4,363.1-206.4,417.6-206.4,417.6z M-213.2,363
			c0-3.7,3.1-6.8,6.8-6.8h54.6c3.7,0,6.8,3.1,6.8,6.8v54.6c0,3.7-3.1,6.8-6.8,6.8h-54.6c-3.7,0-6.8-3.1-6.8-6.8V363z"/>
	</g>
</g>
</svg>
