<?xml version="1.0" encoding="utf-8"?>
<!-- Generator: Adobe Illustrator 19.0.0, SVG Export Plug-In . SVG Version: 6.00 Build 0)  -->
<svg version="1.1" id="Camada_1" xmlns="http://www.w3.org/2000/svg" xmlns:xlink="http://www.w3.org/1999/xlink" x="0px" y="0px"
	 viewBox="-356 322 150 150" style="enable-background:new -356 322 150 150;" xml:space="preserve">
<g>
	<path d="M-208.8,458.3h-141.7v-35.6l35.4-22.3l32.4,23c0.9,0.7,2.3,0.7,3.3-0.1l65.8-50.5l-1.3,6.5c-0.2,0.7,0,1.4,0.4,2.1
		c0.4,0.7,1.1,1.1,1.9,1.3l0.4,0c1.3,0,2.5-0.9,2.7-2.2l2.8-13.8l0.1-0.5c0-0.4-0.1-0.8-0.2-1v-0.4l-0.6-0.6
		c-0.2-0.2-0.4-0.4-0.6-0.5l-0.2-0.3l-15.3-1c-1.5,0-2.7,1.1-2.8,2.6c-0.1,0.7,0.2,1.5,0.7,2c0.5,0.6,1.2,0.9,1.9,0.9l6.6,0.4
		l-64.2,49.3l-32.3-23c-0.9-0.7-2.2-0.7-3.1-0.1l-34,21.4v-83.1c0-1.5-1.2-2.8-2.8-2.8c-1.5,0-2.8,1.3-2.8,2.8v128.1
		c0,1.5,1.2,2.8,2.8,2.8h144.4c1.5,0,2.8-1.3,2.8-2.8C-206,459.5-207.3,458.3-208.8,458.3z"/>
</g>
</svg>
