<?xml version="1.0" encoding="utf-8"?>
<!-- Generator: Adobe Illustrator 19.0.0, SVG Export Plug-In . SVG Version: 6.00 Build 0)  -->
<svg version="1.1" id="Camada_1" xmlns="http://www.w3.org/2000/svg" xmlns:xlink="http://www.w3.org/1999/xlink" x="0px" y="0px"
	 viewBox="-320 321.8 150 150" style="enable-background:new -320 321.8 150 150;" xml:space="preserve">
<style type="text/css">
	.st0{fill:none;stroke:#000000;stroke-width:2;stroke-linecap:round;stroke-linejoin:round;}
</style>
<g>
	<title>48 -Video Camera- (photography, video, record)</title>
	<desc>Created with Sketch.</desc>
	<g>
		<g transform="translate(-959.000000, -883.000000)">
			<g transform="translate(960.000000, 884.000000)">
				<path d="M-220.1,395.8c0,1.4-1.2,2.6-2.6,2.6s-2.6-1.2-2.6-2.6s1.2-2.6,2.6-2.6S-220.1,394.3-220.1,395.8"/>
				<path d="M-261.5,434.5c0,1.4-1.2,2.6-2.6,2.6s-2.6-1.2-2.6-2.6s1.2-2.6,2.6-2.6S-261.5,433.1-261.5,434.5"/>
				<path d="M-251.2,434.5c0,1.4-1.2,2.6-2.6,2.6s-2.6-1.2-2.6-2.6s1.2-2.6,2.6-2.6S-251.2,433.1-251.2,434.5"/>
				<path d="M-240.8,434.5c0,1.4-1.2,2.6-2.6,2.6c-1.4,0-2.6-1.2-2.6-2.6s1.2-2.6,2.6-2.6C-242,432-240.8,433.1-240.8,434.5"/>
				<path class="st0" d="M-274.4,439.7h-5.2c-2.9,0-5.2-2.3-5.2-5.2v-36.2c0-2.9,2.3-5.2,5.2-5.2h5.2V439.7L-274.4,439.7z"/>
				<polygon class="st0" points="-300.3,426.8 -284.8,426.8 -284.8,406.1 -300.3,406.1 				"/>
				<path class="st0" d="M-300.3,426.8l-16.4,14.4c-1.7,1.5-4.3,0.3-4.3-1.9v-45.5c0-2.2,2.6-3.4,4.3-1.9l16.4,14.4V426.8
					L-300.3,426.8z"/>
				<path class="st0" d="M-171,362.3c-5.1,5.1-13.2,5.1-18.3,0s-5.1-13.2,0-18.3C-185.7,352.4-179.5,358.7-171,362.3L-171,362.3z"/>
				<polygon class="st0" points="-225.3,437.1 -183.9,437.1 -183.9,416.4 -225.3,416.4 				"/>
				<path class="st0" d="M-176.2,385.4h-21.6l-17.7,17.7c-4,4-10.6,4-14.6,0c-4-4-4-10.6,0-14.6l3-3h-42.3c-2.9,0-5.2,2.3-5.2,5.2
					v51.7c0,2.9,2.3,5.2,5.2,5.2h93.1c2.9,0,5.2-2.3,5.2-5.2v-51.7C-171,387.7-173.3,385.4-176.2,385.4L-176.2,385.4z"/>
				<path class="st0" d="M-189.3,362.3c-3-3-4.2-7.1-3.6-11l-37.1,37.1c-4,4-4,10.6,0,14.6c4,4,10.6,4,14.6,0l37.1-37.1
					C-182.2,366.5-186.3,365.3-189.3,362.3L-189.3,362.3z"/>
				<path class="st0" d="M-212.4,426.8h15.5"/>
				<polygon class="st0" points="-274.4,413.9 -253.8,413.9 -253.8,398.3 -274.4,398.3 				"/>
			</g>
		</g>
	</g>
</g>
</svg>
