<?xml version="1.0" encoding="utf-8"?>
<!-- Generator: Adobe Illustrator 19.0.0, SVG Export Plug-In . SVG Version: 6.00 Build 0)  -->
<svg version="1.1" id="Capa_1" xmlns="http://www.w3.org/2000/svg" xmlns:xlink="http://www.w3.org/1999/xlink" x="0px" y="0px"
	 viewBox="-319.6 321.6 150 150" style="enable-background:new -319.6 321.6 150 150;" xml:space="preserve">
<g>
	<path d="M-177.9,321.6h-133.4c-4.6,0-8.3,3.7-8.3,8.3v133.4c0,4.6,3.7,8.3,8.3,8.3h71.8v-58.1h-19.5v-22.6h19.5v-16.7
		c0-19.4,11.8-29.9,29.1-29.9c8.3,0,15.4,0.6,17.5,0.9v20.2l-12,0c-9.4,0-11.2,4.5-11.2,11v14.5h22.4l-2.9,22.6h-19.5v58.1h38.2
		c4.6,0,8.3-3.7,8.3-8.3V329.9C-169.6,325.3-173.3,321.6-177.9,321.6z"/>
</g>
</svg>
