<?xml version="1.0" encoding="utf-8"?>
<!-- Generator: Adobe Illustrator 19.0.0, SVG Export Plug-In . SVG Version: 6.00 Build 0)  -->
<svg version="1.1" id="Camada_1" xmlns="http://www.w3.org/2000/svg" xmlns:xlink="http://www.w3.org/1999/xlink" x="0px" y="0px"
	 viewBox="-280 321.5 150 150" style="enable-background:new -280 321.5 150 150;" xml:space="preserve">
<title>ALL</title>
<g>
	<path d="M-251,350.5h-26.6c-1.3,0-2.4-1.1-2.4-2.4c0-1.3,1.1-2.4,2.4-2.4h26.6c1.3,0,2.4,1.1,2.4,2.4
		C-248.5,349.4-249.6,350.5-251,350.5z"/>
	<path d="M-132.4,350.5h-96.8c-1.3,0-2.4-1.1-2.4-2.4c0-1.3,1.1-2.4,2.4-2.4h96.8c1.3,0,2.4,1.1,2.4,2.4
		C-130,349.4-131.1,350.5-132.4,350.5z"/>
	<path d="M-241,360.2c-6.7,0-12.1-5.4-12.1-12.1c0-6.7,5.4-12.1,12.1-12.1s12.1,5.4,12.1,12.1C-228.9,354.8-234.3,360.2-241,360.2z
		 M-241,340.9c-4,0-7.3,3.2-7.3,7.3c0,4,3.2,7.3,7.3,7.3s7.3-3.2,7.3-7.3C-233.7,344.1-237,340.9-241,340.9z"/>
	<path d="M-178.4,398.9h-99.2c-1.3,0-2.4-1.1-2.4-2.4s1.1-2.4,2.4-2.4h99.2c1.3,0,2.4,1.1,2.4,2.4S-177.1,398.9-178.4,398.9z"/>
	<path d="M-132.4,398.9h-24.2c-1.3,0-2.4-1.1-2.4-2.4s1.1-2.4,2.4-2.4h24.2c1.3,0,2.4,1.1,2.4,2.4S-131.1,398.9-132.4,398.9z"/>
	<path d="M-168.4,408.6c-6.7,0-12.1-5.4-12.1-12.1s5.4-12.1,12.1-12.1c6.7,0,12.1,5.4,12.1,12.1S-161.7,408.6-168.4,408.6z
		 M-168.4,389.2c-4,0-7.3,3.2-7.3,7.3s3.2,7.3,7.3,7.3s7.3-3.2,7.3-7.3S-164.4,389.2-168.4,389.2z"/>
	<path d="M-226.8,447.3h-50.8c-1.3,0-2.4-1.1-2.4-2.4c0-1.3,1.1-2.4,2.4-2.4h50.8c1.3,0,2.4,1.1,2.4,2.4
		C-224.4,446.2-225.4,447.3-226.8,447.3z"/>
	<path d="M-132.4,447.3H-205c-1.3,0-2.4-1.1-2.4-2.4c0-1.3,1.1-2.4,2.4-2.4h72.6c1.3,0,2.4,1.1,2.4,2.4
		C-130,446.2-131.1,447.3-132.4,447.3z"/>
	<path d="M-216.8,457c-6.7,0-12.1-5.4-12.1-12.1c0-6.7,5.4-12.1,12.1-12.1c6.7,0,12.1,5.4,12.1,12.1
		C-204.7,451.6-210.1,457-216.8,457z M-216.8,437.6c-4,0-7.3,3.2-7.3,7.3s3.2,7.3,7.3,7.3s7.3-3.2,7.3-7.3S-212.8,437.6-216.8,437.6
		z"/>
</g>
</svg>
