<?xml version="1.0" encoding="utf-8"?>
<!-- Generator: Adobe Illustrator 19.0.0, SVG Export Plug-In . SVG Version: 6.00 Build 0)  -->
<svg version="1.1" id="Camada_1" xmlns="http://www.w3.org/2000/svg" xmlns:xlink="http://www.w3.org/1999/xlink" x="0px" y="0px"
	 viewBox="-280 321.5 150 150" style="enable-background:new -280 321.5 150 150;" xml:space="preserve">
<g>
	<path d="M-207.1,437.2c0.5,0.6,1.3,0.9,2.1,0.9c0.8,0,1.6-0.3,2.1-0.9c1-1.1,23.6-27,36-55.5c2.7-5.7,4.1-11.8,4.1-18.1
		c0-23.2-19-42.1-42.4-42.1c-23.4,0-42.4,18.9-42.4,42.1c0,6.4,1.4,12.4,4,18C-231,410.3-208,436.2-207.1,437.2z M-205.1,327.1
		c20.3,0,36.8,16.4,36.8,36.6c0,5.4-1.2,10.7-3.6,15.8c-10,22.9-27.2,44.6-33.1,51.7c-6-7.1-23.4-28.8-33.4-51.8
		c-2.3-4.9-3.5-10.2-3.5-15.7C-242,343.5-225.4,327.1-205.1,327.1z"/>
	<path d="M-205.1,383.3c11.1,0,20.1-9,20.1-20.1c0-11.1-9-20.1-20.1-20.1c-11.1,0-20.1,9-20.1,20.1
		C-225.2,374.2-216.2,383.3-205.1,383.3z M-205.1,348.6c8,0,14.5,6.5,14.5,14.5c0,8-6.5,14.5-14.5,14.5s-14.5-6.5-14.5-14.5
		S-213.2,348.6-205.1,348.6z"/>
	<path d="M-132.9,468l-16.7-63.9c-0.2-0.9-0.8-1.5-1.7-1.9l-13.9-5.6l-2.1,5.2l12.6,5l14.8,56.6l-27.9-13.9c-0.8-0.4-1.6-0.4-2.4,0
		l-34.9,16.1l-34.9-16.1c-0.8-0.4-1.6-0.3-2.4,0l-27.9,13.9l14.8-56.6l12.6-5l-2.1-5.2l-13.9,5.6c-0.8,0.3-1.4,1-1.7,1.9l-16.7,63.9
		c-0.3,1.1,0.1,2.2,0.9,2.9c0.9,0.7,2,0.8,3,0.3l32.1-16.1l34.9,16.1c0.7,0.3,1.6,0.3,2.3,0l34.9-16.1l32.1,16.1
		c0.4,0.2,0.8,0.3,1.2,0.3c0.6,0,1.2-0.2,1.7-0.6C-133,470.2-132.6,469.1-132.9,468z"/>
</g>
</svg>
