<?xml version="1.0" encoding="utf-8"?>
<!-- Generator: Adobe Illustrator 19.0.0, SVG Export Plug-In . SVG Version: 6.00 Build 0)  -->
<svg version="1.1" id="Camada_1" xmlns="http://www.w3.org/2000/svg" xmlns:xlink="http://www.w3.org/1999/xlink" x="0px" y="0px"
	 viewBox="-356 322 150 150" style="enable-background:new -356 322 150 150;" xml:space="preserve">
<g>
	<path d="M-246,352.6c-21.3,0-72.5,0-101.9,0c-3.1,0-8.1,1.9-8.1,8.1c0,25.6,0,77.5,0,100.6c0,7.5,6.3,10.6,9.4,10.6
		c31.3,0,80,0,99.4,0c3.8,0,10.6-3.1,10.6-10.6c0-25,0-71.3,0-100C-236.6,355.1-242.9,352.6-246,352.6z M-325.4,375.1
		c5,0,9.4,4.4,9.4,9.4s-4.4,9.4-9.4,9.4s-9.4-4.4-9.4-9.4S-331,375.1-325.4,375.1z M-345.4,448.9l28.8-37.5l13.8,17.5l21.3-30l35,50
		H-345.4z"/>
	<path d="M-219.8,322h-73.8c-7.5,0-16.3,0-19.4,0s-5.6,3.8-5.6,8.8s2.5,8.8,5.6,8.8s11.9,0,19.4,0h56.3c7.5,0,13.8,6.3,13.8,13.8v55
		c0,7.5,0,16.3,0,20c0,3.1,3.8,6.3,8.8,6.3s8.8-2.5,8.8-6.3c0-3.1,0-12.5,0-20v-72.5C-206,328.3-212.3,322-219.8,322z"/>
</g>
</svg>
