<?xml version="1.0" encoding="utf-8"?>
<!-- Generator: Adobe Illustrator 19.0.0, SVG Export Plug-In . SVG Version: 6.00 Build 0)  -->
<svg version="1.1"
	 id="Camada_1" xmlns:cc="http://creativecommons.org/ns#" xmlns:rdf="http://www.w3.org/1999/02/22-rdf-syntax-ns#" xmlns:sodipodi="http://sodipodi.sourceforge.net/DTD/sodipodi-0.dtd" xmlns:dc="http://purl.org/dc/elements/1.1/" xmlns:inkscape="http://www.inkscape.org/namespaces/inkscape" xmlns:svg="http://www.w3.org/2000/svg"
	 xmlns="http://www.w3.org/2000/svg" xmlns:xlink="http://www.w3.org/1999/xlink" x="0px" y="0px" viewBox="-280 321.5 150 150"
	 style="enable-background:new -280 321.5 150 150;" xml:space="preserve">
<g transform="translate(0,-952.36218)">
	<path d="M-164.6,1273.9c-10.9,0-20.6,5-27,12.9c-1.2,1.5-1,3.8,0.5,5s3.8,1,5-0.5c5.1-6.3,12.7-10.3,21.4-10.3
		c15.2,0,27.5,12.3,27.5,27.5c0,15.2-12.3,27.5-27.5,27.5c-8.1,0-15.3-3.5-20.4-9c-1.3-1.5-3.6-1.6-5-0.2c-1.5,1.3-1.6,3.6-0.2,5
		c0,0,0,0,0,0c2.5,2.7,5.4,5,8.7,6.8c-3.7,2.7-8.9,2.4-12.3-0.9c-3.7-3.7-3.7-9.7,0-13.4c3.7-3.7,9.7-3.7,13.4,0
		c1,1,1.6,2.1,2.1,3.3c0.7,1.8,2.8,2.8,4.6,2.1c1.8-0.7,2.8-2.8,2.1-4.6c0,0,0,0,0,0c-0.8-2.1-2.1-4.1-3.7-5.7
		c-3.2-3.2-7.5-4.8-11.7-4.8c-4.2,0-8.5,1.6-11.7,4.8c-6.4,6.4-6.4,17,0,23.4c6.4,6.4,17,6.4,23.4,0c0.3-0.3,0.7-0.7,1-1.1
		c3.1,0.9,6.4,1.5,9.9,1.5c2,0,4-0.2,5.9-0.5l0,10.1l-62.6,62.5l-50-50l62.6-62.6h31.9l18.1,18.1v6.6c0,2,1.5,3.6,3.5,3.6
		c2,0,3.6-1.5,3.6-3.5c0,0,0-0.1,0-0.1v-8.1c0-0.9-0.4-1.9-1-2.5l-20.2-20.1c-0.7-0.7-1.5-1.1-2.5-1.1h-35c-0.9,0-1.8,0.4-2.5,1.1
		l-66.2,66.1c-1.4,1.4-1.4,3.6,0,5c0,0,0,0,0,0l55,55c1.4,1.4,3.6,1.4,5,0c0,0,0,0,0,0l66.1-66.2c0.7-0.7,1-1.6,1-2.5l0-13.6
		c12.7-5.1,21.6-17.6,21.6-32.1C-130,1289.4-145.5,1273.9-164.6,1273.9L-164.6,1273.9z M-211.2,1335.8c-0.1,0-0.3,0-0.4,0
		c-0.8,0.1-1.5,0.5-2.1,1.1l-36.4,36.4c-1.4,1.4-1.4,3.6-0.1,5c1.4,1.4,3.6,1.4,5,0.1c0,0,0,0,0,0l36.4-36.4c1.4-1.3,1.5-3.6,0.1-5
		C-209.2,1336.1-210.2,1335.7-211.2,1335.8L-211.2,1335.8z M-195.9,1351.4c-0.8,0.1-1.5,0.5-2.1,1.1l-36.4,36.4
		c-1.4,1.4-1.4,3.6,0,5c1.4,1.4,3.6,1.4,5,0l36.4-36.4c1.4-1.4,1.4-3.6,0-5c-0.7-0.7-1.6-1.1-2.6-1.1
		C-195.7,1351.4-195.8,1351.4-195.9,1351.4L-195.9,1351.4z"/>
</g>
</svg>
