<?xml version="1.0" encoding="utf-8"?>
<!-- Generator: Adobe Illustrator 19.0.0, SVG Export Plug-In . SVG Version: 6.00 Build 0)  -->
<svg version="1.1"
	 id="Camada_1" xmlns:cc="http://creativecommons.org/ns#" xmlns:rdf="http://www.w3.org/1999/02/22-rdf-syntax-ns#" xmlns:sodipodi="http://sodipodi.sourceforge.net/DTD/sodipodi-0.dtd" xmlns:dc="http://purl.org/dc/elements/1.1/" xmlns:inkscape="http://www.inkscape.org/namespaces/inkscape" xmlns:svg="http://www.w3.org/2000/svg"
	 xmlns="http://www.w3.org/2000/svg" xmlns:xlink="http://www.w3.org/1999/xlink" x="0px" y="0px" viewBox="-280 321.5 150 150"
	 style="enable-background:new -280 321.5 150 150;" xml:space="preserve">
<g transform="translate(0,-952.36218)">
	<path d="M-203.1,1274.2l61.7,25c1.8,0.7,3.1,2.7,3.1,4.6s-1.3,3.9-3.1,4.6l-6.9,2.8v19.3c2,1.5,3.3,3.9,3.3,6.6
		c0,4.6-3.8,8.3-8.3,8.3s-8.3-3.8-8.3-8.3c0-2.7,1.3-5,3.3-6.6v-15.3l-8.3,3.4v11.4c0,3.7-2.4,6.1-4.7,7.8c-0.1,0.1-0.3,0.1-0.4,0.2
		c-0.2,9.2-3.3,18.7-8.8,26.5c-5.7,8-14.2,14.3-24.5,14.3s-18.8-6.3-24.5-14.3c-5.5-7.7-8.6-17.3-8.8-26.5c-0.1-0.1-0.3-0.1-0.4-0.2
		c-2.3-1.7-4.7-4.1-4.7-7.8v-11.4l-25.2-10.2c-1.8-0.7-3.1-2.7-3.1-4.6c0-2,1.3-3.9,3.1-4.6l61.7-25
		C-205.5,1273.7-204,1273.8-203.1,1274.2L-203.1,1274.2z M-205,1284.3l-48.3,19.6l48.3,19.6l48.3-19.6L-205,1284.3z M-176.7,1322.8
		l-26.5,10.7c-1.2,0.5-2.6,0.5-3.8,0l-26.5-10.7v6.6c0,0.1,0.1,0.2,0.5,0.5c1,0.7,3.1,1.8,5.8,2.7c5.4,1.8,13.3,3.1,22,3.1
		s16.7-1.3,22-3.1c2.7-0.9,4.7-1.9,5.8-2.7c0.4-0.3,0.5-0.4,0.5-0.5V1322.8z M-182.1,1342.6c-6.3,1.8-14.2,2.9-22.9,2.9
		c-8.6,0-16.5-1.1-22.8-2.9c0.9,5.7,3.2,11.5,6.5,16.2c4.4,6.2,10,10.1,16.3,10.1c6.3,0,11.9-3.9,16.3-10.1
		C-185.4,1354.1-183.1,1348.3-182.1,1342.6z M-205,1380.5c16.5,0,31.5,3.9,42.7,10.6c11.2,6.6,19,16.4,19,27.8c0,2.6-2.4,5-5,5
		h-113.3c-2.6,0-5-2.4-5-5c0-11.4,7.8-21.1,19-27.8C-236.5,1384.5-221.5,1380.5-205,1380.5L-205,1380.5z M-205,1390.5
		c-14.9,0-28.3,3.7-37.6,9.2c-7,4.1-11.4,9.1-13.2,14.2h101.6c-1.8-5-6.2-10-13.2-14.2C-176.7,1394.2-190.1,1390.5-205,1390.5z"/>
</g>
</svg>
