<?xml version="1.0" encoding="utf-8"?>
<!-- Generator: Adobe Illustrator 19.0.0, SVG Export Plug-In . SVG Version: 6.00 Build 0)  -->
<svg version="1.1" id="Camada_1" xmlns="http://www.w3.org/2000/svg" xmlns:xlink="http://www.w3.org/1999/xlink" x="0px" y="0px"
	 viewBox="-284 322 150 150" style="enable-background:new -284 322 150 150;" xml:space="preserve">
<g>
	<g>
		<path d="M-205.5,401.7c20.5-1.9,36.4-19,36.4-39.7c0-22.1-17.9-40-40-40s-40,17.9-40,40c0,20.9,16,37.9,36.4,39.7
			c-33.9,1.9-60,30.1-60,65.6c0,2.6,2.1,4.7,4.7,4.7c2.6,0,4.7-2.1,4.7-4.7c0-32.2,23.3-56.4,54.1-56.4s54.1,24.2,54.1,56.4
			c0,2.6,2.1,4.7,4.7,4.7c2.6,0,4.7-2.1,4.7-4.7C-145.5,431.8-171.6,403.6-205.5,401.7z M-239.6,362c0-16.9,13.6-30.6,30.6-30.6
			s30.6,13.6,30.6,30.6c0,16.9-13.6,30.6-30.6,30.6S-239.6,378.7-239.6,362z"/>
	</g>
</g>
</svg>
