<?xml version="1.0" encoding="utf-8"?>
<!-- Generator: Adobe Illustrator 19.0.0, SVG Export Plug-In . SVG Version: 6.00 Build 0)  -->
<svg version="1.1" id="Camada_1" xmlns="http://www.w3.org/2000/svg" xmlns:xlink="http://www.w3.org/1999/xlink" x="0px" y="0px"
	 viewBox="-280 321.5 150 150" style="enable-background:new -280 321.5 150 150;" xml:space="preserve">
<g>
	<g>
		<path d="M-205.2,471.5c-2.2,0-4.3,0-6.5-0.2l-1.1-0.2l-7.8-20.6c-3.9-1.1-7.8-2.6-11.3-4.6l-17.4,11.1l-1.1-0.7
			c-5.4-4.1-10.2-8.7-14.3-14.1l-0.6-1.1l10.6-18.2c-1.9-3.5-3.3-7.4-4.5-11.3l-20.2-5.6l-0.2-1.3c-0.4-2.8-0.4-5.6-0.4-8.4
			c0-3.5,0.2-6.9,0.7-10.4l0.2-1.1l20.8-6.1c1.1-3.5,2.8-7.1,4.6-10.4l-9.5-19.1l0.7-0.9c4.3-5.2,9.3-9.7,14.8-13.5l1.1-0.7
			l16.3,12.2c3.3-1.7,6.7-3,10.2-3.9l4.1-20l1.3-0.2c7.2-0.9,14.7-0.7,21.7,0.4l1.3,0.2l3.5,20.2c3.2,0.9,6.1,2.2,8.9,3.7l19.5-9.8
			l0.9,0.7c4.5,3.5,8.5,7.6,12.1,11.9l0.7,0.9l-9.8,19.1c1.7,3,3,6.1,4.1,9.5l20.6,5.9l0.2,1.1c0.4,3.3,0.7,6.7,0.7,10
			c0,2.6-0.2,5.2-0.4,7.8l-0.2,1.3l-20.4,6.1c-0.9,3.3-2.2,6.5-3.7,9.5l10.2,19.3l-0.7,0.9c-3.3,4.5-7.4,8.7-11.7,12.4l-0.9,0.7
			l-18.7-9.8c-3.3,2-6.9,3.5-10.6,4.8l-5.4,20.6l-1.5,0.9C-197.8,471.1-201.5,471.5-205.2,471.5z M-210.2,467.6
			c4.8,0.4,9.7,0.2,14.3-0.4l5.2-20.2l0.9-0.4c4.1-1.3,8-3.2,11.7-5.4l0.9-0.6l18.4,9.7c3.5-3,6.7-6.3,9.5-10l-10-18.9l0.4-0.9
			c1.7-3.3,3.2-6.9,4.1-10.6l0.2-0.9l20-6.1c0.2-2,0.2-4.1,0.2-6.3c0-2.8-0.2-5.6-0.6-8.4l-20.2-5.9l0.2-0.9
			c-1.1-3.7-2.6-7.2-4.5-10.6l-0.6-0.9l9.7-18.7c-3-3.5-6.1-6.9-9.8-9.7l-18.9,9.7l-0.9-0.6c-3.2-1.7-6.7-3.2-10.2-4.3l-1.1-0.4
			l-3.3-19.9c-5.9-0.9-12.1-0.9-18-0.4l-3.9,19.7l-1.1,0.4c-4.1,0.9-8,2.6-11.7,4.5l-1.1,0.6l-16-12.1c-4.5,3.2-8.7,7.1-12.2,11.1
			l9.3,18.7l-0.6,0.9c-2.2,3.5-3.9,7.4-5.2,11.3l-0.4,0.9l-20.2,5.9c-0.4,2.8-0.6,5.8-0.6,8.7c0,2.2,0.2,4.5,0.4,6.7l19.9,5.4
			l0.2,1.1c1.1,4.3,2.8,8.5,5,12.4l0.6,0.9l-10.4,18c3.5,4.3,7.4,8.2,11.7,11.7l17.1-11l0.9,0.6c3.9,2.2,8.2,3.9,12.4,5l0.9,0.2
			L-210.2,467.6z"/>
	</g>
	<g>
		<path d="M-205.2,430.1v-1.9c1.1,0,2.4,0,3.5-0.2l0.2,1.9C-202.6,430.1-203.9,430.1-205.2,430.1z M-197.6,429.4l-0.4-1.9
			c1.1-0.2,2.4-0.6,3.5-0.9l0.6,1.7C-195.2,428.6-196.5,429-197.6,429.4z M-190.5,426.8l-0.7-1.7c1.1-0.6,2.2-1.1,3.2-1.9l0.9,1.5
			C-188.1,425.5-189.2,426.2-190.5,426.8z M-184,422.7l-1.1-1.5c0.9-0.7,1.9-1.5,2.6-2.4l1.3,1.3C-182,421-183.1,421.8-184,422.7z
			 M-178.6,417.3l-1.5-1.1c0.7-0.9,1.5-1.9,2-3l1.7,0.9C-177.2,415.1-177.9,416.2-178.6,417.3z M-174.7,410.8l-1.7-0.7
			c0.6-1.1,0.9-2.2,1.3-3.3l1.7,0.6C-173.6,408.4-174.2,409.5-174.7,410.8z M-172.3,403.6l-1.9-0.4c0.2-1.1,0.4-2.4,0.6-3.5l1.9,0.2
			C-171.8,401-172,402.3-172.3,403.6z M-173.4,396c0-1.1-0.2-2.4-0.2-3.5l1.9-0.2c0.2,1.3,0.2,2.6,0.4,3.7H-173.4z M-236.9,394.7
			l-1.9-0.2c0-1.3,0.2-2.6,0.4-3.7l1.9,0.4C-236.7,392.2-236.7,393.4-236.9,394.7z M-174.4,388.7c-0.4-1.1-0.6-2.2-1.1-3.5l1.7-0.6
			c0.4,1.1,0.7,2.4,1.1,3.7L-174.4,388.7z M-235.6,387.6l-1.9-0.6c0.4-1.3,0.7-2.4,1.3-3.5l1.7,0.7
			C-234.9,385.2-235.3,386.3-235.6,387.6z M-177,382c-0.6-1.1-1.1-2-1.9-3.2l1.5-1.1c0.7,1.1,1.3,2.2,1.9,3.3L-177,382z
			 M-232.8,380.9l-1.7-0.9c0.6-1.1,1.3-2.2,2-3.2l1.5,1.1C-231.5,378.9-232.3,379.8-232.8,380.9z M-180.9,376.1
			c-0.7-0.9-1.7-1.9-2.4-2.6l1.3-1.3c0.9,0.9,1.9,1.9,2.6,2.8L-180.9,376.1z M-228.6,375.2l-1.3-1.3c0.9-0.9,1.9-1.9,2.8-2.6
			l1.3,1.5C-226.9,373.3-227.8,374.2-228.6,375.2z M-186.1,371.1c-0.9-0.7-2-1.5-3-2l0.9-1.7c1.1,0.6,2.2,1.3,3.2,2L-186.1,371.1z
			 M-223.2,370.3l-1.1-1.5c1.1-0.7,2.2-1.3,3.3-2l0.9,1.7C-221.1,369.1-222.3,369.6-223.2,370.3z M-192.2,367.6
			c-1.1-0.6-2.2-0.9-3.3-1.3l0.6-1.9c1.3,0.4,2.4,0.7,3.5,1.3L-192.2,367.6z M-216.9,367l-0.7-1.7c1.1-0.6,2.4-0.9,3.7-1.1l0.6,1.9
			C-214.7,366.1-215.8,366.5-216.9,367z M-199.1,365.3c-1.1-0.2-2.4-0.4-3.5-0.6l0.2-1.9c1.3,0.2,2.6,0.2,3.7,0.6L-199.1,365.3z
			 M-209.8,365.2l-0.2-1.9c1.3-0.2,2.6-0.4,3.7-0.4v1.9C-207.6,364.8-208.7,365-209.8,365.2z"/>
	</g>
</g>
</svg>
