<?xml version="1.0" encoding="utf-8"?>
<!-- Generator: Adobe Illustrator 19.0.0, SVG Export Plug-In . SVG Version: 6.00 Build 0)  -->
<svg version="1.1" id="Camada_1" xmlns="http://www.w3.org/2000/svg" xmlns:xlink="http://www.w3.org/1999/xlink" x="0px" y="0px"
	 viewBox="-280 321.5 150 150" style="enable-background:new -280 321.5 150 150;" xml:space="preserve">
<g>
	<path d="M-230,449.4c-0.8,0-1.5-0.5-1.8-1.3c-0.3-1,0.2-2,1.2-2.4l8.1-2.6l-0.6-1.9l-8.1,2.6c-0.2,0.1-0.4,0.1-0.6,0.1
		c-0.8,0-1.5-0.5-1.8-1.3c-0.3-1,0.2-2,1.2-2.4l8.1-2.6l-1.6-4.9l-8.1,2.6l-8.1,2.6l8.8,27.6c1.4,4.5,6.3,7,10.7,5.5
		c2.2-0.7,3.9-2.2,5-4.2c1-2,1.2-4.3,0.5-6.5l-0.9-2.8l-8.1,2.6c-0.2,0.1-0.4,0.1-0.6,0.1c-0.8,0-1.5-0.5-1.8-1.3
		c-0.3-1,0.2-2,1.2-2.4l8.1-2.6l-0.6-1.9l-8.1,2.6c-0.2,0.1-0.4,0.1-0.6,0.1c-0.8,0-1.5-0.5-1.8-1.3c-0.3-1,0.2-2,1.2-2.4l8.1-2.6
		l-0.6-1.9l-8.1,2.6C-229.6,449.3-229.8,449.4-230,449.4z"/>
	<path d="M-276,408.4c-2,3.9-2.4,8.3-1,12.5c2.6,8,10.7,12.6,18.7,11.1l-9.9-30.9C-271.5,402.5-274.3,405.1-276,408.4z"/>
	<path d="M-226.4,424.7c-0.2,0.1-0.4,0.1-0.6,0.1c-0.8,0-1.5-0.5-1.8-1.3c-0.3-1,0.2-2,1.2-2.4l7.6-2.4l-0.6-1.9l-7.6,2.4
		c-0.2,0.1-0.4,0.1-0.6,0.1c-0.8,0-1.5-0.5-1.8-1.3c-0.3-1,0.2-2,1.2-2.4l7.6-2.4l-0.6-1.9l-7.6,2.4c-0.2,0.1-0.4,0.1-0.6,0.1
		c-0.8,0-1.5-0.5-1.8-1.3c-0.3-1,0.2-2,1.2-2.4l7.6-2.4l-0.6-1.9l-7.6,2.4c-0.2,0.1-0.4,0.1-0.6,0.1c-0.8,0-1.5-0.5-1.8-1.3
		c-0.3-1,0.2-2,1.2-2.4l7.6-2.4l-0.6-1.9l-7.6,2.4c-0.2,0.1-0.4,0.1-0.6,0.1c-0.8,0-1.5-0.5-1.8-1.3c-0.3-1,0.2-2,1.2-2.4l7.6-2.4
		l-0.6-1.9l-7.6,2.4c-0.2,0.1-0.4,0.1-0.6,0.1c-0.8,0-1.5-0.5-1.8-1.3c-0.3-1,0.2-2,1.2-2.4l7.6-2.4l-0.6-1.9l-7.6,2.4
		c-0.2,0.1-0.4,0.1-0.6,0.1c-0.8,0-1.5-0.5-1.8-1.3c-0.3-1,0.2-2,1.2-2.4l7.6-2.4l-1.2-3.9l-35.1,11.2l14.1,44l5.9-1.9l11.7-3.7
		l17.6-5.6l-1.2-3.9L-226.4,424.7z"/>
	<path d="M-134.8,387.5c2-3.9,2.4-8.3,1-12.5c-1.3-4.2-4.2-7.6-8.1-9.6c-3.3-1.7-7-2.2-10.7-1.5l9.9,30.9
		C-139.3,393.4-136.5,390.9-134.8,387.5z"/>
	<polygon points="-215.7,419.3 -213.7,425.7 -132.2,439.7 -170,321.5 -228.2,380.2 -224.5,392.1 -222.7,397.5 -222.7,397.5 
		-222.7,397.5 -221,403 -217.5,413.9 -217.5,413.9 -217.5,413.9 -215.7,419.3 -215.7,419.3 	"/>
</g>
</svg>
