<?xml version="1.0" encoding="utf-8"?>
<!-- Generator: Adobe Illustrator 19.0.0, SVG Export Plug-In . SVG Version: 6.00 Build 0)  -->
<svg version="1.1" id="Camada_1" xmlns="http://www.w3.org/2000/svg" xmlns:xlink="http://www.w3.org/1999/xlink" x="0px" y="0px"
	 viewBox="-290 321.8 150 150" style="enable-background:new -290 321.8 150 150;" xml:space="preserve">
<g>
	<path d="M-248.4,428.5c-2.3,0-4.2-1.8-4.2-4.2s1.8-4.2,4.2-4.2c2.3,0,4.2,1.8,4.2,4.2S-246,428.5-248.4,428.5z M-248.4,422.8
		c-0.8,0-1.7,0.7-1.7,1.7s0.7,1.7,1.7,1.7c0.8,0,1.7-0.7,1.7-1.7S-247.3,422.8-248.4,422.8z"/>
</g>
<g>
	<g>
		<path d="M-195.2,408.8c-11.2,0-20.3-9.1-20.3-20.3c0-11.2,9.1-20.3,20.3-20.3s20.3,9.1,20.3,20.3
			C-174.9,399.8-184.2,408.8-195.2,408.8z M-195.2,370.8c-9.7,0-17.8,8-17.8,17.8s7.9,17.8,17.8,17.8c9.7,0,17.8-8,17.8-17.8
			S-185.5,370.8-195.2,370.8z"/>
	</g>
	<g>
		<path d="M-264.8,431.1c-6.4,0-11.6-5.2-11.6-11.6s5.2-11.6,11.6-11.6s11.6,5.2,11.6,11.6S-258.4,431.1-264.8,431.1z M-264.8,410.5
			c-5,0-9.1,4-9.1,9.1s4,9.1,9.1,9.1s9.1-4,9.1-9.1S-259.7,410.5-264.8,410.5z"/>
	</g>
	<g>
		<path d="M-254.6,398.8h-20.6c-0.7,0-1.3-0.5-1.3-1.3v-31.3c0-0.7,0.5-1.3,1.3-1.3h20.6c0.7,0,1.3,0.5,1.3,1.3v31.5
			C-253.2,398.3-253.7,398.8-254.6,398.8z M-273.8,396.2h18.1v-29h-18.1V396.2z"/>
	</g>
	<g>
		<path d="M-148.9,349.5c-2.7-2.3-6-3.9-9.9-3.9h-72.4c-3.7,0-7,1.3-9.7,3.5h-11.2v-4.5c0-0.7-0.5-1.3-1.3-1.3h-22.3
			c-0.7,0-1.3,0.5-1.3,1.3v4.7c-5.7,0.5-10.1,5.2-10.1,10.9v41.1c-2.5,1.2-2.8,8.9-2.8,12.2c0,3.4,0.3,11.1,2.8,12.2v13.6
			c0,6,4.9,10.9,10.9,10.9h125.4c6,0,10.9-4.9,10.9-10.9v-79.1C-140,354.9-143.9,350.3-148.9,349.5z M-229.3,362.4h68.7v51.3h-68.7
			C-229.3,413.7-229.3,362.4-229.3,362.4z M-274.6,346h20.1v3.4h-20.1C-274.6,349.3-274.6,346-274.6,346z M-142.5,439.3
			c0,4.7-3.9,8.4-8.4,8.4h-125.4c-4.7,0-8.4-3.9-8.4-8.4v-14.9c1.3-2.7,1.7-8.2,1.7-10.9c0-2.7-0.2-8.4-1.7-10.9v-42.4
			c0-4.7,3.9-8.4,8.4-8.4h0.5h22.6h10.1c-1.8,2.5-2.8,5.5-2.8,8.7v55.1c0,8.2,6.7,14.9,14.9,14.9h72.4c8.2,0,14.9-6.7,14.9-14.9
			v-55.1c0-2.3-0.7-4.7-1.7-6.7c1.8,1.5,3,3.9,3,6.4v79.1H-142.5z"/>
	</g>
</g>
</svg>
