<?xml version="1.0" encoding="utf-8"?>
<!-- Generator: Adobe Illustrator 19.0.0, SVG Export Plug-In . SVG Version: 6.00 Build 0)  -->
<svg version="1.1"
	 id="Camada_1" xmlns:inkscape="http://www.inkscape.org/namespaces/inkscape" xmlns:cc="http://creativecommons.org/ns#" xmlns:rdf="http://www.w3.org/1999/02/22-rdf-syntax-ns#" xmlns:svg="http://www.w3.org/2000/svg" xmlns:sodipodi="http://sodipodi.sourceforge.net/DTD/sodipodi-0.dtd" xmlns:dc="http://purl.org/dc/elements/1.1/"
	 xmlns="http://www.w3.org/2000/svg" xmlns:xlink="http://www.w3.org/1999/xlink" x="0px" y="0px" viewBox="-280 321.5 150 150"
	 style="enable-background:new -280 321.5 150 150;" xml:space="preserve">
<g transform="translate(0,-952.36218)">
	<path d="M-273.2,1299.4c-3.7,0-6.8,3.1-6.8,6.8v85.2c0,3.7,3.1,6.8,6.8,6.8h136.4c3.7,0,6.8-3.1,6.8-6.8v-85.2
		c0-3.7-3.1-6.8-6.8-6.8C-136.8,1299.4-273.2,1299.4-273.2,1299.4z M-268.8,1309.7h127.5l-63.8,49.8
		C-205,1359.4-268.8,1309.7-268.8,1309.7z M-269.8,1321.8l34.6,27l-34.6,32.4C-269.8,1381.2-269.8,1321.8-269.8,1321.8z
		 M-140.2,1321.8v59.4l-34.6-32.4C-174.8,1348.8-140.2,1321.8-140.2,1321.8z M-227.1,1355.1l18.9,14.8c1.8,1.4,4.4,1.4,6.3,0
		l18.9-14.8l35.1,32.9h-114.3C-262.2,1388.1-227.1,1355.1-227.1,1355.1z"/>
</g>
</svg>
