<?xml version="1.0" encoding="utf-8"?>
<!-- Generator: Adobe Illustrator 19.0.0, SVG Export Plug-In . SVG Version: 6.00 Build 0)  -->
<svg version="1.1" id="Camada_1" xmlns="http://www.w3.org/2000/svg" xmlns:xlink="http://www.w3.org/1999/xlink" x="0px" y="0px"
	 viewBox="-280 321.5 150 150" style="enable-background:new -280 321.5 150 150;" xml:space="preserve">
<g>
	<path d="M-162.4,321.5h-85.2c-17.9,0-32.4,14.5-32.4,32.4v85.2c0,17.9,14.5,32.4,32.4,32.4h85.2c17.9,0,32.4-14.5,32.4-32.4v-85.2
		C-130,336-144.5,321.5-162.4,321.5z M-178.6,345.5c0-2.9,2.4-5.3,5.3-5.3h15.9c2.9,0,5.3,2.4,5.3,5.3v15.9c0,2.9-2.4,5.3-5.3,5.3
		h-15.9c-2.9,0-5.3-2.4-5.3-5.3C-178.6,361.3-178.6,345.5-178.6,345.5z M-162.4,463.5h-85.2c-13.5,0-24.4-11-24.4-24.4v-63.4h34.9
		c7.6-9.3,19.2-15.3,32.1-15.3c13,0,24.5,6,32.1,15.3h34.9v63.4C-138,452.6-148.9,463.5-162.4,463.5z"/>
	<circle cx="-205" cy="399.7" r="34.5"/>
</g>
</svg>
