<?xml version="1.0" encoding="utf-8"?>
<!-- Generator: Adobe Illustrator 19.0.0, SVG Export Plug-In . SVG Version: 6.00 Build 0)  -->
<svg version="1.1" id="Camada_1" xmlns="http://www.w3.org/2000/svg" xmlns:xlink="http://www.w3.org/1999/xlink" x="0px" y="0px"
	 viewBox="-280 321.5 150 150" style="enable-background:new -280 321.5 150 150;" xml:space="preserve">
<path d="M-187.9,321.5h8.6c2.6,0,4.7,2.1,4.7,4.7v32.3c0,2.6-2.1,4.7-4.7,4.7h-8.6V321.5L-187.9,321.5z M-197.9,321.5h-4.7
	c-28.1,0-32.8,42.2-32.8,75c0,32.8,4.7,75,32.8,75h4.7v-41.7h0h-3.9c-5.2,0-9.4-4.2-9.4-9.4v-23.1v-23.1c0-5.2,4.2-9.4,9.4-9.4h3.9
	h0V321.5L-197.9,321.5z M-187.9,471.5h8.6c2.6,0,4.7-2.1,4.7-4.7v-32.3c0-2.6-2.1-4.7-4.7-4.7h-8.6V471.5z"/>
</svg>
