<?xml version="1.0" encoding="utf-8"?>
<!-- Generator: Adobe Illustrator 19.0.0, SVG Export Plug-In . SVG Version: 6.00 Build 0)  -->
<svg version="1.1" id="Camada_1" xmlns="http://www.w3.org/2000/svg" xmlns:xlink="http://www.w3.org/1999/xlink" x="0px" y="0px"
	 viewBox="-280 321.5 150 150" style="enable-background:new -280 321.5 150 150;" xml:space="preserve">
<title>Artboard 29</title>
<g>
	<path d="M-130,336.9v86.7c0,11.8-8.4,21.9-20,24.1l-55.5,9.1l-0.2-16.1c0-1.3-0.3-2.7-0.9-3.9l-1.4-3.1l33-16.4
		c3.5-1.7,7.8-0.3,9.5,3.2c0.5,1,0.7,2,0.7,3.1c0,5.7,4.6,10.3,10.3,10.3c5.7,0,10.3-4.6,10.3-10.3V344h-82.5v49.6l-6.4-13.8
		l-7.8-16.7v-26.1c0-3.9,3.2-7.1,7.1-7.1h96.7C-133.2,329.9-130,333-130,336.9C-130,336.9-130,336.9-130,336.9z M-245.3,376.1
		l-18.4,8.6l30,64.6l15.5,13.4c0.8,0.7,2.1,0.5,2.7-0.3c0.3-0.3,0.4-0.8,0.4-1.2l-0.3-20.4L-245.3,376.1z M-254.3,427.4l-18-39
		c-0.7-1.3-0.9-2.9-0.6-4.3c0.4-1.9,1.7-3.6,3.6-4.4l0,0l2.6-1.2l18.4-8.6l-3.6-7.7l0,0l-2.5-5.5c-1.7-3.6-5.9-5.1-9.5-3.5l-5.4,2.5
		c-3.6,1.7-5.1,5.9-3.5,9.5c0,0,0,0,0,0l2.5,5.5l0.6,1.3l-2.6,1.2l0,0c-1.9,0.8-3.5,2.1-4.8,3.7c-3.2,4-3.9,9.5-1.7,14.2l18,39.2
		c1.9,4.1,8.3,1.4,6.5-2.8L-254.3,427.4z M-212.4,359.8h53.9c2,0,3.6-1.6,3.6-3.6c0-2-1.6-3.6-3.6-3.6h-53.9c-2,0-3.6,1.6-3.6,3.6
		C-216,358.2-214.4,359.8-212.4,359.8L-212.4,359.8z M-212.4,374h53.9c2,0,3.6-1.6,3.6-3.6c0-2-1.6-3.6-3.6-3.6h-53.9
		c-2,0-3.6,1.6-3.6,3.6C-216,372.4-214.4,374-212.4,374L-212.4,374z M-212.4,388.1h53.9c2,0,3.6-1.6,3.6-3.6c0-2-1.6-3.6-3.6-3.6
		h-53.9c-2,0-3.6,1.6-3.6,3.6C-216,386.5-214.4,388.1-212.4,388.1L-212.4,388.1z M-212.4,402.3h53.9c2,0,3.6-1.6,3.6-3.6
		c0-2-1.6-3.6-3.6-3.6h-53.9c-2,0-3.6,1.6-3.6,3.6C-216,400.7-214.4,402.3-212.4,402.3L-212.4,402.3z M-185.2,412.9
		c0-2-1.6-3.6-3.6-3.6l0,0h-23.7c-2,0-3.6,1.6-3.6,3.6s1.6,3.6,3.6,3.6h23.7c1.9,0,3.4-1.5,3.6-3.3V412.9z"/>
</g>
</svg>
