<?xml version="1.0" encoding="utf-8"?>
<!-- Generator: Adobe Illustrator 19.0.0, SVG Export Plug-In . SVG Version: 6.00 Build 0)  -->
<svg version="1.1" id="Camada_1" xmlns="http://www.w3.org/2000/svg" xmlns:xlink="http://www.w3.org/1999/xlink" x="0px" y="0px"
	 viewBox="-280 321.5 150 150" style="enable-background:new -280 321.5 150 150;" xml:space="preserve">
<path d="M-148.5,432.3c-4.1-2.7-6.3-6.4-7.5-9.7c6.6-7.2,10.5-16.3,10.5-26.1c0-23-21.3-41.6-47.3-41.6s-47.3,18.6-47.3,41.6
	s21.3,41.6,47.5,41.6c9.5,0,18.3-2.5,25.8-6.7c6.7,4.1,13.9,3.9,18.1,3.3C-147.7,434.5-147.4,432.9-148.5,432.3z M-205.4,394.5
	l-3.4,3l1.1,4.4c0.2,0.8-0.8,1.6-1.4,1.1l-3.9-2.3l-3.9,2.3c-0.8,0.5-1.7-0.2-1.4-1.1l1.1-4.4l-3.4-3c-0.6-0.6-0.3-1.6,0.6-1.7
	l4.5-0.3l1.7-4.2c0.3-0.8,1.4-0.8,1.7,0l1.7,4.2l4.5,0.3C-205.1,392.8-204.8,393.8-205.4,394.5z M-185.1,394.5l-3.4,3l1.1,4.4
	c0.2,0.8-0.8,1.6-1.4,1.1l-3.9-2.3l-3.9,2.3c-0.8,0.5-1.7-0.2-1.4-1.1l1.1-4.4l-3.4-3c-0.6-0.6-0.3-1.6,0.6-1.7l4.5-0.3l1.7-4.2
	c0.3-0.8,1.4-0.8,1.7,0l1.7,4.2l4.5,0.3C-184.8,392.8-184.5,393.8-185.1,394.5z M-164.8,394.5l-3.4,3l1.1,4.4
	c0.2,0.8-0.8,1.6-1.4,1.1l-3.9-2.3l-3.9,2.3c-0.8,0.5-1.7-0.2-1.4-1.1l1.1-4.4l-3.4-3c-0.6-0.6-0.3-1.6,0.6-1.7l4.5-0.3l1.7-4.2
	c0.3-0.8,1.4-0.8,1.7,0l1.7,4.2l4.5,0.3C-164.5,392.8-164.1,393.8-164.8,394.5z M-255.7,377.8c-5.5-5.9-8.8-13.4-8.8-21.7
	c0-19.1,17.7-34.5,39.5-34.5c18.1,0,33.4,10.8,38.1,25.5c-1.9-0.2-3.9-0.3-5.9-0.3c-26.4,0-48.6,16.6-54.2,38.8
	c-5.3,3-11.1,2.8-14.4,2.3c-0.9-0.2-1.3-1.4-0.5-2C-258.5,383.7-256.6,380.6-255.7,377.8z M-192.9,446.2c2,0,3.9-0.2,5.9-0.3
	c-4.5,14.8-19.8,25.6-38,25.6c-8,0-15.3-2-21.4-5.6c-5.6,3.3-11.6,3.3-15,2.7c-0.9-0.2-1.3-1.4-0.5-2c3.4-2.2,5.2-5.3,6.3-8.1
	c-5.5-5.9-8.8-13.4-8.8-21.7c0-12,7-22.5,17.5-28.8C-241,429.9-219,446.2-192.9,446.2z"/>
</svg>
