<?xml version="1.0" encoding="utf-8"?>
<!-- Generator: Adobe Illustrator 19.0.0, SVG Export Plug-In . SVG Version: 6.00 Build 0)  -->
<svg version="1.1" id="Camada_1" xmlns="http://www.w3.org/2000/svg" xmlns:xlink="http://www.w3.org/1999/xlink" x="0px" y="0px"
	 viewBox="-348 322 150 150" style="enable-background:new -348 322 150 150;" xml:space="preserve">
<g>
	<path d="M-199.4,360.9l-32.8-32.8c-1.3-1.3-3.4-1.7-5.1-1c-1.8,0.7-2.9,2.4-2.9,4.3v14.1c-44.1,1.3-65.6,21.2-65.6,60.9
		c0,2.1,1.4,3.9,3.4,4.5c0.4,0.1,0.9,0.2,1.3,0.2c1.6,0,3.1-0.8,4-2.2c15-24.2,30.4-25.6,57-25.9v14c0,1.9,1.1,3.6,2.9,4.3
		c1.8,0.7,3.8,0.3,5.1-1l32.8-32.8C-197.5,365.7-197.5,362.7-199.4,360.9z M-230.8,385.7v-7.4c0-1.3-0.5-2.4-1.4-3.3
		c-0.9-0.9-2.2-1.5-3.3-1.4c-24.4,0.2-43.1,0.3-59.4,17.1c5.2-24.6,24.1-35.8,59.5-35.8c2.6,0,4.7-2.1,4.7-4.7v-7.4l21.5,21.5
		L-230.8,385.7z"/>
	<path d="M-221.4,406.4c-2.6,0-4.7,2.1-4.7,4.7v44.5c0,1.3-1.1,2.3-2.3,2.3h-107.8c-1.3,0-2.3-1.1-2.3-2.3v-79.7
		c0-1.3,1-2.3,2.3-2.3h21.1c2.6,0,4.7-2.1,4.7-4.7s-2.1-4.7-4.7-4.7h-21.1c-6.5,0-11.7,5.3-11.7,11.7v79.7c0,6.5,5.3,11.7,11.7,11.7
		h107.8c6.5,0,11.7-5.3,11.7-11.7v-44.5C-216.8,408.5-218.8,406.4-221.4,406.4z"/>
</g>
</svg>
