<?xml version="1.0" encoding="utf-8"?>
<!-- Generator: Adobe Illustrator 19.0.0, SVG Export Plug-In . SVG Version: 6.00 Build 0)  -->
<svg version="1.1" id="Camada_1" xmlns="http://www.w3.org/2000/svg" xmlns:xlink="http://www.w3.org/1999/xlink" x="0px" y="0px"
	 viewBox="-280 321.5 150 150" style="enable-background:new -280 321.5 150 150;" xml:space="preserve">
<path d="M-204,375.9c0-3.7,2.9-6.5,6.5-6.5c3.7,0,6.5,2.9,6.5,6.5c0,3.7-2.9,6.5-6.5,6.5C-201.2,382.5-204,379.4-204,375.9z
	 M-220.5,382.5c3.7,0,6.5-2.9,6.5-6.5s-2.9-6.5-6.5-6.5c-3.7,0-6.5,2.9-6.5,6.5C-227,379.6-224,382.5-220.5,382.5z M-243.3,382.5
	L-243.3,382.5c3.7,0,6.5-2.9,6.5-6.5s-2.9-6.5-6.5-6.5l0,0c-3.7,0-6.5,2.9-6.5,6.5C-249.8,379.6-246.8,382.5-243.3,382.5z
	 M-268.8,406.9c-7.3-8.9-11.2-19.8-11.2-31c0-29.2,26.8-53,59.7-53s59.7,23.8,59.7,53c0,29.2-26.8,53-59.7,53
	c-10.4,0-20.6-2.4-29.7-7c-4.8,2.2-10.1,3.5-15.8,3.5c-1.9,0-3.8-0.2-5.7-0.5c-2.7-0.3-4.9-2.4-5.6-5.1c-0.6-2.7,0.5-5.4,2.9-7
	C-272,411.3-270.3,409.3-268.8,406.9z M-259.1,402.6l2.1,2.2l-1.1,2.9c-1,2.6-2.2,4.9-3.7,7c3.4-0.5,6.4-1.4,9.1-3.2l2.6-1.6
	l2.6,1.4c8.1,4.6,17.4,7,27.1,7c27.3,0,49.5-19.1,49.5-42.8c0-23.6-22.2-42.8-49.5-42.8s-49.5,19.1-49.5,42.8
	C-269.9,385.6-266.1,394.9-259.1,402.6z M-151.9,389.5c-7,28.4-35.4,49.8-69.3,49.8c-2.4,0-4.8-0.2-7-0.3c6.4,18,25.4,31.1,48,31.1
	c10.1,0,19.5-2.6,27.3-7c7,4.3,14.7,4.1,19.1,3.5c1.3-0.2,1.6-1.8,0.5-2.6c-4.3-2.9-6.7-6.7-8-10.2c7-7.5,11.2-17.2,11.2-27.8
	C-129.8,410.9-138.6,397.5-151.9,389.5z"/>
</svg>
