<?xml version="1.0" encoding="utf-8"?>
<!-- Generator: Adobe Illustrator 19.0.0, SVG Export Plug-In . SVG Version: 6.00 Build 0)  -->
<svg version="1.1" id="Camada_1" xmlns="http://www.w3.org/2000/svg" xmlns:xlink="http://www.w3.org/1999/xlink" x="0px" y="0px"
	 viewBox="-280 321.5 150 150" style="enable-background:new -280 321.5 150 150;" xml:space="preserve">
<style type="text/css">
	.st0{fill:none;}
</style>
<rect x="-280" y="321.5" class="st0" width="149.9" height="149.9"/>
<g>
	<path d="M-132,352.8h-20.7v-21.6c0-0.7-0.3-1.3-0.9-1.7c-0.6-0.4-1.3-0.4-1.9-0.1l-49.5,23.1l-49.5-23.1c-0.6-0.3-1.3-0.2-1.9,0.1
		c-0.6,0.4-0.9,1-0.9,1.7v21.6H-278c-1.1,0-2,0.9-2,2v107.1c0,1.1,0.9,2,2,2h146c1.1,0,2-0.9,2-2V354.7
		C-130,353.7-130.9,352.8-132,352.8z M-253.3,354.7v-20.5l47.1,22V459l-47.1-22V354.7z M-203.8,356.2l47.1-22v20.5V437l-47.1,22
		V356.2z M-276,356.7h20.3v23.6l-8.4,0c-0.7,0-1.2,0.5-1.2,1.2c0,0.7,0.5,1.2,1.2,1.2c0,0,0,0,0,0l8.4,0v24.4l-8.4,0
		c-0.7,0-1.2,0.5-1.2,1.2c0,0.7,0.5,1.2,1.2,1.2c0,0,0,0,0,0l8.4,0v24.4l-8.4,0c-0.7,0-1.2,0.5-1.2,1.2c0,0.7,0.5,1.2,1.2,1.2
		c0,0,0,0,0,0l8.4,0v1.5c0,0.5,0.3,0.9,0.7,1.1l45.1,21H-276V356.7z M-134,459.9h-66.2l45.1-21c0.4-0.2,0.7-0.6,0.7-1.1v-1.5l8.4,0
		c0,0,0,0,0,0c0.7,0,1.2-0.5,1.2-1.2c0-0.7-0.5-1.2-1.2-1.2l-8.4,0v-24.4l8.4,0c0,0,0,0,0,0c0.7,0,1.2-0.5,1.2-1.2
		c0-0.7-0.5-1.2-1.2-1.2l-8.4,0v-24.4l8.4,0c0,0,0,0,0,0c0.7,0,1.2-0.5,1.2-1.2c0-0.7-0.5-1.2-1.2-1.2l-8.4,0v-23.6h20.3
		C-134,356.7-134,459.9-134,459.9z"/>
	<path d="M-245,364.1l28.6,13.3c0.2,0.1,0.3,0.1,0.5,0.1c0.4,0,0.9-0.3,1.1-0.7c0.3-0.6,0-1.3-0.6-1.6l-28.6-13.3
		c-0.6-0.3-1.3,0-1.6,0.6C-245.8,363.1-245.6,363.8-245,364.1z"/>
	<path d="M-215.3,402l-28.6-13.4c-0.6-0.3-1.3,0-1.6,0.6c-0.3,0.6,0,1.3,0.6,1.6l28.6,13.3c0.2,0.1,0.3,0.1,0.5,0.1
		c0.4,0,0.9-0.3,1.1-0.7C-214.5,403-214.7,402.3-215.3,402z"/>
	<path d="M-215.3,428.8l-28.6-13.4c-0.6-0.3-1.3,0-1.6,0.6c-0.3,0.6,0,1.3,0.6,1.6l28.6,13.4c0.2,0.1,0.3,0.1,0.5,0.1
		c0.4,0,0.9-0.3,1.1-0.7C-214.5,429.8-214.7,429.1-215.3,428.8z"/>
	<path d="M-194.2,377.5c0.2,0,0.3,0,0.5-0.1l28.6-13.3c0.6-0.3,0.9-1,0.6-1.6c-0.3-0.6-1-0.9-1.6-0.6l-28.6,13.3
		c-0.6,0.3-0.9,1-0.6,1.6C-195,377.3-194.6,377.5-194.2,377.5z"/>
	<path d="M-166,388.7l-28.6,13.4c-0.6,0.3-0.9,1-0.6,1.6c0.2,0.4,0.6,0.7,1.1,0.7c0.2,0,0.3,0,0.5-0.1l28.6-13.3
		c0.6-0.3,0.9-1,0.6-1.6C-164.7,388.7-165.4,388.4-166,388.7z"/>
	<path d="M-166,415.5l-28.6,13.4c-0.6,0.3-0.9,1-0.6,1.6c0.2,0.4,0.6,0.7,1.1,0.7c0.2,0,0.3,0,0.5-0.1l28.6-13.4
		c0.6-0.3,0.9-1,0.6-1.6C-164.7,415.4-165.4,415.2-166,415.5z"/>
</g>
</svg>
