<?xml version="1.0" encoding="utf-8"?>
<!-- Generator: Adobe Illustrator 19.0.0, SVG Export Plug-In . SVG Version: 6.00 Build 0)  -->
<svg version="1.1"
	 id="Camada_1" xmlns:dc="http://purl.org/dc/elements/1.1/" xmlns:cc="http://creativecommons.org/ns#" xmlns:rdf="http://www.w3.org/1999/02/22-rdf-syntax-ns#" xmlns:inkscape="http://www.inkscape.org/namespaces/inkscape" xmlns:svg="http://www.w3.org/2000/svg" xmlns:sodipodi="http://sodipodi.sourceforge.net/DTD/sodipodi-0.dtd"
	 xmlns="http://www.w3.org/2000/svg" xmlns:xlink="http://www.w3.org/1999/xlink" x="0px" y="0px" viewBox="-280 321.5 150 150"
	 style="enable-background:new -280 321.5 150 150;" xml:space="preserve">
<g transform="translate(0,-952.36218)">
	<path d="M-153.6,1273.9c-0.8,0.1-1.5,0.4-2.1,1l-78.9,78.9c-0.6,0.6-0.9,1.3-1,2.1l-2.5,22.2c-0.2,1.9,1.1,3.6,3.1,3.9
		c0.3,0,0.5,0,0.8,0l22.2-2.5c0.8-0.1,1.5-0.4,2.1-1l78.9-78.9c1.4-1.4,1.4-3.6,0-4.9c0,0,0,0,0,0l-19.7-19.7
		C-151.5,1274.1-152.6,1273.8-153.6,1273.9z M-153.2,1282.3l14.8,14.8l-4.9,4.9l-14.8-14.8L-153.2,1282.3z M-276.5,1291.3
		c-2,0.1-3.4,1.9-3.5,3.5v125.6c0,1.8,1.7,3.5,3.5,3.5h125.6c1.8,0,3.5-1.7,3.5-3.5v-75c0-1.8-1.6-3.5-3.5-3.5s-3.5,1.7-3.5,3.5
		v71.5H-273v-118.6h71.5c1.8,0,3.5-1.6,3.5-3.5c0-1.8-1.7-3.5-3.5-3.5H-276.5z M-163.1,1292.1l14.8,14.8l-62.9,62.9L-226,1355
		L-163.1,1292.1z M-229.3,1361.6l11.4,11.4l-12.9,1.4L-229.3,1361.6z"/>
</g>
</svg>
