<?xml version="1.0" encoding="utf-8"?>
<!-- Generator: Adobe Illustrator 19.0.0, SVG Export Plug-In . SVG Version: 6.00 Build 0)  -->
<svg version="1.1" id="Camada_1" xmlns="http://www.w3.org/2000/svg" xmlns:xlink="http://www.w3.org/1999/xlink" x="0px" y="0px"
	 viewBox="-280 321.5 150 150" style="enable-background:new -280 321.5 150 150;" xml:space="preserve">
<path d="M-205,471.5c-41.4,0-75-33.6-75-75s33.6-75,75-75s75,33.6,75,75S-163.6,471.5-205,471.5z M-205,328.3
	c-37.7,0-68.2,30.5-68.2,68.2s30.5,68.2,68.2,68.2s68.2-30.5,68.2-68.2S-167.3,328.3-205,328.3z M-170.9,420.4h-68.2v6.8h68.2V420.4
	z M-214.4,369.7l-4.8-4.8l-9.7,9.7l-9.7-9.7l-4.8,4.8l9.7,9.7l-9.7,9.7l4.8,4.8l9.7-9.7l9.7,9.7l4.8-4.8l-9.7-9.7L-214.4,369.7z
	 M-166.6,369.7l-4.8-4.8l-9.7,9.7l-9.7-9.7l-4.8,4.8l9.7,9.7l-9.7,9.7l4.8,4.8l9.7-9.7l9.7,9.7l4.8-4.8l-9.7-9.7L-166.6,369.7z"/>
</svg>
