<?xml version="1.0" encoding="utf-8"?>
<!-- Generator: Adobe Illustrator 19.0.0, SVG Export Plug-In . SVG Version: 6.00 Build 0)  -->
<svg version="1.1" id="Camada_1" xmlns="http://www.w3.org/2000/svg" xmlns:xlink="http://www.w3.org/1999/xlink" x="0px" y="0px"
	 viewBox="-280 321.5 150 150" style="enable-background:new -280 321.5 150 150;" xml:space="preserve">
<path d="M-188.7,396.5c0,9.1-7.2,16.3-16.3,16.3s-16.3-7.2-16.3-16.3s7.2-16.3,16.3-16.3S-188.7,387.4-188.7,396.5z M-205,438.9
	c-9.1,0-16.3,7.2-16.3,16.3c0,9.1,7.2,16.3,16.3,16.3s16.3-7.2,16.3-16.3C-188.7,446.1-195.9,438.9-205,438.9z M-205,354.1
	c9.1,0,16.3-7.2,16.3-16.3s-7.2-16.3-16.3-16.3s-16.3,7.2-16.3,16.3S-214.1,354.1-205,354.1z"/>
</svg>
