<?xml version="1.0" encoding="utf-8"?>
<!-- Generator: Adobe Illustrator 19.0.0, SVG Export Plug-In . SVG Version: 6.00 Build 0)  -->
<svg version="1.1" id="Camada_1" xmlns="http://www.w3.org/2000/svg" xmlns:xlink="http://www.w3.org/1999/xlink" x="0px" y="0px"
	 viewBox="0 0 150 150" style="enable-background:new 0 0 150 150;" xml:space="preserve">
<g id="XMLID_1_">
	<g id="XMLID_2_">
		<path id="XMLID_3_" d="M108.7,66.9c0,2.4-0.8,4.4-2.5,5.8c-1.7,1.5-3.7,2.1-6.1,1.8h-1.3c0-0.3-0.1-0.7-0.2-1.1
			c-0.2-0.4-0.1-0.7,0.2-0.7l1.3-0.4c2.4-0.3,4-0.9,4.9-1.8c0.9-0.9,1.3-2.5,1.3-4.9V41.2c0-4.5-2.2-6.7-6.7-6.7H88.5
			c-0.6,0-1.2-0.1-1.8-0.4c-0.6-0.3-1.1-0.7-1.3-1.3L84.4,30c-0.6-2.1-1.1-3.4-1.6-4c-0.5-0.6-1.1-1-1.8-1.1
			c-0.8-0.1-2.2-0.2-4.3-0.2H71c-2.1,0-3.6,1.1-4.5,3.4c-0.9,2.2-1.7,3.8-2.2,4.7c-0.6,0.9-1.3,1.4-2.2,1.6
			c-0.9,0.2-2.7,0.2-5.4,0.2h-6.3c-2.1,0-3.8,0.6-4.9,1.8c-1.2,1.2-1.8,2.9-1.8,4.9c0,8.1,0,16.3,0,24.7c0.3,3.6,2.2,5.7,5.8,6.3
			h6.3l9.9-9.9c-2.7-2.7-4-5.9-4-9.7c0-3.7,1.3-7,4-9.9c2.7-2.8,6.1-4.3,10.1-4.3c4,0,7.3,1.3,9.9,4c2.5,2.7,3.8,6.1,3.8,10.1
			s-1.3,7.4-4,9.9c-2.7,2.6-6,3.8-9.9,3.8c-3,0-5.7-0.9-8.1-2.7l-9.9,10.8c-0.3,0-0.8,0-1.3,0h-7.6c-2.1-0.3-3.8-1.2-4.9-2.7
			c-1.2-1.5-2-3.3-2.2-5.4c0-8.7,0-17.4,0-26.1c0.3-2.4,1.2-4.3,2.7-5.8c1.5-1.5,3.6-2.2,6.3-2.2c2.7,0,6,0,9.9,0
			c0.9,0,1.6-0.1,2-0.4c0.4-0.3,0.8-0.7,1.1-1.3c1.2-3,2.1-5,2.7-6.1c0.6-1,1.5-1.6,2.7-1.8c1.2-0.1,3.3-0.2,6.3-0.2h2.2
			c2.1,0,3.7,0.2,4.9,0.4c1.2,0.3,2.1,0.9,2.7,1.8c0.6,0.9,1.2,2.4,1.8,4.5c0.3,1.2,0.9,2.1,1.8,2.7c0.9,0.6,2.2,0.8,3.8,0.7
			c1.6-0.1,4.3-0.2,7.9-0.2c2.7,0,4.8,0.8,6.3,2.5c1.5,1.7,2.2,3.7,2.2,6.1V66.9z M48.9,30.4c-0.6-0.3-0.9-0.7-0.9-1.1
			c0-0.4,0.1-0.8,0.4-1.1h7.6h1.3c0.6,0.3,0.9,0.7,0.9,1.1c0,0.4-0.3,0.8-0.9,1.1h-6.7h-0.5H48.9z M67.1,60.6c2.2,2.4,5,3.6,8.3,3.6
			c3.3,0,6-1.1,8.1-3.4c2.1-2.2,3.1-5.1,3.1-8.5c0-3.4-1.1-6.2-3.1-8.3c-2.1-2.1-4.8-3.1-8.1-3.1c-3.3,0-6.1,1.1-8.3,3.4
			c-2.2,2.2-3.4,5-3.4,8.3C63.8,55.5,64.9,58.2,67.1,60.6z"/>
	</g>
	<path id="XMLID_16_" d="M110.4,14.6C100.6,4.9,88.8,0,75,0C61.2,0,49.4,4.9,39.6,14.6C29.9,24.4,25,36.2,25,50
		c0,7.1,1.1,12.9,3.2,17.5l35.6,75.6c1,2.1,2.5,3.8,4.5,5.1c2.1,1.2,4.2,1.9,6.6,1.9c2.3,0,4.5-0.6,6.6-1.9c2.1-1.2,3.6-2.9,4.6-5.1
		l35.5-75.6c2.1-4.6,3.2-10.4,3.2-17.5C125,36.2,120.1,24.4,110.4,14.6z M75,93.5C51,93.5,31.5,74,31.5,50S51,6.5,75,6.5
		S118.5,26,118.5,50S99,93.5,75,93.5z"/>
</g>
</svg>
