<?xml version="1.0" encoding="utf-8"?>
<!-- Generator: Adobe Illustrator 19.0.0, SVG Export Plug-In . SVG Version: 6.00 Build 0)  -->
<svg version="1.1" id="Camada_1" xmlns="http://www.w3.org/2000/svg" xmlns:xlink="http://www.w3.org/1999/xlink" x="0px" y="0px"
	 viewBox="-230 322 150 150" style="enable-background:new -230 322 150 150;" xml:space="preserve">
<style type="text/css">
	.st0{fill:#EAC43D;}
</style>
<g>
	<path class="st0" d="M-213.4,354.1h2.6h0.9h13.3c1.2-0.6,1.8-1.4,1.8-2.2c0-0.8-0.6-1.7-1.8-2.2h-2.6h-15.1
		c-0.6,0.6-0.9,1.4-0.9,2.2C-215.1,352.9-214.5,353.5-213.4,354.1z"/>
	<polygon class="st0" points="-102.6,424.3 -102.6,409.9 -111.9,410.9 -112.6,424.3 -126.2,425 -126.2,433.6 -112.6,434.3 
		-111.9,447.8 -102.6,448.8 -102.6,434.3 -88.3,434.3 -88.3,424.3 	"/>
	<path class="st0" d="M-95.4,405.8v-31c0-4.8-1.5-8.8-4.5-12c-2.9-3.2-7.1-4.9-12.5-4.9c-7.1,0-12.3,0.2-15.6,0.5
		c-3.2,0.3-5.7-0.1-7.6-1.4c-1.8-1.2-2.9-2.9-3.5-5.4c-1.2-4.1-2.3-7.1-3.5-8.9s-2.9-2.9-5.4-3.5c-2.3-0.6-5.6-0.9-9.7-0.9h-4.5
		c-5.9,0-10,0.2-12.5,0.5c-2.3,0.3-4.2,1.5-5.4,3.5c-1.2,2-2.9,6-5.4,12c-0.6,1.2-1.4,2-2.2,2.6c-0.9,0.6-2.2,0.9-4,0.9
		c-7.7,0-14.2,0-19.6,0c-5.4,0-9.4,1.5-12.5,4.5c-2.9,2.9-4.8,6.8-5.4,11.6c0,17.1,0,34.4,0,51.5c0.6,4.2,2,7.7,4.5,10.6
		c2.3,2.9,5.6,4.8,9.7,5.4h15.1c1.2,0,2,0,2.6,0l19.6-21.3c4.8,3.5,10,5.4,16,5.4c7.7,0,14.2-2.5,19.6-7.6c5.4-5.1,8-11.6,8-19.6
		s-2.5-14.6-7.6-20c-4.4-5.4-10.8-8.1-18.8-8.1s-14.6,2.8-20,8.5c-5.4,5.6-8.1,12.2-8.1,19.6c0,7.4,2.6,13.7,8,19.1l-19.6,19.6
		h-12.4c-7.1-1.2-11-5.4-11.6-12.5c0-16.6,0-32.8,0-48.9c0-4.1,1.2-7.4,3.5-9.7c2.3-2.3,5.6-3.5,9.7-3.5h12.6
		c5.4,0,8.9-0.1,10.6-0.5c1.8-0.3,3.2-1.4,4.5-3.1c1.2-1.8,2.6-4.9,4.5-9.4c1.8-4.5,4.8-6.6,8.9-6.6h11.5c4.1,0,6.9,0.2,8.5,0.5
		c1.5,0.3,2.6,1.1,3.5,2.2c0.9,1.1,1.9,3.9,3.1,8l1.8,5.4c0.6,1.2,1.5,2,2.6,2.6c1.2,0.6,2.3,0.9,3.5,0.9h22.2
		c8.9,0,13.3,4.5,13.3,13.3V404c-2.3-0.7-4.8-1.1-7.4-1.1c-14.6,0-26.4,11.8-26.4,26.4c0,14.6,11.8,26.4,26.4,26.4
		s26.4-11.8,26.4-26.4C-80.8,419.1-86.8,410.2-95.4,405.8z M-184.1,397.6c0-6.5,2.2-12,6.6-16.5c4.5-4.5,9.9-6.6,16.5-6.6
		c6.6,0,11.9,2,16,6.2c4.1,4.2,6.2,9.6,6.2,16.5c0.1,6.9-2,12.4-6.2,16.9c-4.2,4.5-9.4,6.6-16,6.6c-6.5,0-12-2.3-16.5-7.1
		C-182,408.8-184.1,403.6-184.1,397.6z M-107.2,452.8c-12.9,0-23.4-10.5-23.4-23.4c0-12.9,10.5-23.4,23.4-23.4s23.4,10.5,23.4,23.4
		C-83.8,442.3-94.3,452.8-107.2,452.8z"/>
</g>
</svg>
