<?xml version="1.0" encoding="utf-8"?>
<!-- Generator: Adobe Illustrator 19.0.0, SVG Export Plug-In . SVG Version: 6.00 Build 0)  -->
<svg version="1.1" id="Camada_1" xmlns="http://www.w3.org/2000/svg" xmlns:xlink="http://www.w3.org/1999/xlink" x="0px" y="0px"
	 viewBox="-230 322 150 150" style="enable-background:new -230 322 150 150;" xml:space="preserve">
<style type="text/css">
	.st0{fill:#EAC43D;}
	.st1{fill:#EAC43D;stroke:#EAC43D;stroke-width:3;stroke-miterlimit:10;}
	.st2{fill:none;stroke:#EAC43D;stroke-width:3;stroke-miterlimit:10;}
</style>
<g id="XMLID_1_">
	<g id="XMLID_15_">
		<path id="XMLID_16_" class="st0" d="M-213,354.9h2.6h0.9h13.3c1.2-0.6,1.8-1.4,1.8-2.2s-0.6-1.7-1.8-2.2h-2.6h-15.1
			c-0.6,0.6-0.9,1.4-0.9,2.2C-214.7,353.7-214.1,354.3-213,354.9z"/>
		<path id="XMLID_33_" class="st0" d="M-160.1,370.9c-8,0-14.6,2.8-20,8.5c-5.4,5.6-8.1,12.2-8.1,19.6s2.6,13.7,8,19.1l-19.6,19.6
			h-12.4c-7.1-1.2-11-5.4-11.6-12.5c0-16.6,0-32.8,0-48.9c0-4.1,1.2-7.4,3.5-9.7s5.6-3.5,9.7-3.5h12.6c5.4,0,8.9-0.1,10.6-0.5
			c1.8-0.3,3.2-1.4,4.5-3.1c1.2-1.8,2.6-4.9,4.5-9.4c1.8-4.5,4.8-6.6,8.9-6.6h11.5c4.1,0,6.9,0.2,8.5,0.5c1.5,0.3,2.6,1.1,3.5,2.2
			s1.9,3.9,3.1,8l1.8,5.4c0.6,1.2,1.5,2,2.6,2.6c1.2,0.6,2.3,0.9,3.5,0.9h22.2c8.9,0,13.3,4.5,13.3,13.3v30.4c1.6,0.4,3,0.9,4.5,1.5
			v-32.8c0-4.8-1.5-8.8-4.5-12c-2.9-3.2-7.1-4.9-12.5-4.9c-7.1,0-12.3,0.2-15.6,0.5c-3.2,0.3-5.7-0.1-7.6-1.4
			c-1.8-1.2-2.9-2.9-3.5-5.4c-1.2-4.1-2.3-7.1-3.5-8.9s-2.9-2.9-5.4-3.5c-2.3-0.6-5.6-0.9-9.7-0.9h-4.5c-5.9,0-10,0.2-12.5,0.5
			c-2.3,0.3-4.2,1.5-5.4,3.5c-1.2,2-2.9,6-5.4,12c-0.6,1.2-1.4,2-2.2,2.6c-0.9,0.6-2.2,0.9-4,0.9c-7.7,0-14.2,0-19.6,0
			s-9.4,1.5-12.5,4.5c-2.9,2.9-4.8,6.8-5.4,11.6c0,17.1,0,34.4,0,51.5c0.6,4.2,2,7.7,4.5,10.6c2.3,2.9,5.6,4.8,9.7,5.4h15.1
			c1.2,0,2,0,2.6,0l19.6-21.3c4.8,3.5,10,5.4,16,5.4c7.7,0,14.2-2.5,19.6-7.6s8-11.6,8-19.6s-2.5-14.6-7.6-20
			C-145.7,373.6-152.1,370.9-160.1,370.9z M-144.6,414.9c-4.2,4.5-9.4,6.6-16,6.6c-6.5,0-12-2.3-16.5-7.1s-6.6-10-6.6-16
			c0-6.5,2.2-12,6.6-16.5c4.5-4.5,9.9-6.6,16.5-6.6s11.9,2,16,6.2c4.1,4.2,6.2,9.6,6.2,16.5C-138.3,404.9-140.4,410.4-144.6,414.9z"
			/>
	</g>
	<g id="XMLID_17_">
		<polygon id="XMLID_18_" class="st1" points="-89.5,433.6 -89.5,426.5 -103.7,426.5 -103.7,412.3 -110.1,413 -110.8,426.5 
			-124.3,427.2 -124.3,432.9 -110.8,433.6 -110.1,447.2 -103.7,447.9 -103.7,433.6 		"/>
		<circle id="XMLID_11_" class="st2" cx="-106.9" cy="430.1" r="24.9"/>
	</g>
</g>
</svg>
