<?xml version="1.0" encoding="utf-8"?>
<!-- Generator: Adobe Illustrator 19.0.0, SVG Export Plug-In . SVG Version: 6.00 Build 0)  -->
<svg version="1.1" id="Camada_1" xmlns="http://www.w3.org/2000/svg" xmlns:xlink="http://www.w3.org/1999/xlink" x="0px" y="0px"
	 viewBox="0 0 150 150" style="enable-background:new 0 0 150 150;" xml:space="preserve">
<style type="text/css">
	.st0{fill:#EAC43D;}
	.st1{fill:#EAC43D;stroke:#EAC43D;stroke-width:3;stroke-miterlimit:10;}
	.st2{fill:none;stroke:#EAC43D;stroke-width:3;stroke-miterlimit:10;}
</style>
<g id="XMLID_1_">
	<g id="XMLID_15_">
		<path id="XMLID_16_" class="st0" d="M15.5,31.8h2.7h0.9h13.7c1.2-0.6,1.8-1.4,1.8-2.3c0-0.9-0.6-1.7-1.8-2.3h-2.7H14.6
			c-0.6,0.6-0.9,1.4-0.9,2.3C13.7,30.5,14.3,31.2,15.5,31.8z"/>
		<path id="XMLID_33_" class="st0" d="M69.8,48.2c-8.2,0-15,2.9-20.5,8.7C43.8,62.7,41,69.4,41,77c0,7.6,2.7,14.1,8.2,19.6
			l-20.1,20.1H16.4c-7.3-1.2-11.3-5.5-11.9-12.8c0-17,0-33.7,0-50.2c0-4.2,1.2-7.6,3.6-10c2.4-2.4,5.8-3.6,10-3.6H31
			c5.5,0,9.1-0.1,10.9-0.5c1.8-0.3,3.3-1.4,4.6-3.2c1.2-1.8,2.7-5,4.6-9.6c1.8-4.6,4.9-6.8,9.1-6.8H72c4.2,0,7.1,0.2,8.7,0.5
			c1.5,0.3,2.7,1.1,3.6,2.3c0.9,1.2,2,4,3.2,8.2l1.8,5.5c0.6,1.2,1.5,2.1,2.7,2.7c1.2,0.6,2.4,0.9,3.6,0.9h22.8
			c9.1,0,13.7,4.6,13.7,13.7v31.2c1.6,0.4,3.1,0.9,4.6,1.5V52.8c0-4.9-1.5-9-4.6-12.3c-3-3.3-7.3-5-12.8-5c-7.3,0-12.6,0.2-16,0.5
			c-3.3,0.3-5.9-0.1-7.8-1.4c-1.8-1.2-3-3-3.6-5.5c-1.2-4.2-2.4-7.3-3.6-9.1c-1.2-1.8-3-3-5.5-3.6c-2.4-0.6-5.8-0.9-10-0.9h-4.6
			c-6.1,0-10.3,0.2-12.8,0.5c-2.4,0.3-4.3,1.5-5.5,3.6c-1.2,2.1-3,6.2-5.5,12.3c-0.6,1.2-1.4,2.1-2.3,2.7c-0.9,0.6-2.3,0.9-4.1,0.9
			c-7.9,0-14.6,0-20.1,0c-5.5,0-9.7,1.5-12.8,4.6c-3,3-4.9,7-5.5,11.9c0,17.6,0,35.3,0,52.9c0.6,4.3,2.1,7.9,4.6,10.9
			c2.4,3,5.8,4.9,10,5.5h15.5c1.2,0,2.1,0,2.7,0l20.1-21.9c4.9,3.6,10.3,5.5,16.4,5.5c7.9,0,14.6-2.6,20.1-7.8
			c5.5-5.2,8.2-11.9,8.2-20.1s-2.6-15-7.8-20.5C84.6,51,78,48.2,69.8,48.2z M85.7,93.4c-4.3,4.6-9.7,6.8-16.4,6.8
			c-6.7,0-12.3-2.4-16.9-7.3c-4.6-4.9-6.8-10.3-6.8-16.4c0-6.7,2.3-12.3,6.8-16.9c4.6-4.6,10.2-6.8,16.9-6.8
			c6.7,0,12.2,2.1,16.4,6.4c4.2,4.3,6.4,9.9,6.4,16.9C92.1,83.1,90,88.8,85.7,93.4z"/>
	</g>
	<g id="XMLID_17_">
		<polygon id="XMLID_18_" class="st1" points="142.3,112.6 142.3,105.3 127.7,105.3 127.7,90.7 121.1,91.4 120.4,105.3 106.5,106 
			106.5,111.9 120.4,112.6 121.1,126.5 127.7,127.3 127.7,112.6 		"/>
		<circle id="XMLID_11_" class="st2" cx="124.4" cy="109" r="25.6"/>
	</g>
</g>
</svg>
