<?xml version="1.0" encoding="utf-8"?>
<!-- Generator: Adobe Illustrator 19.0.0, SVG Export Plug-In . SVG Version: 6.00 Build 0)  -->
<svg version="1.1" id="Camada_1" xmlns="http://www.w3.org/2000/svg" xmlns:xlink="http://www.w3.org/1999/xlink" x="0px" y="0px"
	 viewBox="-280 321.5 150 150" style="enable-background:new -280 321.5 150 150;" xml:space="preserve">
<title>all</title>
<g>
	<g>
		<g>
			<g>
				<g>
					<g>
						<g>
							<g>
								<g>
									<g>
										<g>
											<g>
												<path d="M-205,321.5c-41.4,0-75,33.6-75,75s33.6,75,75,75s75-33.6,75-75S-163.6,321.5-205,321.5z M-162.6,421.5
													c1.4-6.6,2.2-13.3,2.5-20h19.9c-0.5,6.9-2.1,13.6-4.8,20H-162.6z M-247.4,371.5c-1.4,6.6-2.2,13.3-2.5,20h-19.9
													c0.5-6.9,2.1-13.6,4.8-20H-247.4z M-172.8,371.5c1.5,6.6,2.4,13.3,2.7,20H-200v-20H-172.8z M-200,361.5v-29.3
													c2.4,0.7,4.7,1.9,6.8,3.3c4.7,3.5,8.6,8,11.5,13c2.4,4.1,4.4,8.4,6,12.9H-200z M-228.3,348.6c2.9-5.1,6.8-9.5,11.5-13.1
													c2-1.5,4.3-2.6,6.8-3.3v29.3h-24.3C-232.7,357-230.7,352.7-228.3,348.6z M-210,371.5v20h-29.9c0.3-6.7,1.2-13.4,2.7-20
													L-210,371.5L-210,371.5z M-265,421.5c-2.7-6.4-4.3-13.1-4.8-20h19.9c0.3,6.7,1.1,13.4,2.5,20H-265z M-239.9,401.5h29.9
													v20h-27.2C-238.7,414.9-239.6,408.2-239.9,401.5z M-210,431.5v29.3c-2.4-0.7-4.7-1.9-6.8-3.3c-4.7-3.5-8.6-8-11.5-13
													c-2.4-4.1-4.4-8.4-6-12.9H-210z M-181.8,444.4c-2.9,5.1-6.8,9.5-11.5,13.1c-2,1.5-4.3,2.6-6.8,3.3v-29.3h24.3
													C-177.3,436-179.3,440.3-181.8,444.4z M-200,421.5v-20h29.9c-0.3,6.7-1.2,13.4-2.7,20L-200,421.5L-200,421.5z
													 M-160.1,391.5c-0.3-6.7-1.1-13.4-2.5-20h17.6c2.7,6.4,4.3,13.1,4.8,20H-160.1z M-150.2,361.5h-15
													c-2.6-8.5-6.6-16.5-11.8-23.7C-166,343.1-156.8,351.3-150.2,361.5L-150.2,361.5z M-251,350.5
													c5.2-5.2,11.3-9.5,17.9-12.7c-5.2,7.2-9.2,15.2-11.8,23.7h-15C-257.3,357.5-254.3,353.9-251,350.5z M-259.8,431.5h15
													c2.6,8.5,6.6,16.5,11.8,23.7C-244,449.9-253.2,441.7-259.8,431.5L-259.8,431.5z M-159,442.5
													c-5.2,5.2-11.3,9.5-17.9,12.7c5.2-7.2,9.2-15.2,11.8-23.7h15C-152.7,435.5-155.7,439.2-159,442.5L-159,442.5z"/>
											</g>
										</g>
									</g>
								</g>
							</g>
						</g>
					</g>
				</g>
			</g>
		</g>
	</g>
</g>
</svg>
