<?xml version="1.0" encoding="utf-8"?>
<!-- Generator: Adobe Illustrator 19.0.0, SVG Export Plug-In . SVG Version: 6.00 Build 0)  -->
<svg version="1.1" id="Layer_1" xmlns="http://www.w3.org/2000/svg" xmlns:xlink="http://www.w3.org/1999/xlink" x="0px" y="0px"
	 viewBox="-230 322 150 150" style="enable-background:new -230 322 150 150;" xml:space="preserve">
<style type="text/css">
	.st0{fill:#1C161C;}
</style>
<g id="XMLID_195_">
	<g id="XMLID_200_">
		<path id="XMLID_204_" class="st0" d="M-203.4,357.4c-2.3,0-4.7,0-7,0c-1.9,0-4.2-0.1-4.4-2.6c-0.2-2.9,2.3-2.5,4.1-2.6
			c4.7-0.1,9.4,0,14.1,0c2,0,4.2,0.1,4.1,2.8c-0.1,2.2-2.1,2.3-3.9,2.4C-198.7,357.4-201,357.4-203.4,357.4z"/>
		<path id="XMLID_201_" class="st0" d="M-153.8,375.2c-17.7-0.1-31.4,13.7-31.3,31.7c0.1,16.3,14.2,30.1,30.9,30.2
			c17.4,0.1,30.8-13.1,30.9-30.4C-123.2,388.3-135.8,375.3-153.8,375.2z M-154.6,431.7c-13.9-0.1-25.3-11.7-25.3-25.7
			c0-14.4,11.5-25.7,25.8-25.7c15.1,0.1,25.5,10.5,25.4,25.5C-128.6,421.3-139.4,431.9-154.6,431.7z"/>
	</g>
	<g id="XMLID_196_">
		<path id="XMLID_199_" class="st0" d="M-204.2,455.3c-2.3,0-4.7,0-7,0c-1.9,0-4.2-0.1-4.4-2.6c-0.2-2.9,2.3-2.5,4.1-2.6
			c4.7-0.1,9.4,0,14.1,0c2,0,4.5,0.1,4.1,2.8c-0.3,2.2-2.1,2.3-3.9,2.4C-199.5,455.3-201.8,455.3-204.2,455.3z"/>
		<path id="XMLID_198_" class="st0" d="M-80.1,408.5c0,9.8,0.1,19.7,0,29.5c-0.2,10.1-8.4,17.6-18.4,17.2c-1.7-0.1-3.8,0.4-4-2.2
			c-0.3-3,2-2.7,3.9-2.9c10-1.3,13.4-5.1,13.4-14.9c0-18.2,0-36.3,0-54.5c0-9.6-4.7-14.4-14.5-14.5c-8.3-0.1-16.6-0.2-24.9,0
			c-3.6,0.1-5.5-1-6.8-4.5c-7.3-19.8-3.6-17.7-25.7-17.8c-2.2,0-4.4,0-6.6,0c-5.2-0.1-8.4,2.1-10.3,7.2
			c-5.5,15.1-5.6,15.1-21.5,15.1c-4.8,0-9.6-0.1-14.4,0c-9,0.3-14.5,5.4-14.6,14.3c-0.2,18.4-0.2,36.8,0,55.1
			c0.1,8.7,5,13.7,13.6,14.6c2,0.2,5.2-0.6,4.6,2.9c-0.4,2.2-3.4,2.2-5.3,2.1c-10.1-0.2-17.8-7.7-18-18.7c-0.4-19-0.4-38.1,0-57.1
			c0.3-11,7.9-17.9,19.2-18.3c7.4-0.3,14.9-0.2,22.3,0c3.6,0.1,5.4-1.1,6.8-4.5c7.1-17.8,7.2-17.8,26.7-17.8c1.5,0,3.1,0,4.6,0
			c13.9,0.1,16.8,1.7,21,14.8c2,6.3,5.2,8.1,11.3,7.6c6.3-0.5,12.7-0.3,19-0.1c11.4,0.4,18.6,7.8,18.7,19.2
			C-80,389.7-80,399.1-80.1,408.5C-80,408.5-80,408.5-80.1,408.5z"/>
		<path id="XMLID_197_" class="st0" d="M-197.9,454.5L-197.9,454.5c-1.1-1.1-1.2-2.9-0.1-4l23.3-24.8c1.1-1.1,2.9-1.2,4-0.1l0,0
			c1.1,1.1,1.2,2.9,0.1,4l-23.3,24.8C-195.5,455.3-196.8,455.6-197.9,454.5z"/>
	</g>
</g>
</svg>
